<?xml version="1.0" standalone="no"?>
<!DOCTYPE svg PUBLIC "-//W3C//DTD SVG 1.1//EN" "http://www.w3.org/Graphics/SVG/1.1/DTD/svg11.dtd" >
<svg>
<metadata>
Created by FontForge 20090622 at Thu Oct  3 13:04:33 2019
 By deploy user
Copyright &#230;&#128;&#128;1992 Image Club Graphics, Inc.
</metadata>
<defs>
<font id="KaufmannScript" horiz-adv-x="494" >
  <font-face 
    font-family="Kaufmann"
    font-weight="5"
    font-stretch="normal"
    units-per-em="1393"
    panose-1="0 0 0 0 0 0 0 0 0 0"
    ascent="1114"
    descent="-279"
    x-height="486"
    cap-height="1004"
    bbox="-129 -415 1428 1280"
    underline-thickness="20"
    underline-position="-184"
    unicode-range="U+0020-U+25CA"
  />
<missing-glyph horiz-adv-x="988" 
d="M61 0v988h866v-988h-866zM866 61v866h-744v-866h744z" />
    <glyph glyph-name=".notdef" horiz-adv-x="988" 
d="M61 0v988h866v-988h-866zM866 61v866h-744v-866h744z" />
    <glyph glyph-name=".null" unicode="&#xd7;" horiz-adv-x="0" 
 />
    <glyph glyph-name=".null" unicode="&#x141;" horiz-adv-x="0" 
 />
    <glyph glyph-name=".null" unicode="&#xfd;" horiz-adv-x="0" 
 />
    <glyph glyph-name="nonmarkingreturn" horiz-adv-x="394" 
 />
    <glyph glyph-name="space" unicode=" " horiz-adv-x="394" 
 />
    <glyph glyph-name="exclam" unicode="!" horiz-adv-x="368" 
d="M420 824q0 -13 -9 -27q-13 -19 -15 -26l-99 -256l-45 -122q-47 -130 -51 -136q-9 -25 -17 -50q-12 -28 -29 -28q-5 0 -12 2t-7 17q0 12 7.5 32t15.5 39l186 511q6 23 10.5 36.5t14.5 19t15 7.5q8 3 14 3q8 0 14.5 -5.5t6.5 -16.5zM136 32q-7 -15 -20 -25t-27 -10
q-8 0 -16 5q-15 8 -15 30q0 9 3 19t8 20q9 17 20 27t26 10q6 0 13 -2.5t12.5 -12t5.5 -23.5q0 -20 -10 -38z" />
    <glyph glyph-name="quotedbl" unicode="&#x22;" horiz-adv-x="400" 
d="M595 1025l-93 -185q-6 -13 -13.5 -21.5t-17.5 -8.5q-17 0 -17 18q0 2 2 10l59 187q5 13 18 19t32 6t26 -4t7 -10q0 -3 -1 -6q-2 -4 -2 -5zM458 1025l-92 -185q-5 -12 -13.5 -21t-18.5 -9q-16 0 -16 18q0 2 2 10l59 187q2 9 10 15q14 10 39 10q19 0 26.5 -4t7.5 -10
q0 -3 -1 -6q-2 -4 -3 -5z" />
    <glyph glyph-name="numbersign" unicode="#" horiz-adv-x="945" 
d="M1114 779q-2 -14 -10.5 -19t-25.5 -5q-16 0 -26 1q-49 5 -56 5q-30 0 -48 -1q-89 -5 -99 -5l-37 -47l-60 -78l-55 -75q-79 -110 -89 -123h239h31q24 0 40.5 -2.5t13.5 -21.5t-33 -19q-17 0 -27 1q-51 5 -59 5l-147 -4q-24 0 -48 -2.5t-37 -2.5l-37 -57q-27 -42 -48 -78.5
l-41 -72.5l-17 -33q-12 -17 -38 -17q-16 0 -16 16q0 28 59 115l54 77l32 45q-10 -1 -46.5 -3t-67.5 -5.5t-39 -4.5q-23 -5 -39 -7l-28 -43q-13 -23 -39.5 -65l-51.5 -82q-14 -22 -16 -23q-11 -9 -40 -9q-7 0 -7 8q0 20 38 79q29 45 71 100l23 30l-82 -15t-63.5 -13t-34 -8
t-18.5 -2q-16 0 -23 15q-8 18 47.5 36.5t155.5 31.5l43 5l64 93l83 115l89 120l-37 -5q-60 -5 -129 -21.5l-90.5 -21.5t-42.5 -9q-19 0 -29 17l43 38q41 12 137 25l151 19l29 4q6 12 51 68q49 61 75 87l34 36q21 21 33 21q7 0 12 -6q2 -2 3 -5q2 -5 2 -9q0 -14 -24 -38
q-37 -37 -48 -51q-23 -30 -35 -47q-21 -28 -44 -54q11 1 18 2q53 7 70 7l97 6q28 39 58.5 75.5t53.5 57.5l31 32q20 20 30 20q6 0 12.5 -7t6.5 -16q0 -13 -25 -36q-37 -34 -49 -49l-55 -71h18q38 0 77.5 1.5t63.5 2.5q37 0 46 -2q25 -6 22 -26zM793 751l-100 -8l-99 -9
l-66 -96q-10 -13 -65.5 -92l-71.5 -102l-23 -32l97 10l91 5l38 59l91 127z" />
    <glyph glyph-name="dollar" unicode="$" horiz-adv-x="572" 
d="M608 641q2 -23 -5 -34.5t-18 -13.5q-15 -2 -17.5 18t-4.5 40q-6 31 -32.5 46t-63.5 15q-60 0 -103.5 -45.5t-43.5 -96.5q0 -32 9.5 -54t33.5 -50l32 -37q27 -31 48 -77q25 -55 25 -101q0 -88 -63.5 -150.5t-155.5 -62.5q-16 0 -24 1q-5 1 -6 0q-4 -8 -7 -17l-43 -95
q-6 -18 -11 -36q-7 -15 -34 -12q-11 0 -11 16q0 12 5 24l39 91q7 16 7 28q0 15 -11 19q-33 12 -57 48q-28 41 -28 93q0 22 8.5 41t25.5 14q15 -4 15 -25q0 -8 -1 -17.5l-2 -18.5q0 -58 46 -90q33 -23 68 -23q83 0 136 47t53 121q0 59 -40 112l-50 67q-26 35 -31 43
q-26 40 -26 81q0 78 53.5 142.5t130.5 64.5q19 0 31 22q6 11 11 26l14 40q8 24 28 24q4 0 10.5 -4t6.5 -15t-5 -21l-19 -44q-6 -16 -6 -23t2 -11q3 -8 15.5 -14.5t16.5 -9.5l25 -25q18 -22 24 -61z" />
    <glyph glyph-name="percent" unicode="%" horiz-adv-x="813" 
d="M497 679q-25 -75 -82 -135t-109 -60q-22 0 -43 16.5t-30.5 39.5t-9.5 55q0 22 4.5 46t13.5 53q23 77 76 134q57 62 114 62q19 0 34 -7q27 -12 38.5 -38.5t11.5 -62.5q0 -24 -5 -52t-13 -51zM785 853q7 -8 7 -16q0 -15 -36 -48q-25 -23 -38 -39l-105 -134l-81 -111
q-7 -10 -80 -102q-35 -43 -78 -108q-28 -43 -64 -104q-74 -127 -81 -137l-15 -39q-8 -9 -35 -9q-15 0 -15 11q0 23 35 87q31 57 81 133q23 36 88 129q25 36 106.5 143.5l145.5 187.5q76 95 92 107q7 5 32 33q20 22 30 22q6 0 11 -6zM686 189q-25 -75 -82 -135t-109 -60
q-22 0 -43 16.5t-30.5 39.5t-9.5 55q0 22 4.5 46t13.5 53q23 77 76 134q57 62 114 62q19 0 34 -7q27 -12 38.5 -38.5t11.5 -62.5q0 -24 -5 -52t-13 -51zM450 682q7 24 11.5 46t4.5 41q0 24 -7 38t-24 20q-5 2 -12 3q-6 1 -11 1q-24 0 -48.5 -19t-57 -77t-32.5 -121
q0 -55 29 -65q9 -3 18 -3q38 0 76 41.5t53 94.5zM639 192q7 24 11.5 46t4.5 41q0 24 -7 38t-24 20q-5 2 -12 3q-6 1 -11 1q-24 0 -48.5 -19t-57 -77t-32.5 -121q0 -55 29 -65q9 -3 18 -3q38 0 76 41.5t53 94.5z" />
    <glyph glyph-name="ampersand" unicode="&#x26;" horiz-adv-x="665" 
d="M610 671q0 -34 -19 -57q-4 -5 -90 -68q-31 -22 -88 -88q-40 -45 -53 -36q-12 8 -12 20q0 23 36 61q11 11 37 34l63 56l51 38q26 23 20 44q-3 11 -19 17t-39 6q-43 0 -91.5 -14.5t-83.5 -39.5q-49 -35 -73 -75q-27 -44 -27 -99q0 -26 15 -55q34 -65 34 -80
q0 -13 -115 -123q-54 -52 -54 -104q0 -33 19.5 -48t54.5 -15q58 0 127.5 35t95.5 75q5 8 5 19q0 16 -10 29l-33 45q-5 8 -5 17q0 18 12 24.5t17 6.5q7 0 12 -7q1 -1 8 -14l24 -44q3 -10 5 -14q4 -8 10 -10q9 -3 17 5q3 3 13 18l31 45q9 12 15.5 18t18.5 6q9 0 23 -6
q5 -3 5 -8t-3.5 -11.5t-7.5 -10.5l-64 -72q-6 -7 -9 -11q-6 -9 -6 -21q0 -10 5 -20l7 -11l63 -93l6 -8q4 -5 3 -9q-2 -7 -18 -9l-17 -1q-4 -1 -13.5 3.5t-16.5 17.5l-49 82q-4 7 -15 7q-7 0 -11 -4q-100 -97 -191 -112q-42 -3 -49 -4q-39 -4 -80 16q-59 29 -59 97
q0 27 23.5 70.5t57.5 70.5l25 21q28 18 39 26q20 14 27 37q2 8 2 12q0 12 -33 74q-16 30 -16 52q0 8 1 12q21 121 110.5 190.5t214.5 69.5q44 0 77 -17q40 -21 40 -58z" />
    <glyph glyph-name="quotesingle" unicode="'" horiz-adv-x="277" 
d="M467 1022l-93 -185q-6 -13 -13.5 -21.5t-17.5 -8.5q-17 0 -17 17q0 2 2 10l59 188q6 13 18 19t32 6q19 0 26 -4t7 -11q0 -1 -3 -10z" />
    <glyph glyph-name="parenleft" unicode="(" horiz-adv-x="362" 
d="M526 994q10 -9 10 -19q0 -14 -25.5 -39l-50.5 -49q-77 -86 -105 -125q-46 -64 -71 -123l-47 -115q-22 -58 -39.5 -127t-24 -162.5t-6.5 -163.5q0 -9 2.5 -31.5t2.5 -27.5q0 -18 -4.5 -27.5t-18.5 -13.5q-15 -4 -24 49t-9 137q0 83 9.5 164t30.5 141q35 100 52 142
q31 77 71 143q33 55 86 120l69 81q17 21 35 35q22 17 39 17q10 0 18 -6z" />
    <glyph glyph-name="parenright" unicode=")" horiz-adv-x="355" 
d="M355 992q15 4 24.5 -48t9.5 -136q0 -85 -9.5 -164t-31.5 -143q-38 -109 -51 -142q-29 -73 -71 -144q-31 -51 -87 -119l-68 -81q-17 -21 -37.5 -37t-37.5 -16q-10 0 -19 7.5t-9 17.5q0 15 25 39.5l51 49.5q61 64 106.5 127.5t69.5 120.5q44 104 58.5 144.5t27.5 93.5
q19 73 27 187q5 70 5 143q0 10 -2.5 32t-2.5 27q0 16 2.5 26t19.5 15z" />
    <glyph glyph-name="asterisk" unicode="*" horiz-adv-x="381" 
d="M551 999q6 -8 6 -11q0 -4 -11 -12q-19 -13 -47 -29.5t-51 -28.5l29 -31l23 -24q8 -8 8 -13q0 -3 -4 -7q-6 -5 -10 -8q-8 -8 -15 -8q-8 0 -14 11l-33 67q-5 -29 -9 -48t-10 -39q-2 -8 -4.5 -15t-20.5 -7q-16 0 -16 7q0 4 5 16q19 45 22 53q11 27 13 33l-80 -61
q-6 -5 -11 -5q-4 0 -8.5 12t-4.5 13q0 5 11 11q30 14 47.5 23t42.5 24l-49 54q-4 4 -4 9q0 9 14 18.5t15 9.5q3 0 8 -8q9 -14 13 -22.5t19 -43.5l26 93q3 12 25 12q15 0 15 -6q0 -3 -5 -13l-39 -89l80 66q10 6 12 6q4 0 12 -9z" />
    <glyph glyph-name="plus" unicode="+" horiz-adv-x="594" 
d="M501 243l-21 -53h-192l-73 -192h-50l73 192h-190l21 54h189l74 192h52l-74 -193h191z" />
    <glyph glyph-name="comma" unicode="," horiz-adv-x="324" 
d="M149 99q8 -10 -20 -43q-18 -22 -25 -33l-74 -122q-11 -19 -13 -22q-9 -13 -18 -13q-1 0 -7 2q-9 5 -9 18q0 11 5 24l51 117q5 10 11.5 33t14 34t19.5 11l42 3q15 2 23 -9z" />
    <glyph glyph-name="hyphen" unicode="-" horiz-adv-x="416" 
d="M296 220q-5 -14 -7 -18q-6 -9 -23 -9h-192q-23 0 -23 13q0 6 3 13l7.5 18t22.5 11h190q15 0 18 -1q7 -2 7 -12q0 -6 -3 -15z" />
    <glyph glyph-name="period" unicode="." horiz-adv-x="331" 
d="M111 21q-8 -15 -23 -25.5t-30 -10.5q-11 0 -20 8.5t-9 23.5q0 11 3.5 20.5t12.5 25t20.5 26t26.5 10.5q5 0 14.5 -3.5t13.5 -12t4 -20.5q0 -22 -13 -42z" />
    <glyph glyph-name="slash" unicode="/" horiz-adv-x="491" 
d="M609 853q6 -6 6 -16q0 -13 -25 -37q-38 -36 -49 -50l-105 -134l-81 -111q-3 -5 -80 -102q-29 -37 -77 -108q-30 -44 -102 -170q-29 -51 -44 -71l-15 -39q-8 -9 -35 -9q-15 0 -15 11q0 22 36 87q33 60 81 133l88 129q25 36 107 144l145 187q76 96 91 107q8 5 33 33
q20 22 30 22q5 0 11 -6z" />
    <glyph glyph-name="zero" unicode="0" horiz-adv-x="661" 
d="M631 387q-49 -150 -163.5 -269.5t-218.5 -119.5q-47 0 -85 29q-43 34 -62 82t-19 108q0 47 9 92.5t27 107.5q46 152 153 269q115 125 227 125q36 0 67 -14q54 -24 78 -76.5t24 -125.5q0 -51 -9.5 -101t-27.5 -107zM577 387q17 57 28 113t11 105q0 58 -16 91
q-19 39 -61 53q-14 5 -29.5 7t-28.5 2q-61 0 -117 -44q-68 -54 -147 -193q-37 -65 -59 -147t-22 -156q0 -65 17 -107.5t55 -56.5q24 -8 45 -8q93 0 192 109q93 103 132 232z" />
    <glyph glyph-name="one" unicode="1" horiz-adv-x="337" 
d="M446 804q3 -9 3 -16q0 -17 -14 -39l-15 -23t-23.5 -25.5t-22.5 -26.5q-25 -50 -53 -120l-43 -110q-24 -61 -50 -114l-81 -168l-45 -82l-25 -49q-21 -36 -62 -36q-7 0 -7 8q0 16 45 88q31 49 37 62l102 215l77 174q4 10 8 19t4 13q0 7 -6 10t-13.5 0.5t-16.5 -8.5l-51 -33
q-17 -9 -20 -10q-7 -2 -13 1t-6 10q0 8 6.5 16.5t15.5 15.5q1 3 42 28q45 28 65 49l44 33q13 15 31 55q11 25 34.5 49.5t39.5 24.5q8 0 13 -11z" />
    <glyph glyph-name="two" unicode="2" horiz-adv-x="709" 
d="M686 689q0 -64 -21 -119q-17 -44 -55 -99q-15 -22 -71 -93q-45 -57 -86 -100q-36 -37 -98 -93l-59 -53q-9 -7 -14 -13t-14 -20l29 -28q68 -26 152 -26q24 0 61 11.5l77 24.5q7 0 8.5 -7t1.5 -12q0 -37 -56 -53q-39 -11 -104 -11q-56 0 -113 19.5l-110 38.5l-84 -44
t-81 -21q-32 0 -50 14.5t-23 41.5q-6 31 28 53.5t70 22.5q32 0 63 -5q11 -2 47 -10q4 -1 7 -1h4q17 0 36 14q7 6 32 29l81 78q57 54 124 136q48 58 86 112q33 47 56.5 105t23.5 101q0 39 -20 55q-30 24 -69 24q-56 0 -122 -53q-60 -48 -101 -115q-11 -18 -26 -18q-4 0 -10 4
q-16 12 -8 24l38 51q55 75 106 111q64 45 144 45q57 0 92 -45q28 -36 28 -76zM134 68q0 11 -10.5 16.5t-25.5 5.5q-13 0 -26.5 -3t-28 -12.5t-14.5 -21.5q0 -5 2 -8q4 -7 14 -10.5t14 -4.5t12 -1q22 0 42.5 12.5t20.5 26.5z" />
    <glyph glyph-name="three" unicode="3" horiz-adv-x="595" 
d="M639 692q0 -68 -58 -137l-126 -112l1 -15q25 -30 44 -66t19 -68q0 -119 -94.5 -209.5t-221.5 -90.5q-70 0 -118 40q-55 46 -55 131q0 26 10.5 51.5t25.5 19.5t15 -28q0 -6 -1.5 -16t-2.5 -15q-1 -4 -2 -12t-1 -13q0 -44 23 -72q33 -39 104 -39q97 0 181 85q80 81 80 160
v10q0 42 -13 70q-16 33 -50 44q-8 2 -13 2q-3 0 -38 -9q-15 -4 -25 -2q-31 5 -37 7q-20 7 -23 23q-5 20 21 30q9 4 51 10q11 2 24.5 -2t30.5 -8q6 0 14 3q73 33 130 105q52 66 52 112q-1 5 -1 8q-6 33 -23 51q-20 21 -58 21q-57 0 -118 -46l-108 -77q-4 5 -4 13q0 40 79 99
q83 62 150 62q50 0 87 -24q49 -32 49 -96z" />
    <glyph glyph-name="four" unicode="4" horiz-adv-x="638" 
d="M632 710q9 -6 9 -16q0 -11 -9.5 -29.5l-17.5 -34.5l-71 -144l-52 -106q-28 -59 -27 -72q0 -8 8 -11.5t20 -3.5h51q8 0 22.5 2.5t17.5 2.5q13 0 19 -11q8 -16 -12 -27t-45 -14q-7 0 -19 3t-19 3l-36 5q-5 0 -16 3t-17 0q-10 -4 -15 -15l-70 -171q-10 -27 -19 -54
q-13 -29 -37 -31q-19 0 -19 18q0 13 9 36q28 70 28 71q5 19 30 64t25 62q0 15 -9.5 22t-23 9t-32.5 2q-12 0 -24 -0.5t-24 -0.5t-40.5 3.5t-46.5 3.5q-19 0 -35 -22q-21 -29 -33 -37.5t-22 -14.5q-17 -10 -26 -10q-14 0 -18.5 11t-4.5 21q0 16 14 34q8 10 30 30q8 7 19 12
q30 14 34 17q19 15 50 69l32 57q38 65 71 145l61 150l30 71q9 22 29 22q5 0 11.5 -4t8 -12.5t-0.5 -14.5l-25 -62q-43 -102 -101 -220l-44 -85l-52 -97q-8 -16 13 -21q60 -1 83 -6l96 -12q10 -4 29 35.5l37 77.5l22 41l34 68l66 135q10 22 22.5 38.5t24.5 16.5q3 0 7 -2z
" />
    <glyph glyph-name="five" unicode="5" horiz-adv-x="620" 
d="M669 793q0 -23 -13 -32t-36 -9q-13 0 -39 2.5t-32 2.5h-12q-8 -2 -11 -2q-6 -1 -37 2.5t-48 3.5q-37 0 -63 -9t-36 -33l-48 -115l-6 -16q-9 -21 -9 -28q0 -11 10 -12q7 -1 54 15t81 16q8 0 18.5 -0.5t28.5 -7.5q38 -14 66 -47q39 -45 39 -109q0 -7 -1 -15.5t-1 -13.5
q-20 -159 -140 -270q-124 -115 -289 -115q-51 0 -95 24q-55 30 -55 78v21q0 8 9.5 14.5t19.5 6.5q8 0 10 -6q14 -56 38 -74t87 -18q139 0 246.5 106.5t119.5 250.5q0 52 -36 90t-86 38q-39 0 -85 -19t-74 -46q-2 -2 -26 -46q-17 -32 -41 -32h-11q-14 0 -14 23q0 12 1 23.5
t15 25.5l39 36l18 43l18 44l55 131q9 22 25 43q29 39 53.5 43.5t39.5 5.5t33 1q28 0 49 -2q72 -7 76 -7q18 0 46 4.5t31 4.5q18 0 18 -15z" />
    <glyph glyph-name="six" unicode="6" horiz-adv-x="583" 
d="M584 834q4 -15 -7 -24q-16 -10 -23 -15l-105 -83q-138 -108 -232 -261q-89 -145 -100 -265q0 -55 30.5 -100.5t70.5 -45.5q82 0 173 106q98 114 98 241q0 51 -24 69.5t-66 18.5q-38 0 -74 -30l-62 -57q-6 -5 -16 6t-5 18q26 43 58 68q51 40 122 40q52 0 85 -43.5
t33 -98.5q0 -122 -90 -243q-101 -137 -237 -137q-66 0 -105 46t-39 125q0 125 86 270q64 108 172 219q77 80 123 111l87 60q8 5 18 9.5t17 4.5q9 0 12 -9z" />
    <glyph glyph-name="seven" unicode="7" horiz-adv-x="542" 
d="M660 806q3 -9 3 -17q0 -16 -15 -33q-24 -27 -27 -33l-99 -171.5t-98 -197.5l-58 -132l-54 -120q-21 -44 -54 -105q-8 -15 -26 -15q-23 0 -40 20q-3 3 19 40q67 113 68 116l78 163l72 149q33 68 48 94l47 81q26 44 55 87l-21 22q-87 5 -112 7.5t-45 3.5t-36 1
q-19 0 -39 -1.5t-43 -5.5q-9 -1 -35.5 -61t-60.5 -60q-22 0 -22 20q0 11 5 24l11.5 30.5t29.5 40.5t25.5 37.5t13 20t28.5 5.5q11 0 23 -1l24 -2q66 0 131 -6t108 -6q15 0 45.5 5.5t36.5 5.5q12 0 14 -6z" />
    <glyph glyph-name="eight" unicode="8" horiz-adv-x="493" 
d="M567 678q2 -8 -2 -15q-8 -9 -11 -13l-233 -269l-6 -6q-4 -5 -3 -9q12 -37 17 -54q10 -32 10 -58q0 -95 -66.5 -177.5t-141.5 -82.5q-34 0 -54 15q-24 18 -24 57q0 50 28 93q7 10 66 78l69 78l24 29t12 30q0 7 -3 16q-29 88 -37.5 123.5t-8.5 62.5q0 97 74.5 163.5
t177.5 66.5l57 3q28 0 36 -26l-45 -18q-145 -2 -216 -78q-39 -42 -39 -104q0 -30 10 -68l18 -65q5 -15 7 -19q6 -9 16 -9q6 0 9 2q2 1 12 13l220 261q6 6 10 6q6 0 10.5 -8t6.5 -18zM269 308q-8 3 -55 -56q-30 -37 -40 -48q-35 -38 -52 -60q-28 -38 -28 -63q0 -21 20 -34
q11 -6 22 -6q30 0 66.5 33.5t57.5 74.5q29 56 29 112q0 40 -20 47z" />
    <glyph glyph-name="nine" unicode="9" horiz-adv-x="600" 
d="M640 669q0 -89 -40 -184q-36 -85 -104 -178q-52 -71 -147 -176q-41 -46 -102 -99q-56 -49 -150 -118q-6 -5 -13 -5q-12 0 -19.5 14.5t-3.5 16.5q73 53 111 85q60 50 114 109q103 111 150 170q74 94 110 173q42 93 42 189q0 48 -30 81t-72 33q-9 0 -14 -1
q-98 -17 -181 -110q-89 -99 -89 -210q0 -46 17.5 -77.5t50.5 -31.5q50 0 109 46l68 63q8 6 12 6q7 0 11.5 -6.5t4.5 -15.5q0 -21 -68 -77q-77 -63 -137 -63q-42 0 -76 32q-41 39 -41 105q0 148 115 269q109 115 222 115q71 0 112 -46q38 -43 38 -109z" />
    <glyph glyph-name="colon" unicode=":" horiz-adv-x="317" 
d="M261 428q-8 -16 -20.5 -27t-26.5 -11q-10 0 -16 5q-12 8 -12 25q0 10 4 20.5t12 23t19.5 22t24.5 9.5q9 0 14 -4q12 -8 12 -25q0 -9 -2.5 -18t-8.5 -20zM107 21q-8 -15 -23 -25.5t-30 -10.5q-11 0 -19 7q-11 10 -11 26q0 10 3.5 19.5t12 24.5t21.5 26t27 11q5 0 14 -3.5
t13 -12t4 -20.5q0 -21 -12 -42z" />
    <glyph glyph-name="semicolon" unicode=";" horiz-adv-x="324" 
d="M258 441q-9 -15 -21.5 -26t-26.5 -11q-9 0 -14 4q-13 9 -13 25q0 10 4 20.5t12 23.5t19 22t24 9q9 0 14 -4q13 -9 13 -26q0 -9 -2.5 -18t-8.5 -19zM138 102q8 -10 -20 -44q-20 -24 -25 -33l-74 -122q-11 -19 -13 -22q-9 -13 -18 -13q-3 0 -7 2q-5 3 -7 8t-2 11q0 11 5 23
l51 118q4 10 11 33t13.5 33t20.5 12l42 3q17 0 23 -9z" />
    <glyph glyph-name="less" unicode="&#x3c;" horiz-adv-x="597" 
d="M572 430l-22 -56l-413 -158l290 -166l-21 -56l-348 199l17 45z" />
    <glyph glyph-name="equal" unicode="=" horiz-adv-x="605" 
d="M543 323l-19 -49h-439l19 49h439zM480 159l-18 -49h-439l18 49h439z" />
    <glyph glyph-name="greater" unicode="&#x3e;" horiz-adv-x="588" 
d="M497 238l-17 -45l-500 -199l21 56l417 166l-292 158l21 56z" />
    <glyph glyph-name="question" unicode="?" horiz-adv-x="507" 
d="M560 707q1 -5 1 -15q0 -53 -52 -130q-22 -33 -63 -79l-103 -111q-31 -33 -45 -50q-20 -25 -38 -55q-8 -13 -16 -32q-21 -48 -24.5 -54.5t-11.5 -6.5t-16 10q-4 5 -5 11q-3 10 16 47.5t42 72.5q34 51 107 128l57 58q41 42 76 109q32 61 32 85q0 45 -25 72t-59 24
q-74 -8 -116 -61q-36 -64 -51 -85q-4 -4 -9 -4q-9 0 -15 8t-6 26q0 28 61 88q69 68 128 68q73 0 104 -36q24 -27 31 -88zM205 30q-7 -14 -20 -24t-28 -10q-8 0 -15 4q-16 9 -16 30q0 11 4 21.5t7 17.5q8 16 20 26t25 10q6 0 9 -1q22 -7 22 -39q0 -19 -8 -35z" />
    <glyph glyph-name="at" unicode="@" horiz-adv-x="1149" 
d="M1191 705q0 -186 -150 -345q-145 -154 -299 -154q-54 0 -70 36q-9 21 -9 78l-56 -50q-68 -61 -157 -61q-60 0 -95 45.5t-35 110.5q0 143 144 265q135 114 264 114q43 0 64 -20q26 -25 26 -83l53 89h117l-218 -410q-4 -8 -9.5 -25t-5.5 -26q0 -24 24 -24q95 0 210 144
q121 151 121 299q0 128 -104 196q-89 58 -222 58q-221 0 -395 -176q-168 -170 -168 -368q0 -146 88 -239q95 -100 255 -100q131 0 240 51q77 36 139 97l45 52h91l-59 -70q-80 -80 -178 -130q-138 -70 -297 -70q-184 0 -295 108q-107 104 -107 268q0 263 194 456t462 193
q158 0 268 -77q124 -87 124 -232zM786 638q0 37 -17 53.5t-41 16.5q-76 0 -187 -143t-111 -240q0 -38 22 -57q19 -16 47 -16q77 0 182 143t105 243z" />
    <glyph glyph-name="A" unicode="A" horiz-adv-x="897" 
d="M882 986q17 -8 25.5 -26.5t8.5 -42.5q0 -44 -27 -129q-37 -116 -40 -129q-19 -85 -54 -207q-44 -156 -53 -191q-24 -96 -24 -142q0 -11 1 -29.5t1 -27.5q0 -19 -2 -30q-6 -36 -36 -36q-14 0 -25 11.5t-11 30.5q0 8 2 19t2 28q0 55 -30 104.5t-85 81.5t-141 53
q-69 17 -113 17q-14 0 -16 -3q-8 1 -38.5 -53.5t-53 -105t-36.5 -87.5t-25 -70q-5 -13 -12.5 -18.5t-25.5 -5.5q-24 0 -24 14q0 4 4 14q39 102 76 182q2 4 33 56q23 38 23 55q0 19 -27 19q-9 0 -18 -2t-28.5 -5.5t-40.5 -9.5q-19 -2 -14 18q4 16 13 27.5t18 13.5l140 10
l37 63l35 56q42 66 86 126q62 84 108 130q78 77 111 106q64 57 116 88q62 37 111 37q26 0 49 -10zM848 938q-9 6 -22 6q-51 0 -157 -89q-86 -72 -178 -174q-54 -60 -122 -160q-55 -81 -61 -98l-18 -43q6 1 13.5 1h11.5q39 0 81.5 -7t90.5 -23q66 -22 109 -58q34 -29 77 -92
l97 372l58 176q33 105 33 148q0 18 -2.5 26.5t-10.5 14.5z" />
    <glyph glyph-name="B" unicode="B" horiz-adv-x="782" 
d="M713 744q0 -114 -58 -199.5t-161 -112.5q-30 -7 -30 -31q0 -13 11.5 -24.5t30.5 -15.5q68 -14 110 -51q47 -42 47 -105q0 -100 -101 -154q-91 -49 -240 -49h-145q-9 -2 -14.5 2.5t-3.5 14.5q4 17 10.5 25t16.5 10l102 -1q122 0 195 21q123 36 123 127q0 65 -53 92
l-121 48q-8 4 -15 21.5t-7 35.5q0 20 7.5 35t25.5 22q111 44 160 106q56 72 56 196q0 74 -18 116q-25 58 -83 58q-50 0 -93 -43q-34 -34 -69 -103q-17 -33 -58 -126q-20 -44 -52 -126l-95 -241l-132 -306q-7 -14 -48 -14q-9 -1 -18 3.5t-7 10.5q35 60 69 128.5t67 149.5
l60 151l73 177q41 107 42 109q50 115 105 189q76 101 148 101q9 0 14 -1q84 -10 121 -87q28 -59 28 -159z" />
    <glyph glyph-name="C" unicode="C" horiz-adv-x="826" 
d="M879 845q0 -114 -94 -223q-70 -81 -182 -151q-4 -3 -124 -68q-5 -3 -8 -2t-3 6q0 4 2.5 12.5t2.5 9.5q6 24 9 30q7 15 24 20q44 13 93 41q58 33 100 76q59 59 92 111q43 68 43 122q0 40 -25 74q-31 41 -86 41q-89 0 -217 -102q-118 -94 -206 -221q-59 -86 -88.5 -175.5
t-29.5 -176.5q0 -55 16.5 -99t50 -71.5t67.5 -40t71 -12.5q35 0 70.5 11t70.5 31q54 31 91 74q34 39 66 102q10 16 15 16t16 -11.5t11 -18.5q0 -2 -4 -12q-40 -99 -128 -167q-99 -77 -215 -77q-115 0 -183.5 80.5t-68.5 207.5q0 83 26 164q22 68 64 140q27 47 81 122
q72 102 175 181q135 104 252 104q75 0 116 -45q37 -41 37 -103z" />
    <glyph glyph-name="D" unicode="D" horiz-adv-x="1054" 
d="M948 296q0 -158 -111 -237q-94 -67 -248 -67q-25 0 -81 6q-132 14 -150 14q-10 -1 -13 -1q-52 -7 -90.5 -11.5t-76.5 -4.5h-34q-52 0 -76 6q-36 9 -31 34q6 24 27 32.5t48 8.5q22 -1 27 -1q41 0 80 -4.5l81 -9.5q23 0 42 8.5t45 32.5q51 49 93 122q28 49 60 130l40 104
l55 130t40 105q2 10 -57 64q-64 58 -117.5 94t-111.5 61t-96 25q-26 0 -37.5 -14.5t-11.5 -36.5q0 -35 38 -87l42 -52q24 -30 52 -50q16 -11 63 -38l48 -27q12 -7 18.5 -17t2.5 -21q-4 -12 -21 -12q-15 0 -28 8l-51 28q-24 13 -42 27t-39 35q-59 59 -87 99q-41 59 -41 108
q0 33 17 63q9 16 28 24t44 8q51 0 126 -30q65 -26 129 -67q19 -12 41 -31q16 -14 38 -35l59 -57q5 -5 11 -9t13 -3q5 1 8 7q1 2 5 11l20 35l5 10.5t10 8.5q11 4 22.5 -4.5t11.5 -20.5q0 -6 -6 -13.5t-7 -9.5l-23 -40q-5 -8 -8.5 -16t-0.5 -16l148 -213q58 -106 58 -193z
M858 162q18 30 26.5 62t8.5 67q0 62 -24.5 125.5t-70.5 129.5l-51 74q-16 23 -17 24q-8 7 -16 4q-7 -2 -10.5 -11.5t-6.5 -18.5l-60 -159l-39 -99l-43 -101.5t-53 -93.5l-76 -100q-6 -9 10 -13.5t33 -4.5h125q79 0 140 21q84 29 124 94z" />
    <glyph glyph-name="E" unicode="E" horiz-adv-x="684" 
d="M704 915q0 -27 -49 -89l-98 -116q-60 -71 -75 -104q-9 -15 -18 -15t-20.5 11.5t-11.5 22.5q0 6 2 11q9 13 12 18q22 34 61 78l74 78.5t59 67.5q9 12 9 27q0 11 -5 21t-16.5 16t-26.5 6q-58 0 -147.5 -61t-129.5 -132q-25 -45 -37.5 -86.5t-12.5 -83.5q0 -57 26 -106
l24 -45q9 -19 9 -46q0 -9 -9 -18q-3 -3 -39 -31l-64 -49q-44 -34 -72 -77.5t-28 -83.5q0 -42 18.5 -59t64.5 -22q6 -1 18 -1q88 0 194 88q89 74 132 153q9 17 23 17q5 0 14 -4.5t9 -19.5q0 -10 -6 -19q-78 -124 -176.5 -193t-204.5 -69q-54 0 -85 17q-57 31 -57 115
q0 81 70 150l147 122q-27 60 -45 108.5t-18 77.5q0 131 117 260q124 137 270 137q48 0 75 -24q23 -21 23 -48z" />
    <glyph glyph-name="F" unicode="F" horiz-adv-x="882" 
d="M846 999q29 -17 29 -73q0 -49 -20 -117q-25 -85 -79 -200l-142 -295l169 1q5 1 8 -3t2 -7q-4 -18 -12 -30t-16 -13h-177l-126 -217l-59 -91q-2 -6 -16.5 -10.5t-40.5 -4.5q-16 0 -10 15q29 36 53 69.5t49 73.5q48 77 90 165h-101q-3 -1 -6 2q-5 5 -3 12q4 17 9.5 25
t10.5 10l121 -1l167 356q27 59 47 115q30 85 30 130q0 22 -8 38q-14 24 -55 24q-75 0 -208 -77q-128 -74 -217 -163q-78 -77 -146 -177q-75 -110 -75 -162q0 -24 15.5 -31t32.5 -7q58 0 142 78q68 63 134 157l41.5 59t30.5 50.5t16 21.5q4 0 13 -11t9 -21q0 -9 -10 -29
q-67 -125 -183 -238q-126 -122 -208 -122q-37 0 -58.5 25.5t-21.5 63.5q0 79 82 200q71 105 173 201t217 159q127 70 220 70q28 0 47 -4.5t40 -16.5z" />
    <glyph glyph-name="G" unicode="G" horiz-adv-x="778" 
d="M832 835q0 -100 -63 -180q-42 -53 -89 -77q-20 -10 -26 -10q-5 0 -5 7q1 11 1 20q1 9 2 19q3 6 20 18q35 24 67 69q43 61 43 117q-1 9 -1 14q-4 38 -21 65q-28 44 -84 44q-187 0 -347 -247q-150 -232 -183 -519q-1 -5 -1 -15q0 -47 27 -80.5t69 -33.5q68 0 143 46
q60 37 130 108q35 35 111 123q17 48 28 72q34 73 64 73q7 0 14 -4q17 -9 17 -27q0 -17 -20 -45q-57 -80 -61 -90l-74 -183q-41 -99 -78 -179q-23 -50 -57 -104q-20 -31 -84 -120q-12 -16 -18 -16q-5 0 -12 18q-3 8 -4 12q-3 9 -3 14q0 13 9 23q28 32 69 98q48 77 78 143
q21 47 34.5 84.5t25.5 80.5l-75 -66q-64 -56 -112 -80q-59 -30 -125 -30q-90 0 -126 67q-24 45 -24 117q0 132 72 314q82 206 206 338q149 158 321 158q61 0 101.5 -46.5t40.5 -109.5z" />
    <glyph glyph-name="H" unicode="H" horiz-adv-x="1103" 
d="M1178 1000q9 0 9 -10q0 -15 -46 -93q-25 -42 -35 -68l-72 -180q-37 -93 -65 -183l-36 -115q18 2 34 7q24 8 37 12l56 18q8 4 14 4q8 0 8 -13v-16q0 -17 -14 -21l-68 -17q-29 -8 -44 -11q-36 -9 -41 -10l-86 -303q-1 -7 -9 -8.5t-28 -1.5q-8 0 -15 2.5t-6 7.5l85 296
l-233 -31l-50 -55q-79 -90 -120 -121q-63 -48 -166 -80q-54 -17 -112 -17q-57 0 -98 18t-53 57q-5 17 -5 31q0 43 31 81.5t73 54.5q58 23 181 43q86 14 182.5 24.5t103.5 10.5q43 70 70 125.5t57 132t62 206.5q11 44 27 119q5 13 12.5 16.5t23.5 9.5q10 2 13 2q11 0 11 -10
q0 -3 -3 -9q-13 -83 -27.5 -140.5t-44.5 -145.5q-18 -51 -54 -132q-30 -67 -56 -119t-27 -52l219 27l68 201q1 5 22 65q28 79 52 139q36 88 64 138l41 75q26 39 58 39zM541 258q-4 7 -24 7q-7 0 -10 -1l-221 -32.5t-157 -41.5q-60 -32 -60 -92q0 -30 24 -45t66 -15
q80 0 182.5 46t156.5 112l34 43q1 3 3 6q8 10 6 13z" />
    <glyph glyph-name="I" unicode="I" horiz-adv-x="514" 
d="M567 991q17 -14 25 -41.5t8 -64.5q0 -116 -72 -316q-62 -174 -131 -291q-60 -105 -146 -188q-104 -101 -183 -101q-25 0 -48 12q-15 6 -19 8q-7 3 -7 9q0 7 10.5 27.5t21.5 20.5q9 0 19.5 -6.5t22 -12.5t20.5 -6q4 0 8 2q92 42 176 146q72 89 142 231q51 102 92.5 248.5
t41.5 223.5q0 53 -22 53q-44 0 -102 -69q-48 -58 -93 -146q-21 -43 -33.5 -86t-18.5 -78.5t-10.5 -46t-22.5 -30.5l-28 -31q-6 0 -6 35q-4 43 22.5 133.5t67.5 159.5q48 83 107 144q71 74 122 74q20 0 36 -13z" />
    <glyph glyph-name="J" unicode="J" horiz-adv-x="506" 
d="M547 654q-13 -49 -42 -128q-35 -98 -71 -176l-232 -506q-37 -80 -51 -107q-33 -61 -63 -91q-38 -38 -81 -38q-11 0 -23 3q-35 8 -51 36.5t-16 72.5q0 51 21 115.5t51 118.5q42 72 92 132q47 55 96 98q27 23 100 78l88 65q37 69 61 132q18 46 46 138q40 128 45 147
q21 76 21 119q0 45 -21 66q-6 6 -15 6q-36 0 -103 -95q-56 -80 -102 -178q-31 -67 -47.5 -148t-16.5 -123q0 -27 -10 -41q-4 -5 -20 -23q-7 -8 -13.5 -20.5t-7.5 -12.5q-3 0 -5.5 19.5t-2.5 31.5q0 65 26 178q30 128 70 201q48 88 67 118q42 67 78 101q46 43 91 43
q19 0 39.5 -8t32 -35t11.5 -65q0 -44 -14 -111q-9 -44 -28 -113zM322 234l-65 -45q-74 -50 -156 -164q-78 -108 -114 -204q-8 -20 -13 -45t-5 -51q0 -32 10 -51.5t31 -19.5q4 0 14 2q21 6 57 66q25 42 71 138l74 156t50 107q20 44 46 111z" />
    <glyph glyph-name="K" unicode="K" horiz-adv-x="731" 
d="M774 979q-20 -40 -56 -81l-49 -55q-59 -65 -173 -150q-95 -71 -174 -117q-27 -15 -37.5 -27.5t-29.5 -51.5q-12 -25 -12 -43q0 -15 9.5 -26.5t19.5 -21.5l133 -186q59 -76 107 -118q39 -35 51 -45q28 -23 56 -38q6 -5 6 -10q0 -10 -19 -10q-25 0 -42.5 4l-33.5 8
q-10 5 -20.5 15.5l-20.5 21.5q-72 67 -151 173q-60 80 -98 147q-13 24 -23 24q-7 0 -12.5 -12t-8.5 -20l-54 -123l-61.5 -143.5l-30.5 -72.5q-6 -7 -16 -9t-28 -2q-5 0 -10 2q-7 3 -4 9l33 76l73 166.5l74 164.5q5 13 5 30q0 11 -1 22l-2 22q0 15 6.5 29.5t25.5 29.5
q28 21 35 29q12 13 57 114l79 182l40 95q9 14 49 14q11 0 11 -6q0 -3 -3 -8q-11 -29 -43 -97q-79 -170 -91 -200q-8 -19 -8 -29q0 -9 8 -9q10 0 34 18l91 69q104 79 155 130q30 30 50 55q25 31 41 61q2 6 14.5 9.5t33.5 3.5q7 1 12 -2q7 -4 3 -11z" />
    <glyph glyph-name="L" unicode="L" horiz-adv-x="763" 
d="M783 984q30 -15 30 -70q0 -66 -46 -184t-131 -265q-9 -15 -16.5 -19.5t-35.5 -9.5q-6 -1 -14 -1q-11 0 -11 7q0 8 16 30q45 66 70 109q50 84 76 157q16 47 25 77q18 61 18 90q0 12 -2 20.5t-11.5 13t-14.5 4.5q-30 0 -70 -64q-21 -33 -62.5 -118t-99.5 -240
q-64 -172 -92 -232q-56 -120 -119 -188l-18 -18.5t-8 -13.5q0 -7 34 -13t90 -6q54 0 114.5 6t102.5 15q10 2 11 2q12 0 12 -13q-2 -14 -2 -20q0 -12 -11.5 -18.5t-26.5 -9.5q-83 -10 -176 -10q-124 0 -207 24l-67 -18t-58 -9q-8 1 -12 1q-49 4 -55 6q-30 8 -26 32
q6 38 46 49q22 6 83 6q12 0 44 -7q18 -4 24 -4q14 0 22 6q70 49 129 161q41 77 100 237q74 199 106 271q26 60 49 101q33 60 67 94q42 42 83 42q20 0 40 -10z" />
    <glyph glyph-name="M" unicode="M" horiz-adv-x="1000" 
d="M1150 926l-157 -322q-83 -171 -123 -277q-53 -140 -68 -255q-1 -8 -1 -12q0 -5 1 -16t1 -15q0 -13 -6 -21t-23.5 -10t-21.5 -2q-18 0 -18 20v9q2 7 2 11q28 169 93 337q45 116 127 274q101 195 116 227q12 24 12 37q0 9 -6 9q-7 0 -22 -16q-88 -99 -226 -274l-239 -311
l-195 -267q-15 -21 -26 -33q-19 -20 -30 -20q-12 0 -12 27q0 20 8 58l95 439q54 256 65 333q1 5 1 13q0 20 -8 20q-7 0 -19 -29q-68 -182 -123 -314q-78 -187 -143 -309q-82 -154 -161 -243l-16 -22q-11 -10 -47 -10q-6 -1 -9 -1q-19 0 -19 9q0 7 14 20q75 66 172 242
q80 146 171 356q68 158 139 344q7 17 23 31q21 19 47 19q25 0 35 -9.5t10 -27.5q0 -10 -1.5 -18t-3.5 -17q-17 -108 -50 -271l-53 -253l-31 -138q-5 -21 -5 -39t9 -18q7 0 19 12t25 33q38 62 149.5 211l234.5 299q135 165 206 232q12 12 26.5 18t25.5 6q19 0 31 -13t12 -34
q0 -15 -7 -29z" />
    <glyph glyph-name="N" unicode="N" horiz-adv-x="723" 
d="M784 720q3 -6 3 -14q0 -13 -8.5 -31.5t-10.5 -22.5q-24 -60 -73 -199l-74 -207q-43 -116 -77 -194q-18 -40 -26.5 -49t-25.5 -7q-17 0 -21 9t-4 41v19q0 146 -2.5 286t-5 298.5t-2.5 175.5q0 33 -15 33q-11 0 -21 -27l-118 -306q-68 -168 -128 -295q-69 -146 -131 -240
q-5 -9 -10 -19q-10 -13 -52 -13q-10 0 -19 0.5t-9 6.5q0 8 12 21q71 88 157 266q63 130 151 344l134 327q15 34 28 45q17 14 37 11q15 -3 24 -23t9 -49q0 -126 3.5 -319.5t5 -244.5l3.5 -122q0 -59 13 -59q5 0 13.5 14t15.5 33q12 34 50 152q44 138 62 190q36 103 72 185
q8 18 17 18q7 0 14 -13q2 -4 9 -21z" />
    <glyph glyph-name="O" unicode="O" horiz-adv-x="813" 
d="M862 732q0 -108 -69 -274q-79 -191 -195 -312q-142 -149 -303 -149q-83 0 -137 61t-54 165q0 103 33 208q28 88 79 179q39 69 92 138q78 102 175.5 167.5t196.5 78.5q4 0 12 1.5t13 1.5q18 0 25 -12.5t7 -18.5q0 -9 -16 -12t-24 -4q-138 -22 -260 -136
q-105 -99 -181 -249q-68 -134 -89 -262q-3 -21 -5 -39t-2 -37q0 -79 30 -124q35 -52 104 -52q13 0 20 1q182 19 328 232q136 199 167 446q1 5 1 15q0 39 -22.5 70t-55.5 31q-61 0 -125 -64q-69 -69 -110 -184q-5 -14 -10 -18q-2 -2 -24 -14q-12 -6 -19 -6q-13 0 -13 18
q0 12 6 24q57 140 129.5 213.5t155.5 73.5q72 0 106 -41t34 -116z" />
    <glyph glyph-name="P" unicode="P" horiz-adv-x="637" 
d="M630 477q-47 -128 -139.5 -207.5t-191.5 -79.5q-7 0 -15 1t-16 1.5t-19 1.5q-11 4 -17 22q-5 15 3.5 19.5t25.5 4.5h19q119 0 202 95q70 80 110 219q11 40 19 93.5t8 99.5q0 84 -19 135q-22 60 -65 60q-65 0 -149 -118q-73 -102 -123.5 -231.5t-88.5 -238.5
q-16 -44 -19 -73q-12 -99 -36 -199q-16 -63 -41 -119q-29 -64 -47 -64t-18 14v9q2 8 2 13q4 31 14.5 82t17.5 79q43 167 100 331q84 242 170 383q112 184 218 184h12q8 -2 12 -2q58 -11 88 -80t30 -170q0 -63 -12 -132.5t-35 -132.5z" />
    <glyph glyph-name="Q" unicode="Q" horiz-adv-x="853" 
d="M826 943q31 -30 44.5 -65.5t13.5 -77.5q0 -65 -35 -145q-29 -67 -83 -144q-40 -58 -96 -124q-49 -58 -124 -120l-122 -99q-17 -15 -91 -60q-52 -32 -52 -49q0 -7 66.5 -10t127.5 -3q65 0 116.5 4.5t104.5 13.5q16 2 18 2q9 0 9 -6q0 -3 -2 -9q-3 -7 -5 -13
q-6 -15 -10 -19q-5 -5 -22 -9q-38 -9 -102 -12t-122 -3q-59 0 -152 16.5t-114 16.5q-12 0 -48 -16.5t-96 -16.5q-28 0 -45 7q-23 10 -23 31q0 31 28 45.5t66 14.5q19 0 58.5 -8.5t46.5 -5.5q95 46 191 113t178 145q113 109 189 231q87 140 87 239q0 60 -33 99q-27 30 -86 30
q-66 0 -144 -35.5t-129 -90.5q-60 -66 -103 -132q-52 -79 -75 -148q-7 -18 -13 -18q-4 0 -17 26q-8 16 -8 27q0 10 10 33q19 42 47 89q11 18 51 78q73 106 183 165q99 53 195 53q80 0 122 -40z" />
    <glyph glyph-name="R" unicode="R" horiz-adv-x="721" 
d="M627 562q-34 -94 -101 -152q-62 -53 -166 -87q-27 -8 -27 -35q0 -7 3 -13q2 -3 83 -86q40 -40 62 -71.5l42 -61.5t31 -58q5 -13 5 -19q0 -3 -4.5 -8.5l-8.5 -10.5q-16 -18 -22 -18q-7 0 -14 16q-36 74 -72 124q-20 28 -78 94q-35 34 -50 50q-27 28 -34 57q-1 4 -1 12
q0 19 11 35q15 21 35 29q99 35 154 80q63 52 97 138q14 34 21 76t7 83q0 71 -18.5 123t-54.5 67q-15 6 -31 6q-42 0 -86 -48q-37 -40 -74 -112q-28 -54 -58 -131l-66 -169q-22 -56 -35 -147.5t-28 -137.5l-28 -104q-16 -54 -44 -79q-6 -6 -17 -6q-9 0 -14.5 6.5t-5.5 23.5
q0 24 10.5 65l21.5 80q24 88 46.5 160t51.5 152l57 156q63 173 129 257q70 89 145 89q23 0 39 -5q52 -15 82 -90.5t30 -172.5q0 -88 -25 -157z" />
    <glyph glyph-name="S" unicode="S" horiz-adv-x="821" 
d="M842 938q5 -10 8 -24.5t3 -26.5q0 -53 -48 -105q-37 -40 -106 -83q-34 -21 -79 -38q-12 -5 -143 -45q-18 -5 -23 -5q-7 0 -7 6q0 3 3 14t4.5 20.5t4.5 11.5q13 3 28 7l75 22q59 19 98 42q60 34 93 64q48 44 48 82q0 18 -10 35q-17 26 -61 26q-40 0 -95 -19
q-42 -14 -98 -43q-82 -42 -140 -112t-58 -131q0 -51 35 -89q28 -30 85 -58l108 -52q67 -33 102 -75q41 -50 41 -114q0 -115 -130 -188q-118 -66 -283 -66q-113 0 -177 25q-87 34 -87 113q0 73 100 116q79 34 164 34h34q44 0 82.5 -5t91.5 -21l15.5 -4t7.5 -7q0 -6 -9 -21
q-5 -9 -9.5 -16t-9.5 -7q-4 0 -15 3q-39 12 -84.5 20.5t-86.5 8.5q-86 0 -150 -22q-78 -27 -78 -74q0 -56 77 -78q52 -15 148 -15q135 0 231 48q114 57 114 157q0 62 -63 106q-18 12 -75 43l-74 39q-75 40 -111 81q-45 52 -45 121q0 82 60 157q55 69 149 119q63 34 120 54
q70 25 122 25q38 0 63.5 -12.5t39.5 -43.5z" />
    <glyph glyph-name="T" unicode="T" horiz-adv-x="720" 
d="M919 981q-14 -28 -33.5 -32.5t-25.5 -13.5t-11.5 -24.5l-10.5 -29.5l-167 -429q-44 -115 -96 -227l-53 -113q-27 -55 -55 -104q-7 -13 -14.5 -15.5t-29.5 -2.5q-14 -1 -19 -1q-9 0 -9 4q0 3 14 28q59 108 98 186q54 109 95 212l179 447q6 15 9.5 25.5t3.5 18.5t-4.5 13.5
t-12.5 5.5t-21 -4.5t-14 -4.5l-107 -21q-25 -4 -104 -23q-99 -23 -169 -43l-101 -27q-55 -19 -52 -45q3 -28 50 -63q36 -27 94 -55q26 -13 26 -16q0 -1 -3 -4q-9 -8 -13 -14q-11 -16 -24 -16q-11 0 -25 9q-75 45 -112 79q-49 45 -49 82q0 10 5 23q17 38 133 77q9 3 130 36
l69 18q78 20 182 38q130 23 142.5 25t28.5 19.5t25.5 20t14.5 2.5h9q17 0 24 -7t7 -18q0 -6 -4 -16z" />
    <glyph glyph-name="U" unicode="U" horiz-adv-x="909" 
d="M1022 810l-64 -121q-36 -70 -54 -110q-72 -159 -87 -195q-45 -104 -67 -182q-27 -93 -27 -166v-12q0 -18 -3 -22q-3 -3 -21 -11q-22 -8 -30 -8q-14 0 -12 23q5 56 15.5 102.5t49.5 167.5q15 47 42.5 109.5l56.5 128.5q1 4 -1 8t-6 2q-21 -13 -93 -96q-41 -48 -72 -78
l-153 -152q-94 -92 -145 -133q-74 -59 -129 -79q-4 -2 -7 -2h-7q-15 0 -25.5 10.5t-10.5 28.5q0 6 1 10q13 57 52 156q34 85 88 200l168 360q15 32 24 64.5t9 61.5q0 33 -14.5 44.5t-32.5 11.5q-47 0 -114 -74q-54 -60 -107 -148q-25 -41 -45 -100q-7 -20 -24 -81
q-5 -17 -9 -33q-7 -20 -35 -31q-15 -6 -21 -6q-7 0 -7 9q2 12 3 21q10 64 43 140q28 65 70 135q60 100 118 154q69 64 134 64q30 0 62 -15q18 -8 26 -28.5t8 -48.5q0 -34 -8.5 -70t-25.5 -72l-274 -604q-10 -22 -17 -53.5t-2 -34.5t10 -3q8 0 17 7q3 2 16 14q1 0 41 35
l92 82q60 55 96 92l224.5 232t184.5 209q12 15 33 59q17 35 34 47q6 3 12 3q13 0 18 -8.5t2 -13.5z" />
    <glyph glyph-name="V" unicode="V" horiz-adv-x="795" 
d="M908 864q-5 -55 -39 -152q-37 -106 -99 -226q-72 -138 -151 -235q-51 -62 -96 -107q-66 -66 -126 -102q-76 -46 -141 -46q-47 0 -86 21t-39 79q0 66 51 184q10 23 53 113l180 375q17 36 28 69.5t11 59.5q0 27 -14 35q-7 4 -15 4q-35 0 -86 -60q-43 -51 -79 -120
q-30 -59 -49.5 -110t-24.5 -80.5t-9 -39.5q-7 -18 -25 -28l-15.5 -8t-11.5 -4q-8 0 -8 15q1 6 1 9q6 44 40.5 141t64.5 144q71 113 117 152t89 39q20 0 39 -8t27 -28.5t8 -48.5q0 -59 -27 -118l-227 -479q-30 -64 -43 -97q-22 -58 -22 -93t20.5 -54.5t52.5 -19.5
q72 0 185 97q98 84 180 199q76 107 141 251q58 127 79 217l8 34q7 19 27 34.5t26 15.5t6 -13q0 -7 -1 -11z" />
    <glyph glyph-name="W" unicode="W" horiz-adv-x="1166" 
d="M1293 903q0 -89 -81.5 -271.5t-187.5 -333.5q-55 -77 -98 -128q-67 -78 -126 -119q-75 -52 -143 -52q-45 0 -88 23q-20 11 -29.5 30.5t-9.5 46.5q0 24 8 52t20 53l146 310q8 14 11 20q7 13 7 19q0 7 -6 9q-9 4 -20 -8t-16 -18l-478 -510q-12 -14 -24 -22t-24 -8
q-13 0 -24.5 11t-11.5 26q0 12 5 26q1 4 12 25l319 721q12 25 21.5 51.5t9.5 46.5q0 26 -18 37q-8 5 -20 5q-33 0 -84 -52q-43 -44 -77 -100q-14 -22 -38 -89q-28 -77 -38 -126q-5 -25 -10 -33.5t-26 -22.5q-6 -4 -14.5 -7.5t-11.5 -3.5q-9 0 -9 12q0 4 1.5 11t2.5 11
q15 60 37 123.5t41 104.5q47 100 111 163t123 63q27 0 48 -12.5t29.5 -31t8.5 -44.5q0 -29 -9 -58t-25 -65l-280 -619q-3 -6 -6 -19.5t-3 -22.5q0 -11 4 -11q7 -1 14 4q2 1 11 12l561 612l17 25q10 14 22 14q10 0 18.5 -6.5t11.5 -17.5t-5 -21.5l-15 -20.5l-260 -555
q-7 -14 -10.5 -28t-3.5 -28q0 -19 8.5 -33t26 -19t21.5 -6h14q54 0 121 48q53 38 115 109q47 54 87 112q80 116 141 238q49 99 83 201q29 86 36 143q3 26 7.5 33.5t15.5 9.5t14 2h5q10 0 12.5 -8t2.5 -33z" />
    <glyph glyph-name="X" unicode="X" horiz-adv-x="732" 
d="M911 938q-2 -17 -2 -19q-3 -14 -14 -23q-68 -51 -93 -72q-58 -49 -108 -105q-90 -100 -114 -129q-47 -57 -80 -103q0 -114 11 -207q15 -126 54 -252q5 -18 5 -23q0 -8 -9 -8q-12 1 -20 1q-15 -1 -19 -1q-7 0 -11 4q-3 4 -10 21q-23 57 -35 161t-12 217q-3 21 -9 21
q-5 0 -15 -13q-24 -31 -87.5 -103l-146.5 -159q-90 -95 -138 -137q-15 -13 -30 -13h-23h-18q-31 0 -31 5q0 4 18 16q88 61 190 160q82 81 169 182q65 76 118 147l13 384q0 7 1 16t1 10q0 9 -5 15q-13 16 -24 12q-25 -11 -76 -68.5t-88 -117.5q-14 -23 -19 -23t-5 33v31
q2 16 10 28q57 78 102 120q56 52 95 52q5 0 12 -2t14 -5q19 -11 26 -32t7 -62q0 -4 -4 -124t-4 -177q0 -22 3 -22t15 14l78 99q41 51 85 95q63 63 100 96q49 43 104 78q17 11 20 11t1.5 -9t-2.5 -20z" />
    <glyph glyph-name="Y" unicode="Y" horiz-adv-x="810" 
d="M909 770l-51 -123l-98 -233l-72 -169l-106 -249q-50 -121 -78 -174q-40 -77 -98 -156l-26 -41q-8 -11 -13 -11q-7 0 -9.5 11.5t-7.5 23.5t-5 17q0 10 12 25q56 71 112 180q41 78 84 183l45 116q15 41 61 145q38 87 45 109v3q-3 1 -16.5 -10.5t-64.5 -69.5
q-55 -62 -90 -95l-111.5 -106t-104.5 -86q-60 -41 -126 -64q-5 -2 -14 -2q-17 0 -30 11t-13 29q0 6 1 9q11 55 49 151q34 86 84 195l164 392q15 32 24.5 65t9.5 52t-9.5 25.5t-23.5 6.5q-35 0 -83 -56q-42 -49 -86 -130q-22 -41 -39.5 -101.5l-22.5 -78.5t-9 -34
q-7 -20 -35 -31q-15 -6 -21 -6q-7 0 -7 9q2 12 3 21q11 67 39.5 139t67.5 136q57 95 102 141q52 53 99 53q27 0 53 -16.5t26 -65.5q0 -29 -9 -62.5t-25 -68.5l-270 -636q-12 -30 -15 -38q-8 -23 -8 -38q0 -9 4 -12q15 -13 88 40q80 58 196 171q110 107 149 148
q71 75 111 131q46 64 85 148l33 81q12 23 29 29t23 6q8 0 8 -7t-10 -32z" />
    <glyph glyph-name="Z" unicode="Z" horiz-adv-x="671" 
d="M657 938q35 -48 35 -104q0 -69 -53 -151q-45 -70 -122 -139q-28 -26 -116 -86q-39 -27 -44.5 -33.5t-10 -15t-4.5 -13.5q0 -11 18 -11q81 0 124.5 -41.5t43.5 -122.5q0 -78 -24 -150.5t-77 -148.5q-68 -98 -170 -179q-113 -90 -190 -90q-25 0 -45.5 11.5t-34.5 35.5
q-17 32 -17 75q0 99 70 203q77 114 193 161q14 6 18 6t8 -22q1 -8 3 -16q0 -4 -17 -12q-103 -44 -172 -143q-62 -89 -62 -168q0 -49 29 -72q6 -5 16.5 -8t20.5 -3q60 0 157 78q88 71 142 149q45 66 72 134q31 77 31 139q0 38 -11.5 66t-38.5 49q-19 14 -58.5 18.5
t-52.5 12.5t-16 11q-12 11 -12 29q0 12 5 25q14 36 42 56l56 40l121 103q61 52 91 100q35 56 35 118q0 42 -26 75q-30 37 -74 37q-66 0 -150 -54t-151 -142q-21 -27 -25 -27q-1 5 -1 11q1 4 6 31t12 38l20 23q63 77 143.5 123t150.5 46q36 0 64.5 -12.5t47.5 -39.5z" />
    <glyph glyph-name="bracketleft" unicode="[" horiz-adv-x="475" 
d="M665 1049l-24 -60h-143l-379 -995h150l-23 -60h-238l426 1115h231z" />
    <glyph glyph-name="backslash" unicode="\" horiz-adv-x="817" 
d="M607 -5q-20 3 -27 8.5t-7 14.5q1 10 1 16q0 7 -2 10q-5 15 -22.5 101t-34.5 140q-23 73 -38 108q-40 92 -43 102q-19 60 -55 145.5l-43 101.5t-25 41t-18 36q0 13 14 24q8 6 13 6q11 0 22 -21q17 -31 20 -34q12 -12 53 -106q37 -85 77 -187t54 -145q43 -129 63 -216
q17 -72 17 -109q0 -39 -19 -36z" />
    <glyph glyph-name="bracketright" unicode="]" horiz-adv-x="476" 
d="M621 1049l-426 -1115h-238l23 60h150l380 995h-143l23 60h231z" />
    <glyph glyph-name="asciicircum" unicode="^" horiz-adv-x="561" 
d="M681 829l-2 -8q-14 -13 -24 -12q-17 3 -40 23q-12 10 -44 42q-9 9 -26 33q-13 18 -19 19q-3 0 -21 -12q-60 -40 -68 -45q-41 -24 -73 -40q-41 -20 -58 -23q-11 -2 -21 13q-5 8 0 10q12 5 55 29l81 47q30 18 62 40q51 35 62 42l31 -46q11 -15 29.5 -37t42.5 -46t33 -29z
" />
    <glyph glyph-name="underscore" unicode="_" horiz-adv-x="963" 
d="M999 -244h-992v48h992v-48z" />
    <glyph glyph-name="grave" unicode="`" horiz-adv-x="439" 
d="M535 786q6 -5 -5.5 -14.5t-19.5 -6.5q-19 7 -46.5 33.5t-55.5 60.5q-48 56 -68 101q-3 8 9 19.5t17 4.5q11 -17 32.5 -45.5t43.5 -54.5q30 -35 53 -59q28 -30 40 -39z" />
    <glyph glyph-name="a" unicode="a" horiz-adv-x="564" 
d="M584 208q1 -11 -2 -21.5t-15 -18.5q-2 -2 -46 -40l-37 -30q-57 -45 -89 -65q-61 -39 -98 -39q-7 0 -19.5 3t-12.5 26q0 11 17 78q-2 5 -4 11q-13 -10 -58 -56q-67 -68 -118 -68q-20 0 -45.5 10t-45 53t-19.5 100q0 64 27 122q31 67 95 118q72 56 126 81q80 37 169 37
q31 0 71 -12.5t40 -28.5q0 -6 -7 -12q-3 -2 -7 -11t-9 -9q-4 0 -12 6q-12 10 -33 16t-43 6q-85 0 -185 -55q-106 -59 -158 -142q-25 -40 -25 -103q0 -36 9.5 -67t26.5 -46q11 -10 26 -10q44 0 122 87q52 59 126 165q67 97 71 100q3 3 13 3q12 0 21 -4.5t9 -14.5q0 -9 -4 -18
q-7 -13 -10 -19l-83 -168q-12 -25 -23 -56.5t-11 -47.5q0 -11 6 -16q16 -9 122 78l105 87q17 7 17 -9z" />
    <glyph glyph-name="b" unicode="b" horiz-adv-x="520" 
d="M535 204q1 -12 -2.5 -23.5t-10.5 -12.5l-39 -30q-21 -17 -35 -25q-23 -13 -47 -16q-24 0 -35 1.5t-30 7.5l-22 -12q-32 -41 -80 -71.5t-97 -30.5q-19 0 -27.5 1.5t-24.5 7.5q-24 9 -34 27.5t-10 47.5q0 30 12 72l16 50q3 10 -5 10q-9 0 -30 -13.5t-34 -26.5
q-13 -3 -13 20q0 18 13 29l72 69q36 35 48 56q4 7 9 18t17 44l88 239l84 226q36 97 44 114q5 12 20 26.5t24 14.5q12 0 12 -21q0 -15 -11 -54q-18 -61 -63 -175l-97 -239l-127 -350q-21 -57 -21 -58q-5 -18 -5 -35q0 -26 15 -48q7 -10 25 -10q32 0 81.5 30t71.5 61q5 8 5 15
q-8 24 -13.5 48.5t-5.5 53.5q0 20 1 30t6 38q12 68 51.5 131.5t78.5 63.5q5 0 13 -2q20 -6 28.5 -25.5t8.5 -49.5q0 -23 -2 -37t-10 -50q-15 -60 -43 -116l-33 -59q-4 -10 -4 -13q0 -16 23 -16q35 0 74 33l57 47q13 -3 13 -13zM399 324l13 53.5t6 37.5q0 29 -19 33
q-21 6 -45 -53q-7 -17 -19 -58q-8 -26 -12.5 -52.5t-4.5 -49.5q0 -31 12 -37q18 -8 39 38q16 35 30 88z" />
    <glyph glyph-name="c" unicode="c" horiz-adv-x="423" 
d="M437 202q0 -12 -2 -19t-11 -14q-78 -84 -147 -127q-78 -49 -151 -49q-30 0 -54 7t-49 46q-31 49 -31 108q0 41 16 86t53 93q60 79 120 120q70 48 145 48q22 0 49 -5.5t27 -58.5q0 -65 -43 -134q-5 -12 -32 -12q-18 0 -16 12q21 41 32 73.5t11 51.5q0 28 -11.5 29.5
t-23.5 1.5q-46 0 -98 -37q-23 -16 -92 -81q-34 -32 -59.5 -87.5t-25.5 -107.5q0 -32 12.5 -58t39.5 -42q16 -10 39 -10q63 0 167 74q83 59 122 107q9 2 12 -3q2 -4 1 -12z" />
    <glyph glyph-name="d" unicode="d" horiz-adv-x="615" 
d="M640 1027q20 -7 20 -55q0 -60 -32 -182q-26 -100 -65 -209q-27 -77 -62 -152q-30 -64 -70 -132q-26 -45 -76 -123l-4 -23q-5 -20 -5 -42q0 -27 8.5 -44.5t28.5 -13.5q23 4 87 48q73 50 146 118q11 -2 10 -14v-19q-2 -12 -10 -16q-53 -62 -136 -118.5t-128 -56.5
q-11 0 -15 2q-25 9 -35 34q-5 12 -10 51l-3 26l-55 -57q-20 -21 -53 -40q-41 -24 -73 -24q-21 0 -41 12q-39 26 -58 64t-19 85q0 70 41 144.5t106 122.5q55 41 66 48q66 42 140 42q7 0 16 -1t14 -1l20 71q19 70 47 139q35 84 65 145q41 84 72 127q39 53 63 44zM601 925
q-16 6 -55 -79q-16 -35 -65 -158q-39 -98 -71 -208q-35 -120 -35 -163q0 -19 7 -19q4 -1 36 60q40 76 68 141q39 89 59.5 157.5l41.5 142.5t21 105q0 18 -7 21zM357 457q-14 2 -22 2q-65 0 -138 -57q-58 -46 -120 -128q-15 -20 -25.5 -55.5t-10.5 -70.5q0 -38 12 -65t41 -39
q6 -2 12 -2q41 0 103 47q72 55 103 126q0 29 4.5 55l7.5 44q11 69 33 143z" />
    <glyph glyph-name="e" unicode="e" horiz-adv-x="449" 
d="M462 206q0 -16 -1.5 -24.5t-10.5 -13.5q-7 -13 -58 -54q-60 -49 -125 -84q-83 -45 -139 -45q-18 0 -36 5q-48 16 -71 47q-27 37 -27 107v20t3.5 44.5t36.5 88.5q40 65 129 136q33 26 86.5 45t94.5 19q48 0 61 -25t13 -52q0 -47 -33 -97.5t-80 -86.5t-103 -46
q-37 -7 -115 -7h-35l-3 -44q0 -50 26 -76t64 -26q64 0 174 69q99 62 137 111q12 5 12 -11zM360 436q-8 15 -34 15q-29 0 -68.5 -18.5t-65.5 -41.5q-52 -48 -75 -75q-47 -55 -47 -91h58q34 0 76 15q49 18 83.5 49t53.5 58q25 35 25 64q0 13 -6 25z" />
    <glyph glyph-name="f" unicode="f" horiz-adv-x="380" 
d="M394 207q0 -20 -4 -28q-1 -1 -9 -11q-26 -28 -39.5 -40t-31.5 -22l-60 -33q-16 -14 -16 -51q0 -31 -12 -95q-15 -80 -39 -136q-35 -83 -95 -145t-95 -54q-44 11 -44 79q0 57 33 166q21 69 69.5 204t62.5 189q1 3 1 13q0 17 -8 17q-6 0 -16 -11q-18 -20 -47 -44l-44 -37
q-8 -3 -11 2q-3 4 -2 10q0 27 13 38l41 35q19 17 39 39l58.5 65t53.5 107l133 411q24 74 53 129q12 22 22 22q15 0 15 -42q0 -31 -7.5 -66t-27.5 -86l-49 -127q-49 -124 -75 -205l-225 -690q-17 -51 -24.5 -83t-7.5 -51q0 -27 13 -32q22 -10 67 56t77 162q38 112 38 207
q0 28 32 41q58 23 76 36q64 48 79 71q8 5 11 0q2 -3 2 -10z" />
    <glyph glyph-name="g" unicode="g" horiz-adv-x="561" 
d="M574 207q0 -30 -12 -39l-154.5 -137.5t-97.5 -95.5q-57 -66 -96 -158l-48 -126q-23 -52 -53 -52q-15 0 -22.5 11.5t-7.5 29.5q0 16 3 30.5t14 51.5q16 54 62 119l71 99q13 20 33 69q27 64 41 119q2 8 0 9q-4 1 -12 -5l-84 -85q-56 -54 -106 -54q-54 0 -79 40
q-19 30 -31 104q-2 16 -2 26q0 44 17 86q21 51 69 104q43 48 123 94q108 63 197 63q21 0 31 -1t34 -8.5t38 -21.5t14 -29q0 -7 -3 -12q-8 -16 -18 -16q-25 17 -46.5 30t-43.5 13q-83 0 -164 -45q-59 -32 -112 -86q-19 -19 -49 -56q-15 -17 -24 -51.5t-9 -70.5
q0 -50 15.5 -82t46.5 -29q32 4 106.5 76.5t129.5 149.5q2 2 39 56q27 39 46 39q7 0 14 -5.5t7 -13.5q0 -6 -4.5 -16t-5.5 -13l-84 -196q-11 -26 -20 -54t-10 -32q-2 -6 -2 -14q0 -7 6 -7q5 0 14 6t11 8q40 41 112 105l94 83q7 3 10 -1q2 -3 2 -9z" />
    <glyph glyph-name="h" unicode="h" horiz-adv-x="616" 
d="M628 204q0 -28 -10 -36l-37 -33q-31 -27 -72 -57l-69 -49q-60 -38 -96 -38q-10 0 -19 3q-17 7 -17 30q0 13 5 28q2 6 11 28l119 268l9 18q5 10 7 22q3 16 -10 16q-10 0 -23 -10l-103 -97q-85 -80 -129 -127q-71 -75 -136 -156q-9 -11 -21 -20.5t-22 -9.5q-15 0 -22 24
q-4 15 28 90l26 60q9 27 9 37t-7 10q-4 0 -8 -2q-7 -4 -14 -12l-27 -23q-4 -2 -7 0q-6 3 -6 10q0 29 13.5 40t32.5 30l50 49.5t49 77.5q19 42 76 194l158 411q7 18 18 27t23 9q19 0 19 -24q0 -11 -4 -23q-13 -45 -47 -133q-26 -68 -66 -161l-49 -113l-69 -166l-78 -200
q-6 -15 -6 -32q0 -14 8 -14q6 0 13 6t23 25q92 110 199 208q125 114 171 114q7 0 15 -4.5t8 -22.5q0 -16 -6.5 -35t-17.5 -44l-132 -298q-6 -16 -6 -25q0 -14 9 -17q18 -7 131 83l96 77q10 1 10 -13z" />
    <glyph glyph-name="i" unicode="i" horiz-adv-x="306" 
d="M288 632q-7 -16 -18.5 -27t-24.5 -11q-7 0 -13.5 3t-11 12t-4.5 21q0 15 5 29t17.5 27.5t27.5 13.5q5 0 13 -3.5t12 -12t4 -20.5q0 -6 -1.5 -13.5t-5.5 -18.5zM309 202q0 -26 -10 -34l-39.5 -34t-30.5 -25q-114 -87 -174 -110q-20 -7 -34 -7t-20.5 8.5t-6.5 22.5
t4.5 29.5t10.5 28.5l42 95q8 17 8 27q0 7 -6 7q-4 0 -12 -5t-10 -6q-17 -12 -26.5 -20.5t-12.5 -10.5q-11 -2 -11 15q0 13 3 21t8 13q16 13 40 37l29 29q45 45 67 79.5t51 106.5q9 23 32 23q28 0 28 -14q0 -4 -6 -16l-102 -227t-62 -147.5t-1 -10.5v-5q0 -14 11 -14
q7 0 20 7q5 3 22 14q40 27 100 74q48 38 78 64q12 0 10 -15z" />
    <glyph glyph-name="j" unicode="j" horiz-adv-x="366" 
d="M338 639q-7 -17 -18.5 -29.5t-24.5 -12.5q-5 0 -13.5 4t-11 12.5t-2.5 17.5q0 10 5.5 27t20 30.5t27.5 13.5q8 0 13 -4q12 -8 12 -26q0 -15 -8 -33zM377 202q0 -24 -10 -34l-49 -39q-22 -18 -52 -47l-96 -90.5t-81 -101.5q-12 -20 -56 -159q-22 -70 -51 -124
q-10 -19 -28 -19q-20 0 -20 35q0 5 2 21q11 69 65 185q39 83 52 117t67 192q41 118 59 161q4 8 4 19q0 18 -11 18q-7 0 -17 -11q-46 -52 -86 -93t-69 -64q-14 -3 -12 13q0 15 3 22q1 1 9 14q55 52 129 136q64 73 107 131q11 15 26 15q23 0 23 -27q0 -12 -5 -22
q-21 -49 -69 -189.5t-69 -213.5q-2 -6 -2 -14t7 -8q13 0 31 20q36 38 86 82l103 90q10 1 10 -15z" />
    <glyph glyph-name="k" unicode="k" horiz-adv-x="606" 
d="M618 204q2 -13 0 -21.5t-11 -14.5q-56 -45 -95 -73q-59 -42 -110 -69q-62 -32 -98 -32q-35 0 -57 18q-30 25 -30 79q0 20 2 31q8 60 67.5 81.5t104.5 59.5q34 27 65 69q38 51 38 83q0 23 -20 34q-6 3 -13 3q-27 0 -77 -39q-41 -33 -99 -92q-34 -35 -96 -105
q-40 -44 -113 -154q-51 -77 -68 -70q-16 7 -16 25q0 23 29 75q37 65 41.5 80.5t4.5 23.5q0 12 -9 12q-7 0 -19 -9l-39 -31q-7 -4 -10 -1t-2 10q0 25 12 40l60.5 51.5t26.5 26.5l32 35q21 26 32 58q6 18 11.5 30l12.5 26l235 535q10 23 13 27q10 14 24 14q6 0 15 -3.5
t9 -20.5q0 -10 -3 -21t-7 -21l-69 -165q-16 -37 -66 -131q-24 -45 -40 -82l-52 -118q-49 -109 -71 -171q-6 -15 -6 -26q0 -9 8.5 -5t25.5 24l59 69q59 65 109 104q69 54 116 54q24 0 43 -16q29 -25 29 -69q0 -34 -18 -74.5t-40 -66.5q-37 -43 -94 -76q-48 -28 -85 -37
q-23 -6 -34.5 -23.5t-11.5 -38.5q0 -27 15.5 -50.5t35.5 -23.5q41 0 129 59q69 47 163 126q11 0 11 -13z" />
    <glyph glyph-name="l" unicode="l" horiz-adv-x="373" 
d="M407 964q-11 -51 -36 -125q-33 -99 -80 -213q-29 -71 -74 -203l-107 -320q-5 -17 -5 -26q0 -24 20 -24q13 0 35 13q39 24 105 70.5t109 80.5q10 -2 9 -11q0 -17 -1.5 -25t-7.5 -13q-93 -72 -161 -116q-58 -38 -88.5 -50t-48.5 -12q-40 0 -40 44q0 9 1.5 19.5t21.5 62.5
q17 44 26 76q6 20 6 32q0 14 -7 14t-19 -13t-32 -29q-26 -21 -33 -28q-10 -1 -10 10q0 29 10 39q23 19 51 45l50 48q24 23 42 63q10 22 30 79l64 190.5l60 181.5q34 98 62 162q7 16 15 25q12 13 25 10q13 -4 13 -23q0 -12 -2 -21t-3 -13z" />
    <glyph glyph-name="m" unicode="m" horiz-adv-x="866" 
d="M877 202q0 -9 -2.5 -18.5t-7.5 -15.5l-106 -84q-68 -51 -134 -80q-25 -11 -42 -11q-29 0 -29 31q0 18 12 48q26 67 101 223q44 92 35 104l-118 -94l-99 -106q-46 -49 -126 -150q-47 -60 -67 -60q-7 0 -10 2q-14 7 -14 25q0 17 13 47l14 30l112 243q12 26 12 45
q0 17 -10 17q-9 0 -24 -16l-110 -117l-95 -106l-76 -86l-49 -56q-31 -32 -49 -32q-5 0 -10 3q-9 8 -9 23q0 23 19 65l50 98q7 18 7 27t-7 9q-5 0 -11 -3q-4 -2 -13 -9t-18 -15.5t-16 -14.5q-4 -2 -7 3q-2 3 -3 9q0 16 1.5 23t8.5 14q24 20 47 43q36 36 47 46q53 50 87 158
q3 12 10.5 20.5t22.5 8.5h8q3 -1 11 -3t8 -16q0 -7 -1 -10q-3 -7 -4 -9l-53 -115q-42 -91 -65 -147q-5 -13 -5 -19q0 -11 8 -11q5 0 13 8l79.5 94.5t108.5 113.5q126 123 163 123q10 0 20 -5.5t10 -21.5q0 -9 -2 -16q-1 -5 -11 -26l-77 -169q-10 -23 -19 -47.5t-9 -33.5
q0 -5 3 -7q12 -5 105 104q57 67 91 98l88 80q55 47 83 47q14 0 22 -11q5 -6 5 -18q0 -9 -2 -16q-1 -4 -6 -15l-151 -338q-8 -17 -9 -21q-2 -7 -2 -14q0 -9 7 -15q9 -7 34 8q5 3 35 25l167 127q9 1 10 -15z" />
    <glyph glyph-name="n" unicode="n" horiz-adv-x="626" 
d="M639 204q0 -25 -12 -36q-51 -46 -107 -88q-113 -85 -161 -85q-12 0 -20 6q-12 9 -12 30q0 16 7 38q4 12 15 39l122 267q9 20 9 28q0 5 -3 8q-7 9 -71 -47q-69 -60 -175 -166q-77 -77 -148 -158q-24 -28 -33 -35q-17 -14 -31 -14q-20 0 -20 27q0 15 7 30q12 30 24 54
q28 55 33.5 72t5.5 23q0 9 -7 9q-10 0 -37 -20q-12 -9 -25 -20q-14 -1 -12 16q0 20 12 35q65 57 93 85q49 48 67 97l17 47t20 39q7 10 24 10t24 -10q4 -6 1 -14q-71 -153 -103 -230.5t-25 -84.5q10 -10 67 54q83 93 107 114l107 96q50 41 118 83q11 6 20 6q13 0 19.5 -11
t6.5 -25q0 -9 -2 -12l-35 -79l-124 -285q-5 -8 -5 -20t7 -16q13 -9 114 68q80 61 109 88q6 3 9 0t3 -13z" />
    <glyph glyph-name="o" unicode="o" horiz-adv-x="493" 
d="M504 203q0 -22 -10 -35q-40 -39 -66.5 -52.5t-60.5 -18.5q-9 -1 -26.5 4.5t-22.5 5.5q-10 0 -15 -8q-21 -31 -71 -68q-67 -49 -121 -49q-24 0 -44 10q-39 19 -59 71q-16 42 -16 92q0 23 3 38q0 32 34 103q29 60 70 103.5t98.5 77.5t92.5 34q18 0 25 -10q4 -5 4 -14
q0 -22 -16 -25q-57 -15 -105 -44.5t-83 -74.5q-31 -40 -49 -93t-18 -102q0 -81 45 -114q10 -7 25 -7q30 0 70 25t65 53q13 13 13 27q-8 26 -14.5 50.5t-6.5 53.5v17t2 21q7 55 38 103q37 57 84 57q5 0 18.5 -3t20 -18.5t6.5 -40.5q0 -23 -2 -37t-7.5 -43t-27 -70.5
t-21.5 -60.5q0 -9 2.5 -16t13.5 -7q21 0 63 29q35 24 59 50q7 1 9 -2q1 -2 1 -12zM360 286q7 18 10.5 34.5t3.5 33.5q0 28 -17 28q-19 0 -35 -27q-12 -20 -21.5 -50.5t-9.5 -65.5q0 -24 3.5 -38t11.5 -17q16 -7 35 46q9 28 19 56z" />
    <glyph glyph-name="p" unicode="p" horiz-adv-x="642" 
d="M654 203q0 -11 -2.5 -20.5t-8.5 -14.5l-34 -32q-37 -27 -57 -40q-50 -33 -84.5 -47t-66 -21t-50.5 -7q-11 0 -15 1q-11 2 -32 -6q-54 -21 -74 -21q-18 0 -33 5.5t-30 20t-15 24.5q0 9 10 14t25 5q19 0 43 -3t32 -3q16 0 28.5 5.5t32.5 22.5q37 33 68 78q21 30 49 82
q23 43 34.5 79t11.5 60q0 39 -24 60q-11 10 -29 10q-57 0 -156 -109q-88 -97 -114 -160q-52 -129 -77 -218q-15 -55 -27.5 -139t-24.5 -136t-15 -61q-14 -36 -36 -36q-15 0 -15 14q0 7 1.5 26.5t1.5 26.5q0 100 54 286q41 143 89 258q16 41 16 58q0 13 -8 13
q-10 0 -32 -23.5t-52 -51.5l-38 -35q-6 -2 -10 1t-4 10q-1 14 3 23q8 10 11 15q35 31 79 74l80 81q24 25 35 40q18 25 27 56q3 10 11 16t17 6q20 0 20 -21q0 -11 -6 -21q-11 -19 -15 -32.5t-4 -24.5q0 -13 8 -13q9 0 25 20q26 35 63 64q54 42 100 42q18 0 31 -5
q37 -13 54 -45q14 -27 14 -66q0 -29 -6 -55t-13 -41q-27 -63 -55.5 -110.5t-57.5 -78.5q-12 -12 -12 -19t16 -7q8 1 13 1q44 4 122 58q69 48 97 81q11 2 11 -14z" />
    <glyph glyph-name="q" unicode="q" horiz-adv-x="558" 
d="M569 203q0 -14 -1.5 -22t-8.5 -13q-19 -22 -49 -47q-42 -36 -95 -73q-29 -19 -29 -47q0 -88 -45 -195q-58 -137 -154 -194q-36 -21 -61 -21q-41 0 -41 46q0 23 12 55l158 350q7 19 7 28q0 10 -7 10q-9 0 -26 -18q-34 -36 -58 -51q-31 -19 -59 -19q-16 0 -30.5 4t-31.5 16
q-29 19 -42 63.5t-13 106.5q0 51 45 117q58 86 166 145q46 25 97 42t96 17q29 0 53.5 -8t42.5 -27q9 -10 14 -19t5 -18t-8 -14.5t-16 -5.5q-6 0 -17 9q-21 20 -36 29q-21 12 -43 12q-86 0 -206 -84q-127 -89 -137 -176q-1 -6 -1 -14.5v-13.5q0 -51 13 -84q17 -44 54 -44
q30 0 122 94q102 104 146 199q5 11 15.5 20t20.5 9q7 0 11 -4q12 -9 12 -17q0 -5 -5 -18l-54 -115l-80 -173l-98 -219q-53 -120 -58 -137.5t-5 -27.5q0 -12 9 -12q6 0 13.5 3.5t16.5 10.5q48 33 100 131q64 121 64 235q0 15 11 28q8 9 25 22l83 60q53 39 93 83q7 1 9 -2
q1 -2 1 -12z" />
    <glyph glyph-name="r" unicode="r" horiz-adv-x="468" 
d="M479 207q0 -16 -1.5 -26.5t-9.5 -12.5l-115 -87t-121 -79q-20 -12 -39 -12q-36 0 -36 41q0 10 5 27q15 42 59.5 139t72.5 173q7 20 7 35q0 22 -15 31.5t-42 9.5q-31 0 -38 -4.5t-19 -27.5q-33 -65 -87 -136t-100 -110q-13 -3 -11 14q0 17 4.5 24t6.5 11q46 50 82 101
q26 37 62 98q5 9 7 13q7 12 7 20t-5 16q-12 24 -12 46q0 18 7 32t22 21q6 3 11 3q15 0 27 -15t12 -36q0 -19 3.5 -26t10.5 -7q3 0 15.5 2.5t14.5 2.5q7 1 18 1q34 0 54 -13q25 -17 25 -51q0 -19 -7 -41q-15 -51 -52 -131q-54 -118 -66 -149q-8 -19 -8 -32q0 -15 13 -15
q9 0 19.5 4.5t18.5 11.5l189 144q8 1 9 0q2 -2 2 -10z" />
    <glyph glyph-name="s" unicode="s" horiz-adv-x="469" 
d="M478 204q2 -9 0 -20t-8 -16q-73 -62 -121 -92q-64 -40 -128 -56q-18 -4 -42 -12q-10 -3 -39.5 -14.5t-72.5 -11.5q-33 0 -55 10t-22 30q0 7 2.5 17t21.5 10q8 0 42 -7q19 -4 27 -4q57 0 74 9q8 4 32 35q31 40 47 127q13 72 13 162v15q-2 12 -10 12q-10 0 -32 -26
q-39 -49 -86 -96q-53 -53 -121 -108q-7 -3 -10 3q-2 3 -2 11q-2 19 12 35q50 42 127 124l124 141q15 17 16 26.5t5 32t20 51.5q22 38 45 38q7 0 14 -4q16 -9 16 -30q0 -22 -18 -54q-12 -21 -26 -38q-7 -8 -12.5 -15.5t-5.5 -26.5q0 -142 -11.5 -222t-34.5 -142q-4 -9 -4 -15
q0 -7 7 -7q3 0 8 2t11 4q49 21 120 79q57 47 69 56q6 1 8 -13z" />
    <glyph glyph-name="t" unicode="t" horiz-adv-x="362" 
d="M403 887l-30 -78q-31 -82 -53 -149q-3 -11 -3 -17q0 -14 23 -14h15q36 0 41 -2q6 -3 4 -18q-3 -15 -10.5 -20t-24.5 -5q-9 0 -30.5 1t-27.5 1q-13 0 -20.5 -10t-13.5 -27q-42 -122 -84 -229.5l-83 -213.5q-7 -18 -7 -34q0 -22 18 -22q12 0 38 15q53 33 113 79l94 73
q10 3 10 -13q1 -5 1 -13q0 -17 -11 -23q-69 -66 -162 -124.5t-138 -58.5q-16 0 -23 7q-10 10 -10 30q0 33 26 96q6 14 33 72q10 21 10 36q0 16 -12 16q-13 0 -32 -22q-15 -17 -54 -52q-6 -3 -10 0t-4 13t4 19.5t10 16.5l70 70t65 72q17 19 28.5 39.5t20.5 45.5l39 103
q5 13 5 19q0 10 -12.5 14t-46.5 4q-19 -1 -29 -1q-27 0 -27 15q0 3 3.5 12.5t8.5 12.5t24 3h36q13 0 24.5 -0.5t21.5 -0.5q13 0 18.5 4.5t11.5 21.5l51 140t50 115l11 19q9 10 21 7q11 -3 11 -26q0 -13 -2 -19z" />
    <glyph glyph-name="u" unicode="u" horiz-adv-x="623" 
d="M632 202q1 -13 -0.5 -22t-8.5 -12q-49 -46 -108.5 -90t-105.5 -66q-30 -15 -52 -15q-19 0 -27.5 10.5t-8.5 28.5t8 32l59 119q6 12 37 79q6 14 6 22q0 13 -11 13q-13 0 -27 -17q-64 -77 -160 -157q-56 -47 -144 -109q-30 -22 -52 -22q-16 0 -24.5 11.5t-8.5 27.5
q0 9 4.5 22.5t30.5 63t36 75.5q2 4 2 12q0 12 -9 12q-7 0 -16.5 -9.5l-21 -20.5t-30.5 -22q-13 -3 -11 14v15q2 13 11 20q54 42 61 48q26 23 52.5 55.5t35.5 47.5q14 21 20 36l27 64q17 33 39 28q20 -4 20 -18q0 -6 -6 -18l-83 -176q-52 -112 -71 -166q-5 -14 -5 -24
q0 -13 10 -13q5 0 11 3t10 6q88 71 206 186q131 128 186 206q11 16 29 16q11 0 18.5 -6.5t7.5 -16.5q0 -5 -3 -11l-89 -187q-37 -81 -79 -183q-4 -11 -4 -19q0 -13 14 -13q9 0 20 6q28 17 64 44q6 4 132 105q9 0 9 -5v-10z" />
    <glyph glyph-name="v" unicode="v" horiz-adv-x="551" 
d="M563 203q1 -11 -1.5 -20t-9.5 -15q-26 -25 -57 -41.5t-59 -16.5q-22 0 -42 12q-7 4 -24 21q-12 12 -19 12q-8 0 -15 -10q-35 -50 -88 -91q-71 -55 -130 -55q-34 0 -60 18q-14 9 -20.5 24t-6.5 32q0 24 12.5 56.5t27.5 66.5q3 9 3 15q0 9 -6 9q-5 0 -15.5 -8t-25 -21.5
t-27.5 -22.5q-12 -1 -12 15q0 22 12 34q34 28 61 54q20 20 48 51q19 21 30 39.5t29 61.5l21 57q8 17 29 17q7 -1 11 -1q20 -3 20 -13q0 -6 -9 -24q-84 -178 -145 -333q-8 -20 -8 -39q0 -43 38 -43q14 0 29 7q33 15 79 54q57 48 86 96l18.5 30t10.5 29q10 106 73 201l46 36
q9 -9 9 -33q0 -35 -19 -90q-22 -62 -57 -128q-7 -16 -7 -33q0 -15 5.5 -28t17 -22t28.5 -9q28 0 68 29q7 5 40 34q9 3 11 -14z" />
    <glyph glyph-name="w" unicode="w" horiz-adv-x="802" 
d="M813 205q0 -16 -2.5 -24t-8.5 -13q-25 -24 -59.5 -40t-65.5 -16q-26 0 -46 12q-7 4 -24 22q-13 13 -20 13t-14 -10q-38 -53 -73 -85q-47 -42 -91 -52q-11 -2 -22.5 -3.5t-22.5 -1.5q-32 0 -44 13t-12 35q0 6 1 13q0 2 4.5 22t10.5 43.5t13 44.5t7 30q0 12 -7 12
q-9 0 -27 -23q-36 -46 -73 -85q-60 -63 -106 -91q-13 -8 -27.5 -14t-29.5 -6q-23 0 -34 16.5t-11 38.5q0 14 2 19l44 121q3 8 3 13q0 13 -9 13q-6 0 -14 -8l-24 -23.5t-31 -22.5q-13 0 -11 13q0 18 2 24q1 3 9 12q36 28 59 50q16 16 52 55q22 24 32.5 39.5t21.5 44.5
q21 58 24 63q18 34 40 29q20 -4 20 -18q0 -6 -6 -18q-36 -78 -81 -187t-69 -176q-5 -13 -5 -24q0 -16 15 -16q12 0 22 8q72 58 166 176q80 101 132 187q13 21 33 21q22 0 22 -22q0 -6 -3 -15q-16 -39 -56 -149q-46 -128 -54 -164q-3 -14 -3 -22q0 -15 6.5 -22t16.5 -7
q11 0 25 8q38 22 73 55t71 82q14 19 24.5 38t10.5 33q0 58 23 121q20 55 47 88t39 22q13 -13 13 -40q0 -42 -28 -112q-14 -34 -40 -85q-9 -18 -9 -42q0 -15 4 -27.5t15.5 -23t32.5 -10.5q31 0 73 27q20 13 43 33q11 1 11 -12z" />
    <glyph glyph-name="x" unicode="x" horiz-adv-x="583" 
d="M594 207q1 -6 1 -17q0 -16 -11 -22q-59 -49 -102 -81q-60 -44 -116 -75q-14 -8 -30.5 -13t-30.5 -5q-23 0 -36 11.5t-13 37.5q0 30 3 64t3 57q0 28 -11 28q-7 0 -21 -14l-61 -70q-43 -49 -79 -84q-7 -8 -15 -15t-32 -7h-11q-14 0 -14 6q0 4 3 9q4 6 13 17q27 33 73 79
q111 113 147 155q10 11 15 21.5t5 24.5q0 17 3 44t3 52q0 31 -18 31q-14 0 -35 -25l-69 -84q-96 -116 -158 -164q-12 0 -12 13q0 16 1 20q2 9 11 16l46 47l44 48l133 152q21 19 39.5 28t31.5 9q14 0 24 -10q5 -5 7 -12.5t2 -29.5q0 -16 -0.5 -31t-0.5 -28v-12v-18
q0 -20 6 -20q8 0 29 22q30 30 52.5 56.5l44.5 52.5q9 11 15 15q5 4 10 4q10 -1 20 -1q32 0 32 -7q0 -3 -7.5 -10l-14.5 -14q-41 -46 -98 -103l-62.5 -62.5t-29.5 -35.5t-8 -34l-7 -147q0 -17 5 -24.5t13 -7.5q6 0 15.5 4.5l13.5 6.5q65 40 125 83l104 79q10 0 10 -10z" />
    <glyph glyph-name="y" unicode="y" horiz-adv-x="590" 
d="M603 203q2 -7 -2 -19t-10 -16l-88 -77l-109 -97l-96 -87q-17 -16 -31.5 -42l-19.5 -35q-8 -15 -39 -90q-13 -30 -32 -67q-22 -43 -37 -62q-18 -24 -34 -24q-7 0 -11 2q-15 8 -15 36q0 24 11 59.5t27 66.5q21 40 88 135q30 43 37 58q10 14 81 178q4 10 53 121q6 15 6 24
t-6 9q-9 0 -26 -18q-71 -83 -148 -150q-70 -61 -130 -97q-34 -20 -54 -20q-12 0 -17.5 7.5t-5.5 19.5q0 14 5 28t20 46q36 79 44 100q2 4 2 12q0 10 -8 10q-7 0 -17 -10t-19.5 -18.5t-21.5 -17.5q-7 -1 -9 4t-2 16q0 18 11 29q32 27 51 46l43 45q21 21 35.5 41.5t25.5 46.5
l22 62q14 31 42 28q25 0 25 -11q0 -3 -3.5 -11t-5.5 -12l-101 -218q-37 -79 -51 -120q-7 -20 -7 -30q0 -11 8 -11q4 0 10.5 3.5t14.5 9.5q81 64 193.5 183t171.5 203q10 14 28 14q7 -1 11 -1q22 0 22 -10q0 -6 -6 -18q-32 -63 -97 -209t-90 -210q-6 -17 -6 -24q0 -10 7 -10
q8 0 20 12q39 39 93 85l135 116q8 1 10 -4q1 -1 2 -10z" />
    <glyph glyph-name="z" unicode="z" horiz-adv-x="490" 
d="M501 203q0 -28 -10 -35q-78 -83 -208 -210q-8 -8 -14 -18q-2 -3 -11 -24q-41 -93 -60 -129q-33 -62 -80 -121q-20 -25 -49 -48q-41 -33 -73 -33q-21 0 -36.5 13.5t-15.5 34.5q0 36 36 90q26 39 57 70l86 85l74 70q10 9 14 13q8 8 14 22t14.5 51t8.5 64q0 19 -3.5 32
t-10.5 18.5t-14 5.5q-4 0 -41 -18q-19 -9 -33 -9q-27 0 -36 17q-3 6 -3 12q0 20 27 37.5t50 17.5q6 0 9 -1q8 -2 13 -2q31 0 76 42q12 11 43 44q21 23 33.5 48.5t12.5 49.5q0 29 -20 45q-15 12 -35 12q-34 0 -83 -39q-40 -32 -79 -80q-35 -41 -73 -81l-81 -81q-11 -3 -11 15
q0 22 11 34l151 172q102 106 164 106q48 -8 56 -12q52 -25 52 -93q0 -61 -51 -116q-22 -24 -80 -67q-12 -9 -16 -14t-4 -10q4 -8 9 -15q10 -21 13.5 -36t3.5 -35q-1 -24 -1 -39q0 -18 10 -18q8 0 20 12q34 39 77.5 81l86.5 84q10 2 10 -14zM163 -159q-5 9 -29 -10
q-34 -27 -70 -69q-28 -31 -46 -59q-24 -36 -24 -54q0 -9 7.5 -12t13.5 -3q18 0 39 19t64 82q20 30 31 50q16 30 16 46q0 4 -2 10z" />
    <glyph glyph-name="braceleft" unicode="{" horiz-adv-x="438" 
d="M636 1039q-30 -8 -53 -20.5t-47.5 -35t-38 -45.5t-25.5 -56l-95 -247q-17 -46 -34 -70q-12 -17 -38 -38q-40 -32 -86 -43q22 -4 35 -12.5t20 -25t7 -35.5q0 -22 -9 -49q-1 -3 -13 -35l-100 -262q-14 -34 -14 -56q0 -11 5 -26q16 -45 65 -55l-35 -2q-46 0 -77.5 24
t-31.5 54q0 32 17 77l104 272q15 42 15 67q0 18 -7 29q-10 17 -23.5 26t-35.5 9q26 4 51 16.5t47 31.5q26 22 40 49q6 11 23 56l90 237q18 47 34 72q22 33 59 59q29 20 55.5 26.5t62.5 6.5z" />
    <glyph glyph-name="bar" unicode="|" horiz-adv-x="410" 
d="M511 990l-532 -1394h-75l530 1394h77z" />
    <glyph glyph-name="braceright" unicode="}" horiz-adv-x="450" 
d="M488 1005q14 -21 14 -48q0 -16 -5 -36t-16 -47l-90 -237q-17 -44 -20 -56t-3 -25t4 -24q8 -19 23 -31.5t40 -16.5q-28 0 -56 -15q-12 -6 -30 -20q-42 -32 -65 -96l-104 -272q-8 -21 -17 -37.5t-22 -35.5q-20 -32 -72 -57t-100 -25l-33 2q56 10 107 55q20 18 32 36.5
t22 45.5l100 262q16 42 28 63q18 32 46 55q20 16 41 25.5t44 13.5q-36 11 -53 43q-8 18 -8 35t5 35q2 8 13 38l95 247q9 23 13.5 40.5t4.5 33.5v16q-3 8 -4 11q-8 25 -20.5 36.5t-38.5 19.5l33 -1q37 0 57 -6t35 -27z" />
    <glyph glyph-name="asciitilde" unicode="~" horiz-adv-x="512" 
d="M690 974q-5 -20 -7 -29.5t-10 -14.5q-32 -16 -55 -22.5t-54 -6.5q-22 0 -54 20.5t-53 20.5q-42 0 -67 -14q-8 -5 -43 -30q-6 -6 -10 0t-2 16q1 7 4 15.5t10 14.5q37 28 60 35.5t71 7.5q22 0 55 -20.5t55 -20.5t41 8q7 3 39 21q7 4 13 4q7 0 7 -5z" />
    <glyph glyph-name="Adieresis" unicode="&#xc4;" horiz-adv-x="898" 
d="M857 986q17 -8 25.5 -26.5t8.5 -42.5q0 -44 -27 -129q-37 -116 -40 -129q-19 -85 -54 -207q-44 -156 -53 -191q-24 -96 -24 -142q0 -11 1 -29.5t1 -27.5q0 -19 -2 -30q-6 -36 -36 -36q-14 0 -25 11.5t-11 30.5q0 8 2 19t2 28q0 55 -30 104.5t-85 81.5t-141 53
q-69 17 -113 17q-14 0 -16 -3q-8 1 -38.5 -53.5t-53 -105t-36.5 -87.5t-25 -70q-5 -13 -12.5 -18.5t-25.5 -5.5q-24 0 -24 14q0 4 4 14q39 102 76 182q2 4 33 56q23 38 23 55q0 19 -27 19q-9 0 -18 -2t-28.5 -5.5t-40.5 -9.5q-19 -2 -14 18q4 16 13 27.5t18 13.5l140 10
l37 63l35 56q42 66 86 126q62 84 108 130q78 77 111 106q64 57 116 88q62 37 111 37q26 0 49 -10zM823 938q-9 6 -22 6q-51 0 -157 -89q-86 -72 -178 -174q-54 -60 -122 -160q-55 -81 -61 -98l-18 -43q6 1 13.5 1h11.5q39 0 81.5 -7t90.5 -23q66 -22 109 -58q34 -29 77 -92
l97 372l58 176q33 105 33 148q0 18 -2.5 26.5t-10.5 14.5zM936 1069q-9 -15 -24 -25.5t-30 -10.5q-11 0 -19.5 8t-8.5 22q0 7 3.5 17.5t14 27t22.5 27.5t25 11q3 0 11 -2q18 -7 18 -32q0 -22 -12 -43zM789 1069q-8 -15 -23 -25.5t-30 -10.5q-11 0 -19 7q-11 10 -11 26
q0 10 3.5 19.5t11.5 22.5q12 18 21 27q13 12 28 12q7 0 15 -3.5t12 -12t4 -20.5q0 -21 -12 -42z" />
    <glyph glyph-name="Aring" unicode="&#xc5;" horiz-adv-x="884" 
d="M975 1161q-14 -43 -45.5 -75.5t-61.5 -32.5q-15 0 -25.5 9t-16 22t-5.5 30q0 16 2 25.5t8 30.5q14 43 44.5 76.5t62.5 33.5q11 0 22.5 -5.5t18 -20t6.5 -35.5q0 -23 -2 -31t-8 -27zM944 1164q8 21 8 44q0 25 -12 28.5t-16 3.5q-12 0 -24.5 -10t-28.5 -39t-16 -61
q0 -28 14 -34q20 -7 43 15t32 53zM818 986q17 -8 25.5 -26.5t8.5 -42.5q0 -44 -27 -129q-37 -116 -40 -129q-19 -85 -54 -207q-44 -156 -53 -191q-24 -96 -24 -142q0 -11 1 -29.5t1 -27.5q0 -19 -2 -30q-6 -36 -36 -36q-14 0 -25 11.5t-11 30.5q0 8 2 19t2 28
q0 55 -30 104.5t-85 81.5t-141 53q-69 17 -113 17q-14 0 -16 -3q-8 1 -38.5 -53.5t-53 -105t-36.5 -87.5t-25 -70q-5 -13 -12.5 -18.5t-25.5 -5.5q-24 0 -24 14q0 4 4 14q39 102 76 182q2 4 33 56q23 38 23 55q0 19 -27 19q-9 0 -18 -2t-28.5 -5.5t-40.5 -9.5q-19 -2 -14 18
q4 16 13 27.5t18 13.5l140 10l37 63l35 56q42 66 86 126q62 84 108 130q78 77 111 106q64 57 116 88q62 37 111 37q26 0 49 -10zM784 938q-9 6 -22 6q-51 0 -157 -89q-86 -72 -178 -174q-54 -60 -122 -160q-55 -81 -61 -98l-18 -43q6 1 13.5 1h11.5q39 0 81.5 -7t90.5 -23
q66 -22 109 -58q34 -29 77 -92l97 372l58 176q33 105 33 148q0 18 -2.5 26.5t-10.5 14.5z" />
    <glyph glyph-name="Ccedilla" unicode="&#xc7;" horiz-adv-x="826" 
d="M877 845q0 -114 -94 -223q-70 -81 -182 -151q-4 -3 -124 -68q-5 -3 -8 -2t-3 6q0 4 2.5 12.5t2.5 9.5q6 24 9 30q7 15 24 20q44 13 93 41q58 33 100 76q59 59 92 111q43 68 43 122q0 40 -25 74q-31 41 -86 41q-89 0 -217 -102q-118 -94 -206 -221q-59 -86 -88.5 -175.5
t-29.5 -176.5q0 -55 16.5 -99t50 -71.5t67.5 -40t71 -12.5q35 0 70.5 11t70.5 31q54 31 91 74q34 39 66 102q10 16 15 16t16 -11.5t11 -18.5q0 -2 -4 -12q-40 -98 -133 -167q-104 -77 -227 -77q-6 -14 -10.5 -28t-0.5 -15q12 3 24 3q9 0 19.5 -4t19.5 -20.5t9 -34.5
q0 -40 -40 -78t-91 -38q-16 0 -30.5 9t-14.5 24v6q0 4 12 11q7 3 15 5q11 -16 12 -17q4 -3 13 -3q7 0 11 1q23 4 48 23q30 24 30 48q0 35 -27 35q-14 0 -34 -10q-2 -1 -11.5 -9.5t-16.5 -8.5q-11 0 -11 19q1 6 8 12t8 8q5 9 12 28.5t10 37.5q-90 17 -143 88q-56 76 -56 196
q0 83 26 164q22 68 64 140q27 47 81 122q72 102 175 181q135 104 252 104q75 0 116 -45q37 -41 37 -103z" />
    <glyph glyph-name="Eacute" unicode="&#xc9;" horiz-adv-x="671" 
d="M607 915q0 -27 -49 -89l-98 -116q-60 -71 -75 -104q-9 -15 -18 -15t-20.5 11.5t-11.5 22.5q0 6 2 11q9 13 12 18q22 34 61 78l74 78.5t59 67.5q9 12 9 27q0 11 -5 21t-16.5 16t-26.5 6q-58 0 -147.5 -61t-129.5 -132q-25 -45 -37.5 -86.5t-12.5 -83.5q0 -57 26 -106
l24 -45q9 -19 9 -46q0 -9 -9 -18q-3 -3 -39 -31l-64 -49q-44 -34 -72 -77.5t-28 -83.5q0 -42 18.5 -59t64.5 -22q6 -1 18 -1q88 0 194 88q89 74 132 153q9 17 23 17q5 0 14 -4.5t9 -19.5q0 -10 -6 -19q-78 -124 -176.5 -193t-204.5 -69q-54 0 -85 17q-57 31 -57 115
q0 81 70 150l147 122q-27 60 -45 108.5t-18 77.5q0 131 117 260q124 137 270 137q48 0 75 -24q23 -21 23 -48zM736 1225q-14 -21 -55 -53q-33 -26 -81.5 -56t-100 -56t-75.5 -30q-6 -1 -12 7t-6 16t5 9q15 6 67 37l98 60q24 15 65 44q71 51 87 56q6 2 9 -4t3 -15
q0 -10 -4 -15z" />
    <glyph glyph-name="Ntilde" unicode="&#xd1;" horiz-adv-x="735" 
d="M789 720q3 -6 3 -14q0 -13 -8.5 -31.5t-10.5 -22.5q-24 -60 -73 -199l-74 -207q-41 -111 -78 -194q-18 -40 -26.5 -49t-25.5 -7q-17 0 -21 9t-4 41v19q0 146 -2.5 286t-5 298.5t-2.5 175.5q0 33 -15 33q-11 0 -21 -27l-119 -306q-72 -177 -128 -295q-69 -145 -132 -240
q-5 -9 -10 -19q-10 -13 -52 -13q-10 0 -19 0.5t-9 6.5q0 8 12 21q72 89 158 266q61 126 151 344q126 307 135 327q15 34 28 45q17 14 37 11q15 -3 24 -23t9 -49q0 -126 3.5 -319.5t5 -244.5l3.5 -122q0 -59 13 -59q5 0 13.5 14t17 38t48.5 147l63 190q37 105 72 185
q8 18 17 18q7 0 14 -13q2 -4 9 -21zM941 1114q-5 -20 -7 -29.5t-10 -14.5q-32 -16 -55 -22.5t-54 -6.5q-22 0 -54 20.5t-53 20.5q-42 0 -67 -14q-8 -5 -43 -30q-6 -6 -10 0t-2 16q1 7 4 15.5t10 14.5q37 28 60 35.5t71 7.5q22 0 55 -20.5t55 -20.5t41 8q7 3 39 21q7 4 13 4
q7 0 7 -5z" />
    <glyph glyph-name="Odieresis" unicode="&#xd6;" horiz-adv-x="818" 
d="M819 732q0 -108 -69 -274q-79 -191 -195 -312q-142 -149 -303 -149q-83 0 -137 61t-54 165q0 103 33 208q28 88 79 179q39 69 92 138q78 102 175.5 167.5t196.5 78.5q4 0 12 1.5t13 1.5q18 0 25 -12.5t7 -18.5q0 -9 -16 -12t-24 -4q-138 -22 -260 -136
q-105 -99 -181 -249q-68 -134 -89 -262q-3 -21 -5 -39t-2 -37q0 -79 30 -124q35 -52 104 -52q13 0 20 1q182 19 328 232q136 199 167 446q1 5 1 15q0 39 -22.5 70t-55.5 31q-61 0 -125 -64q-69 -69 -110 -184q-5 -14 -10 -18q-2 -2 -24 -14q-12 -6 -19 -6q-13 0 -13 18
q0 12 6 24q57 140 129.5 213.5t155.5 73.5q72 0 106 -41t34 -116zM909 1071q-9 -15 -24 -25.5t-30 -10.5q-11 0 -19.5 8t-8.5 22q0 7 3.5 17.5t14 27t22.5 27.5t25 11q3 0 11 -2q18 -7 18 -32q0 -22 -12 -43zM762 1071q-8 -15 -23 -25.5t-30 -10.5q-11 0 -19 7
q-11 10 -11 26q0 10 3.5 19.5t11.5 22.5q12 18 21 27q13 12 28 12q7 0 15 -3.5t12 -12t4 -20.5q0 -21 -12 -42z" />
    <glyph glyph-name="Udieresis" unicode="&#xdc;" horiz-adv-x="927" 
d="M999 1070q-9 -15 -24 -25.5t-30 -10.5q-11 0 -19.5 8t-8.5 22q0 7 3.5 17.5t14 27t22.5 27.5t25 11q3 0 11 -2q18 -7 18 -32q0 -22 -12 -43zM852 1070q-8 -15 -23 -25.5t-30 -10.5q-11 0 -19 7q-11 10 -11 26q0 10 3.5 19.5t11.5 22.5q12 18 21 27q13 12 28 12
q7 0 15 -3.5t12 -12t4 -20.5q0 -21 -12 -42zM1002 810l-64 -121q-36 -70 -54 -110q-72 -159 -87 -195q-45 -104 -67 -182q-27 -93 -27 -166v-12q0 -18 -3 -22q-3 -3 -21 -11q-22 -8 -30 -8q-14 0 -12 23q5 56 15.5 102.5t49.5 167.5q15 47 42.5 109.5l56.5 128.5q1 4 -1 8
t-6 2q-21 -13 -93 -96q-41 -48 -72 -78l-153 -152q-94 -92 -145 -133q-74 -59 -129 -79q-4 -2 -7 -2h-7q-15 0 -25.5 10.5t-10.5 28.5q0 6 1 10q13 57 52 156q34 85 88 200l168 360q15 32 24 64.5t9 61.5q0 33 -14.5 44.5t-32.5 11.5q-47 0 -114 -74q-54 -60 -107 -148
q-25 -41 -45 -100q-7 -20 -24 -81q-5 -17 -9 -33q-7 -20 -35 -31q-15 -6 -21 -6q-7 0 -7 9q2 12 3 21q10 64 43 140q28 65 70 135q60 100 118 154q69 64 134 64q30 0 62 -15q18 -8 26 -28.5t8 -48.5q0 -34 -8.5 -70t-25.5 -72l-274 -604q-10 -22 -17 -53.5t-2 -34.5t10 -3
q8 0 17 7q3 2 16 14q1 0 41 35l92 82q60 55 96 92l224.5 232t184.5 209q12 15 33 59q17 35 34 47q6 3 12 3q13 0 18 -8.5t2 -13.5z" />
    <glyph glyph-name="aacute" unicode="&#xe1;" horiz-adv-x="568" 
d="M584 208q1 -11 -2 -21.5t-15 -18.5q-2 -2 -46 -40l-37 -30q-57 -45 -89 -65q-61 -39 -98 -39q-7 0 -19.5 3t-12.5 26q0 11 17 78q-2 5 -4 11q-13 -10 -58 -56q-67 -68 -118 -68q-20 0 -45.5 10t-45 53t-19.5 100q0 64 27 122q31 67 95 118q72 56 126 81q80 37 169 37
q31 0 71 -12.5t40 -28.5q0 -6 -7 -12q-3 -2 -7 -11t-9 -9q-4 0 -12 6q-12 10 -33 16t-43 6q-85 0 -185 -55q-106 -59 -158 -142q-25 -40 -25 -103q0 -36 9.5 -67t26.5 -46q11 -10 26 -10q44 0 122 87q52 59 126 165q67 97 71 100q3 3 13 3q12 0 21 -4.5t9 -14.5q0 -9 -4 -18
q-7 -13 -10 -19l-83 -168q-12 -25 -23 -56.5t-11 -47.5q0 -11 6 -16q16 -9 122 78l105 87q17 7 17 -9zM663 769q-14 -21 -55 -53q-33 -26 -81.5 -56t-100 -56t-75.5 -30q-6 -1 -12 7t-6 16t5 9q15 6 67 37l98 60q24 15 65 44q71 51 87 56q6 2 9 -4t3 -15q0 -10 -4 -15z" />
    <glyph glyph-name="agrave" unicode="&#xe0;" horiz-adv-x="567" 
d="M584 208q1 -11 -2 -21.5t-15 -18.5q-2 -2 -46 -40l-37 -30q-57 -45 -89 -65q-61 -39 -98 -39q-7 0 -19.5 3t-12.5 26q0 11 17 78q-2 5 -4 11q-13 -10 -58 -56q-67 -68 -118 -68q-20 0 -45.5 10t-45 53t-19.5 100q0 64 27 122q31 67 95 118q72 56 126 81q80 37 169 37
q31 0 71 -12.5t40 -28.5q0 -6 -7 -12q-3 -2 -7 -11t-9 -9q-4 0 -12 6q-12 10 -33 16t-43 6q-85 0 -185 -55q-106 -59 -158 -142q-25 -40 -25 -103q0 -36 9.5 -67t26.5 -46q11 -10 26 -10q44 0 122 87q52 59 126 165q67 97 71 100q3 3 13 3q12 0 21 -4.5t9 -14.5q0 -9 -4 -18
q-7 -13 -10 -19l-83 -168q-12 -25 -23 -56.5t-11 -47.5q0 -11 6 -16q16 -9 122 78l105 87q17 7 17 -9zM581 601q6 -5 -5.5 -14.5t-19.5 -6.5q-19 7 -46.5 33.5t-55.5 60.5q-48 56 -68 101q-3 8 9 19.5t17 4.5q11 -17 32.5 -45.5t43.5 -54.5q30 -35 53 -59q28 -30 40 -39z
" />
    <glyph glyph-name="acircumflex" unicode="&#xe2;" horiz-adv-x="568" 
d="M584 208q1 -11 -2 -21.5t-15 -18.5q-2 -2 -46 -40l-37 -30q-57 -45 -89 -65q-61 -39 -98 -39q-7 0 -19.5 3t-12.5 26q0 11 17 78q-2 5 -4 11q-13 -10 -58 -56q-67 -68 -118 -68q-20 0 -45.5 10t-45 53t-19.5 100q0 64 27 122q31 67 95 118q72 56 126 81q80 37 169 37
q31 0 71 -12.5t40 -28.5q0 -6 -7 -12q-3 -2 -7 -11t-9 -9q-4 0 -12 6q-12 10 -33 16t-43 6q-85 0 -185 -55q-106 -59 -158 -142q-25 -40 -25 -103q0 -36 9.5 -67t26.5 -46q11 -10 26 -10q44 0 122 87q52 59 126 165q67 97 71 100q3 3 13 3q12 0 21 -4.5t9 -14.5q0 -9 -4 -18
q-7 -13 -10 -19l-83 -168q-12 -25 -23 -56.5t-11 -47.5q0 -11 6 -16q16 -9 122 78l105 87q17 7 17 -9zM631 599l-2 -8q-14 -13 -24 -12q-17 3 -40 23q-12 10 -44 42q-9 9 -26 33q-13 18 -19 19q-3 0 -21 -12q-60 -40 -68 -45q-41 -24 -73 -40q-41 -20 -58 -23q-11 -2 -21 13
q-5 8 0 10q12 5 55 29l81 47q30 18 62 40q51 35 62 42l31 -46q11 -15 29.5 -37t42.5 -46t33 -29z" />
    <glyph glyph-name="adieresis" unicode="&#xe4;" horiz-adv-x="568" 
d="M584 208q1 -11 -2 -21.5t-15 -18.5q-2 -2 -46 -40l-37 -30q-57 -45 -89 -65q-61 -39 -98 -39q-7 0 -19.5 3t-12.5 26q0 11 17 78q-2 5 -4 11q-13 -10 -58 -56q-67 -68 -118 -68q-20 0 -45.5 10t-45 53t-19.5 100q0 64 27 122q31 67 95 118q72 56 126 81q80 37 169 37
q31 0 71 -12.5t40 -28.5q0 -6 -7 -12q-3 -2 -7 -11t-9 -9q-4 0 -12 6q-12 10 -33 16t-43 6q-85 0 -185 -55q-106 -59 -158 -142q-25 -40 -25 -103q0 -36 9.5 -67t26.5 -46q11 -10 26 -10q44 0 122 87q52 59 126 165q67 97 71 100q3 3 13 3q12 0 21 -4.5t9 -14.5q0 -9 -4 -18
q-7 -13 -10 -19l-83 -168q-12 -25 -23 -56.5t-11 -47.5q0 -11 6 -16q16 -9 122 78l105 87q17 7 17 -9zM574 615q-9 -15 -24 -25.5t-30 -10.5q-11 0 -19.5 8t-8.5 22q0 7 3.5 17.5t14 27t22.5 27.5t25 11q3 0 11 -2q18 -7 18 -32q0 -22 -12 -43zM427 615q-8 -15 -23 -25.5
t-30 -10.5q-11 0 -19 7q-11 10 -11 26q0 10 3.5 19.5t11.5 22.5q12 18 21 27q13 12 28 12q7 0 15 -3.5t12 -12t4 -20.5q0 -21 -12 -42z" />
    <glyph glyph-name="atilde" unicode="&#xe3;" horiz-adv-x="566" 
d="M584 208q1 -11 -2 -21.5t-15 -18.5q-2 -2 -46 -40l-37 -30q-57 -45 -89 -65q-61 -39 -98 -39q-7 0 -19.5 3t-12.5 26q0 11 17 78q-2 5 -4 11q-13 -10 -58 -56q-67 -68 -118 -68q-20 0 -45.5 10t-45 53t-19.5 100q0 64 27 122q31 67 95 118q72 56 126 81q80 37 169 37
q31 0 71 -12.5t40 -28.5q0 -6 -7 -12q-3 -2 -7 -11t-9 -9q-4 0 -12 6q-12 10 -33 16t-43 6q-85 0 -185 -55q-106 -59 -158 -142q-25 -40 -25 -103q0 -36 9.5 -67t26.5 -46q11 -10 26 -10q44 0 122 87q52 59 126 165q67 97 71 100q3 3 13 3q12 0 21 -4.5t9 -14.5q0 -9 -4 -18
q-7 -13 -10 -19l-83 -168q-12 -25 -23 -56.5t-11 -47.5q0 -11 6 -16q16 -9 122 78l105 87q17 7 17 -9zM599 651q-5 -20 -7 -29.5t-10 -14.5q-32 -16 -55 -22.5t-54 -6.5q-22 0 -54 20.5t-53 20.5q-42 0 -67 -14q-8 -5 -43 -30q-6 -6 -10 0t-2 16q1 7 4 15.5t10 14.5
q37 28 60 35.5t71 7.5q22 0 55 -20.5t55 -20.5t41 8q7 3 39 21q7 4 13 4q7 0 7 -5z" />
    <glyph glyph-name="aring" unicode="&#xe5;" horiz-adv-x="567" 
d="M520 675q-14 -43 -46 -76t-61 -33q-13 0 -24 8q-23 19 -23 54q0 16 2 26t8 29q14 44 44.5 77.5t62.5 33.5q11 0 22.5 -5.5t18 -20t6.5 -35.5q0 -23 -2 -31t-8 -27zM489 677q8 22 8 45q0 24 -12 27.5t-16 3.5q-19 0 -36 -22q-9 -11 -17 -26q-16 -29 -16 -62q0 -28 14 -34
q20 -7 43 15t32 53zM584 208q1 -11 -2 -21.5t-15 -18.5q-2 -2 -46 -40l-37 -30q-57 -45 -89 -65q-61 -39 -98 -39q-7 0 -19.5 3t-12.5 26q0 11 17 78q-2 5 -4 11q-13 -10 -58 -56q-67 -68 -118 -68q-20 0 -45.5 10t-45 53t-19.5 100q0 64 27 122q31 67 95 118q72 56 126 81
q80 37 169 37q31 0 71 -12.5t40 -28.5q0 -6 -7 -12q-3 -2 -7 -11t-9 -9q-4 0 -12 6q-12 10 -33 16t-43 6q-85 0 -185 -55q-106 -59 -158 -142q-25 -40 -25 -103q0 -36 9.5 -67t26.5 -46q11 -10 26 -10q44 0 122 87q52 59 126 165q67 97 71 100q3 3 13 3q12 0 21 -4.5
t9 -14.5q0 -9 -4 -18q-7 -13 -10 -19l-83 -168q-12 -25 -23 -56.5t-11 -47.5q0 -11 6 -16q16 -9 122 78l105 87q17 7 17 -9z" />
    <glyph glyph-name="ccedilla" unicode="&#xe7;" horiz-adv-x="424" 
d="M437 202q0 -12 -2 -19t-11 -14l-82 -79.5t-90 -61.5q-42 -19 -69.5 -26.5t-73.5 -7.5l-10 -28q0 -3 1 -6q9 1 18 1q11 0 18.5 -3t14.5 -15.5t7 -28.5q0 -32 -32 -62t-73 -30q-13 0 -24.5 7t-11.5 19v5q0 3 10 9t12 4q4 -7 9 -14q5 -4 19 -2q19 3 39 19q24 19 24 38
q0 28 -22 28q-12 0 -27 -8q-7 -6 -11 -9q-7 -5 -11 -5q-9 0 -9 15q1 4 6.5 9.5l6.5 6.5q3 6 6 14q8 22 12 39q-28 0 -56 42q-33 49 -33 112q0 43 16 88.5t53 93.5q60 79 120 120q70 48 145 48q22 0 49 -5.5t27 -58.5q0 -65 -43 -134q-5 -12 -32 -12q-18 0 -16 12
q23 43 32.5 73t9.5 51q0 29 -11.5 30.5t-23.5 1.5q-59 0 -122 -55l-67 -63q-34 -32 -59.5 -87.5t-25.5 -107.5q0 -32 12.5 -58t39.5 -42q16 -10 39 -10q63 0 167 74q83 59 122 107q7 5 10.5 -1.5t2.5 -13.5z" />
    <glyph glyph-name="eacute" unicode="&#xe9;" horiz-adv-x="448" 
d="M462 206q0 -16 -1.5 -24.5t-10.5 -13.5q-7 -13 -58 -54q-60 -49 -125 -84q-83 -45 -139 -45q-18 0 -36 5q-48 16 -71 47q-27 37 -27 107v20t3.5 44.5t36.5 88.5q40 65 129 136q33 26 86.5 45t94.5 19q48 0 61 -25t13 -52q0 -47 -33 -97.5t-80 -86.5t-103 -46
q-37 -7 -115 -7h-35l-3 -44q0 -50 26 -76t64 -26q64 0 174 69q99 62 137 111q12 5 12 -11zM360 436q-8 15 -34 15q-29 0 -68.5 -18.5t-65.5 -41.5q-52 -48 -75 -75q-47 -55 -47 -91h58q34 0 76 15q49 18 83.5 49t53.5 58q25 35 25 64q0 13 -6 25zM506 768q-14 -21 -55 -53
q-33 -26 -81.5 -56t-100 -56t-75.5 -30q-6 -1 -12 7t-6 16t5 9q15 6 67 37l98 60q24 15 65 44q71 51 87 56q6 2 9 -4t3 -15q0 -10 -4 -15z" />
    <glyph glyph-name="egrave" unicode="&#xe8;" horiz-adv-x="448" 
d="M462 206q0 -16 -1.5 -24.5t-10.5 -13.5q-7 -13 -58 -54q-60 -49 -125 -84q-83 -45 -139 -45q-18 0 -36 5q-48 16 -71 47q-27 37 -27 107v20t3.5 44.5t36.5 88.5q40 65 129 136q33 26 86.5 45t94.5 19q48 0 61 -25t13 -52q0 -47 -33 -97.5t-80 -86.5t-103 -46
q-37 -7 -115 -7h-35l-3 -44q0 -50 26 -76t64 -26q64 0 174 69q99 62 137 111q12 5 12 -11zM360 436q-8 15 -34 15q-29 0 -68.5 -18.5t-65.5 -41.5q-52 -48 -75 -75q-47 -55 -47 -91h58q34 0 76 15q49 18 83.5 49t53.5 58q25 35 25 64q0 13 -6 25zM452 600q6 -5 -5.5 -14.5
t-19.5 -6.5q-19 7 -46.5 33.5t-55.5 60.5q-48 56 -68 101q-3 8 9 19.5t17 4.5q11 -17 32.5 -45.5t43.5 -54.5q30 -35 53 -59q28 -30 40 -39z" />
    <glyph glyph-name="ecircumflex" unicode="&#xea;" horiz-adv-x="448" 
d="M462 206q0 -16 -1.5 -24.5t-10.5 -13.5q-7 -13 -58 -54q-60 -49 -125 -84q-83 -45 -139 -45q-18 0 -36 5q-48 16 -71 47q-27 37 -27 107v20t3.5 44.5t36.5 88.5q40 65 129 136q33 26 86.5 45t94.5 19q48 0 61 -25t13 -52q0 -47 -33 -97.5t-80 -86.5t-103 -46
q-37 -7 -115 -7h-35l-3 -44q0 -50 26 -76t64 -26q64 0 174 69q99 62 137 111q12 5 12 -11zM360 436q-8 15 -34 15q-29 0 -68.5 -18.5t-65.5 -41.5q-52 -48 -75 -75q-47 -55 -47 -91h58q34 0 76 15q49 18 83.5 49t53.5 58q25 35 25 64q0 13 -6 25zM511 599l-2 -8
q-14 -13 -24 -12q-17 3 -40 23q-12 10 -44 42q-9 9 -26 33q-13 18 -19 19q-3 0 -21 -12q-60 -40 -68 -45q-41 -24 -73 -40q-41 -20 -58 -23q-11 -2 -21 13q-5 8 0 10q12 5 55 29l81 47q30 18 62 40q51 35 62 42l31 -46q11 -15 29.5 -37t42.5 -46t33 -29z" />
    <glyph glyph-name="edieresis" unicode="&#xeb;" horiz-adv-x="448" 
d="M462 206q0 -16 -1.5 -24.5t-10.5 -13.5q-7 -13 -58 -54q-60 -49 -125 -84q-83 -45 -139 -45q-18 0 -36 5q-48 16 -71 47q-27 37 -27 107v20t3.5 44.5t36.5 88.5q40 65 129 136q33 26 86.5 45t94.5 19q48 0 61 -25t13 -52q0 -47 -33 -97.5t-80 -86.5t-103 -46
q-37 -7 -115 -7h-35l-3 -44q0 -50 26 -76t64 -26q64 0 174 69q99 62 137 111q12 5 12 -11zM360 436q-8 15 -34 15q-29 0 -68.5 -18.5t-65.5 -41.5q-52 -48 -75 -75q-47 -55 -47 -91h58q34 0 76 15q49 18 83.5 49t53.5 58q25 35 25 64q0 13 -6 25zM467 615q-9 -15 -24 -25.5
t-30 -10.5q-11 0 -19.5 8t-8.5 22q0 7 3.5 17.5t14 27t22.5 27.5t25 11q3 0 11 -2q18 -7 18 -32q0 -22 -12 -43zM320 615q-8 -15 -23 -25.5t-30 -10.5q-11 0 -19 7q-11 10 -11 26q0 10 3.5 19.5t11.5 22.5q12 18 21 27q13 12 28 12q7 0 15 -3.5t12 -12t4 -20.5
q0 -21 -12 -42z" />
    <glyph glyph-name="iacute" unicode="&#xed;" horiz-adv-x="305" 
d="M317 202q0 -26 -10 -34l-39.5 -34t-30.5 -25q-114 -87 -174 -110q-20 -7 -34 -7t-20.5 8.5t-6.5 22.5t4.5 29.5t10.5 28.5l42 95q8 17 8 27q0 7 -6 7q-4 0 -12 -5t-10 -6q-17 -12 -26.5 -20.5t-12.5 -10.5q-11 -2 -11 15q0 13 3 21t8 13q16 13 40 37l29 29q45 45 67 79.5
t51 106.5q9 23 32 23q28 0 28 -14q0 -4 -6 -16l-102 -227t-62 -147.5t-1 -10.5v-5q0 -14 11 -14q7 0 20 7q5 3 22 14q40 27 100 74q48 38 78 64q12 0 10 -15zM409 769q-14 -21 -55 -53q-33 -26 -81.5 -56t-100 -56t-75.5 -30q-6 -1 -12 7t-6 16t5 9q15 6 67 37l98 60
q24 15 65 44q71 51 87 56q6 2 9 -4t3 -15q0 -10 -4 -15z" />
    <glyph glyph-name="igrave" unicode="&#xec;" horiz-adv-x="306" 
d="M317 202q0 -26 -10 -34l-39.5 -34t-30.5 -25q-114 -87 -174 -110q-20 -7 -34 -7t-20.5 8.5t-6.5 22.5t4.5 29.5t10.5 28.5l42 95q8 17 8 27q0 7 -6 7q-4 0 -12 -5t-10 -6q-17 -12 -26.5 -20.5t-12.5 -10.5q-11 -2 -11 15q0 13 3 21t8 13q16 13 40 37l29 29q45 45 67 79.5
t51 106.5q9 23 32 23q28 0 28 -14q0 -4 -6 -16l-102 -227t-62 -147.5t-1 -10.5v-5q0 -14 11 -14q7 0 20 7q5 3 22 14q40 27 100 74q48 38 78 64q12 0 10 -15zM327 601q6 -5 -5.5 -14.5t-19.5 -6.5q-19 7 -46.5 33.5t-55.5 60.5q-48 56 -68 101q-3 8 9 19.5t17 4.5
q11 -17 32.5 -45.5t43.5 -54.5q30 -35 53 -59q28 -30 40 -39z" />
    <glyph glyph-name="icircumflex" unicode="&#xee;" horiz-adv-x="306" 
d="M317 202q0 -26 -10 -34l-39.5 -34t-30.5 -25q-114 -87 -174 -110q-20 -7 -34 -7t-20.5 8.5t-6.5 22.5t4.5 29.5t10.5 28.5l42 95q8 17 8 27q0 7 -6 7q-4 0 -12 -5t-10 -6q-17 -12 -26.5 -20.5t-12.5 -10.5q-11 -2 -11 15q0 13 3 21t8 13q16 13 40 37l29 29q45 45 67 79.5
t51 106.5q9 23 32 23q28 0 28 -14q0 -4 -6 -16l-102 -227t-62 -147.5t-1 -10.5v-5q0 -14 11 -14q7 0 20 7q5 3 22 14q40 27 100 74q48 38 78 64q12 0 10 -15zM409 600l-2 -8q-14 -13 -24 -12q-17 3 -40 23q-12 10 -44 42q-9 9 -26 33q-13 18 -19 19q-3 0 -21 -12
q-60 -40 -68 -45q-41 -24 -73 -40q-41 -20 -58 -23q-11 -2 -21 13q-5 8 0 10q12 5 55 29l81 47q30 18 62 40q51 35 62 42l31 -46q11 -15 29.5 -37t42.5 -46t33 -29z" />
    <glyph glyph-name="idieresis" unicode="&#xef;" horiz-adv-x="306" 
d="M317 202q0 -26 -10 -34l-39.5 -34t-30.5 -25q-114 -87 -174 -110q-20 -7 -34 -7t-20.5 8.5t-6.5 22.5t4.5 29.5t10.5 28.5l42 95q8 17 8 27q0 7 -6 7q-4 0 -12 -5t-10 -6q-17 -12 -26.5 -20.5t-12.5 -10.5q-11 -2 -11 15q0 13 3 21t8 13q16 13 40 37l29 29q45 45 67 79.5
t51 106.5q9 23 32 23q28 0 28 -14q0 -4 -6 -16l-102 -227t-62 -147.5t-1 -10.5v-5q0 -14 11 -14q7 0 20 7q5 3 22 14q40 27 100 74q48 38 78 64q12 0 10 -15zM358 614q-9 -15 -24 -25.5t-30 -10.5q-11 0 -19.5 8t-8.5 22q0 7 3.5 17.5t14 27t22.5 27.5t25 11q3 0 11 -2
q18 -7 18 -32q0 -22 -12 -43zM211 614q-8 -15 -23 -25.5t-30 -10.5q-11 0 -19 7q-11 10 -11 26q0 10 3.5 19.5t11.5 22.5q12 18 21 27q13 12 28 12q7 0 15 -3.5t12 -12t4 -20.5q0 -21 -12 -42z" />
    <glyph glyph-name="ntilde" unicode="&#xf1;" horiz-adv-x="628" 
d="M639 204q0 -25 -12 -36q-51 -46 -107 -88q-113 -85 -161 -85q-12 0 -20 6q-12 9 -12 30q0 16 7 38q4 12 15 39l122 267q9 20 9 28q0 5 -3 8q-7 9 -71 -47q-69 -60 -175 -166q-77 -77 -148 -158q-24 -28 -33 -35q-17 -14 -31 -14q-20 0 -20 27q0 15 7 30q12 30 24 54
q28 55 33.5 72t5.5 23q0 9 -7 9q-10 0 -37 -20q-12 -9 -25 -20q-14 -1 -12 16q0 20 12 35q65 57 93 85q49 48 67 97l17 47t20 39q7 10 24 10t24 -10q4 -6 1 -14q-71 -153 -103 -230.5t-25 -84.5q10 -10 67 54q83 93 107 114l107 96q50 41 118 83q11 6 20 6q13 0 19.5 -11
t6.5 -25q0 -9 -2 -12l-35 -79l-124 -285q-5 -8 -5 -20t7 -16q13 -9 114 68q80 61 109 88q6 3 9 0t3 -13zM595 657q-5 -20 -7 -29.5t-10 -14.5q-32 -16 -55 -22.5t-54 -6.5q-22 0 -54 20.5t-53 20.5q-42 0 -67 -14q-8 -5 -43 -30q-6 -6 -10 0t-2 16q1 7 4 15.5t10 14.5
q37 28 60 35.5t71 7.5q22 0 55 -20.5t55 -20.5t41 8q7 3 39 21q7 4 13 4q7 0 7 -5z" />
    <glyph glyph-name="oacute" unicode="&#xf3;" 
d="M504 203q0 -22 -10 -35q-40 -39 -66.5 -52.5t-60.5 -18.5q-9 -1 -26.5 4.5t-22.5 5.5q-10 0 -15 -8q-21 -31 -71 -68q-67 -49 -121 -49q-24 0 -44 10q-39 19 -59 71q-16 42 -16 92q0 23 3 38q0 32 34 103q29 60 70 103.5t98.5 77.5t92.5 34q18 0 25 -10q4 -5 4 -14
q0 -22 -16 -25q-57 -15 -105 -44.5t-83 -74.5q-31 -40 -49 -93t-18 -102q0 -81 45 -114q10 -7 25 -7q30 0 70 25t65 53q13 13 13 27q-8 26 -14.5 50.5t-6.5 53.5v17t2 21q7 55 38 103q37 57 84 57q5 0 18.5 -3t20 -18.5t6.5 -40.5q0 -23 -2 -37t-7.5 -43t-27 -70.5
t-21.5 -60.5q0 -9 2.5 -16t13.5 -7q21 0 63 29q35 24 59 50q7 1 9 -2q1 -2 1 -12zM360 286q7 18 10.5 34.5t3.5 33.5q0 28 -17 28q-19 0 -35 -27q-12 -20 -21.5 -50.5t-9.5 -65.5q0 -24 3.5 -38t11.5 -17q16 -7 35 46q9 28 19 56zM549 761q-14 -21 -55 -53
q-33 -26 -81.5 -56t-100 -56t-75.5 -30q-6 -1 -12 7t-6 16t5 9q15 6 67 37l98 60q24 15 65 44q71 51 87 56q6 2 9 -4t3 -15q0 -10 -4 -15z" />
    <glyph glyph-name="ograve" unicode="&#xf2;" 
d="M504 203q0 -22 -10 -35q-40 -39 -66.5 -52.5t-60.5 -18.5q-9 -1 -26.5 4.5t-22.5 5.5q-10 0 -15 -8q-21 -31 -71 -68q-67 -49 -121 -49q-24 0 -44 10q-39 19 -59 71q-16 42 -16 92q0 23 3 38q0 32 34 103q29 60 70 103.5t98.5 77.5t92.5 34q18 0 25 -10q4 -5 4 -14
q0 -22 -16 -25q-57 -15 -105 -44.5t-83 -74.5q-31 -40 -49 -93t-18 -102q0 -81 45 -114q10 -7 25 -7q30 0 70 25t65 53q13 13 13 27q-8 26 -14.5 50.5t-6.5 53.5v17t2 21q7 55 38 103q37 57 84 57q5 0 18.5 -3t20 -18.5t6.5 -40.5q0 -23 -2 -37t-7.5 -43t-27 -70.5
t-21.5 -60.5q0 -9 2.5 -16t13.5 -7q21 0 63 29q35 24 59 50q7 1 9 -2q1 -2 1 -12zM360 286q7 18 10.5 34.5t3.5 33.5q0 28 -17 28q-19 0 -35 -27q-12 -20 -21.5 -50.5t-9.5 -65.5q0 -24 3.5 -38t11.5 -17q16 -7 35 46q9 28 19 56zM485 600q6 -5 -5.5 -14.5t-19.5 -6.5
q-19 7 -46.5 33.5t-55.5 60.5q-48 56 -68 101q-3 8 9 19.5t17 4.5q11 -17 32.5 -45.5t43.5 -54.5q30 -35 53 -59q28 -30 40 -39z" />
    <glyph glyph-name="ocircumflex" unicode="&#xf4;" 
d="M504 203q0 -22 -10 -35q-40 -39 -66.5 -52.5t-60.5 -18.5q-9 -1 -26.5 4.5t-22.5 5.5q-10 0 -15 -8q-21 -31 -71 -68q-67 -49 -121 -49q-24 0 -44 10q-39 19 -59 71q-16 42 -16 92q0 23 3 38q0 32 34 103q29 60 70 103.5t98.5 77.5t92.5 34q18 0 25 -10q4 -5 4 -14
q0 -22 -16 -25q-57 -15 -105 -44.5t-83 -74.5q-31 -40 -49 -93t-18 -102q0 -81 45 -114q10 -7 25 -7q30 0 70 25t65 53q13 13 13 27q-8 26 -14.5 50.5t-6.5 53.5v17t2 21q7 55 38 103q37 57 84 57q5 0 18.5 -3t20 -18.5t6.5 -40.5q0 -23 -2 -37t-7.5 -43t-27 -70.5
t-21.5 -60.5q0 -9 2.5 -16t13.5 -7q21 0 63 29q35 24 59 50q7 1 9 -2q1 -2 1 -12zM360 286q7 18 10.5 34.5t3.5 33.5q0 28 -17 28q-19 0 -35 -27q-12 -20 -21.5 -50.5t-9.5 -65.5q0 -24 3.5 -38t11.5 -17q16 -7 35 46q9 28 19 56zM536 599l-2 -8q-14 -13 -24 -12
q-17 3 -40 23q-12 10 -44 42q-9 9 -26 33q-13 18 -19 19q-3 0 -21 -12q-60 -40 -68 -45q-41 -24 -73 -40q-41 -20 -58 -23q-11 -2 -21 13q-5 8 0 10q12 5 55 29l81 47q30 18 62 40q51 35 62 42l31 -46q11 -15 29.5 -37t42.5 -46t33 -29z" />
    <glyph glyph-name="odieresis" unicode="&#xf6;" 
d="M504 203q0 -22 -10 -35q-40 -39 -66.5 -52.5t-60.5 -18.5q-9 -1 -26.5 4.5t-22.5 5.5q-10 0 -15 -8q-21 -31 -71 -68q-67 -49 -121 -49q-24 0 -44 10q-39 19 -59 71q-16 42 -16 92q0 23 3 38q0 32 34 103q29 60 70 103.5t98.5 77.5t92.5 34q18 0 25 -10q4 -5 4 -14
q0 -22 -16 -25q-57 -15 -105 -44.5t-83 -74.5q-31 -40 -49 -93t-18 -102q0 -81 45 -114q10 -7 25 -7q30 0 70 25t65 53q13 13 13 27q-8 26 -14.5 50.5t-6.5 53.5v17t2 21q7 55 38 103q37 57 84 57q5 0 18.5 -3t20 -18.5t6.5 -40.5q0 -23 -2 -37t-7.5 -43t-27 -70.5
t-21.5 -60.5q0 -9 2.5 -16t13.5 -7q21 0 63 29q35 24 59 50q7 1 9 -2q1 -2 1 -12zM360 286q7 18 10.5 34.5t3.5 33.5q0 28 -17 28q-19 0 -35 -27q-12 -20 -21.5 -50.5t-9.5 -65.5q0 -24 3.5 -38t11.5 -17q16 -7 35 46q9 28 19 56zM496 608q-9 -15 -24 -25.5t-30 -10.5
q-11 0 -19.5 8t-8.5 22q0 7 3.5 17.5t14 27t22.5 27.5t25 11q3 0 11 -2q18 -7 18 -32q0 -22 -12 -43zM349 608q-8 -15 -23 -25.5t-30 -10.5q-11 0 -19 7q-11 10 -11 26q0 10 3.5 19.5t11.5 22.5q12 18 21 27q13 12 28 12q7 0 15 -3.5t12 -12t4 -20.5q0 -21 -12 -42z" />
    <glyph glyph-name="otilde" unicode="&#xf5;" 
d="M504 203q0 -22 -10 -35q-40 -39 -66.5 -52.5t-60.5 -18.5q-9 -1 -26.5 4.5t-22.5 5.5q-10 0 -15 -8q-21 -31 -71 -68q-67 -49 -121 -49q-24 0 -44 10q-39 19 -59 71q-16 42 -16 92q0 23 3 38q0 32 34 103q29 60 70 103.5t98.5 77.5t92.5 34q18 0 25 -10q4 -5 4 -14
q0 -22 -16 -25q-57 -15 -105 -44.5t-83 -74.5q-31 -40 -49 -93t-18 -102q0 -81 45 -114q10 -7 25 -7q30 0 70 25t65 53q13 13 13 27q-8 26 -14.5 50.5t-6.5 53.5v17t2 21q7 55 38 103q37 57 84 57q5 0 18.5 -3t20 -18.5t6.5 -40.5q0 -23 -2 -37t-7.5 -43t-27 -70.5
t-21.5 -60.5q0 -9 2.5 -16t13.5 -7q21 0 63 29q35 24 59 50q7 1 9 -2q1 -2 1 -12zM360 286q7 18 10.5 34.5t3.5 33.5q0 28 -17 28q-19 0 -35 -27q-12 -20 -21.5 -50.5t-9.5 -65.5q0 -24 3.5 -38t11.5 -17q16 -7 35 46q9 28 19 56zM519 650q-5 -20 -7 -29.5t-10 -14.5
q-32 -16 -55 -22.5t-54 -6.5q-22 0 -54 20.5t-53 20.5q-42 0 -67 -14q-8 -5 -43 -30q-6 -6 -10 0t-2 16q1 7 4 15.5t10 14.5q37 28 60 35.5t71 7.5q22 0 55 -20.5t55 -20.5t41 8q7 3 39 21q7 4 13 4q7 0 7 -5z" />
    <glyph glyph-name="uacute" unicode="&#xfa;" horiz-adv-x="623" 
d="M632 202q1 -13 -0.5 -22t-8.5 -12q-49 -46 -108.5 -90t-105.5 -66q-30 -15 -52 -15q-19 0 -27.5 10.5t-8.5 28.5t8 32l59 119q6 12 37 79q6 14 6 22q0 13 -11 13q-13 0 -27 -17q-64 -77 -160 -157q-56 -47 -144 -109q-30 -22 -52 -22q-16 0 -24.5 11.5t-8.5 27.5
q0 9 4.5 22.5t30.5 63t36 75.5q2 4 2 12q0 12 -9 12q-7 0 -16.5 -9.5l-21 -20.5t-30.5 -22q-13 -3 -11 14v15q2 13 11 20q54 42 61 48q26 23 52.5 55.5t35.5 47.5q14 21 20 36l27 64q17 33 39 28q20 -4 20 -18q0 -6 -6 -18l-83 -176q-52 -112 -71 -166q-5 -14 -5 -24
q0 -13 10 -13q5 0 11 3t10 6q88 71 206 186q131 128 186 206q11 16 29 16q11 0 18.5 -6.5t7.5 -16.5q0 -5 -3 -11l-89 -187q-37 -81 -79 -183q-4 -11 -4 -19q0 -13 14 -13q9 0 20 6q28 17 64 44q6 4 132 105q9 0 9 -5v-10zM633 774q-14 -21 -55 -53q-33 -26 -81.5 -56
t-100 -56t-75.5 -30q-6 -1 -12 7t-6 16t5 9q15 6 67 37l98 60q24 15 65 44q71 51 87 56q6 2 9 -4t3 -15q0 -10 -4 -15z" />
    <glyph glyph-name="ugrave" unicode="&#xf9;" horiz-adv-x="623" 
d="M632 202q1 -13 -0.5 -22t-8.5 -12q-49 -46 -108.5 -90t-105.5 -66q-30 -15 -52 -15q-19 0 -27.5 10.5t-8.5 28.5t8 32l59 119q6 12 37 79q6 14 6 22q0 13 -11 13q-13 0 -27 -17q-64 -77 -160 -157q-56 -47 -144 -109q-30 -22 -52 -22q-16 0 -24.5 11.5t-8.5 27.5
q0 9 4.5 22.5t30.5 63t36 75.5q2 4 2 12q0 12 -9 12q-7 0 -16.5 -9.5l-21 -20.5t-30.5 -22q-13 -3 -11 14v15q2 13 11 20q54 42 61 48q26 23 52.5 55.5t35.5 47.5q14 21 20 36l27 64q17 33 39 28q20 -4 20 -18q0 -6 -6 -18l-83 -176q-52 -112 -71 -166q-5 -14 -5 -24
q0 -13 10 -13q5 0 11 3t10 6q88 71 206 186q131 128 186 206q11 16 29 16q11 0 18.5 -6.5t7.5 -16.5q0 -5 -3 -11l-89 -187q-37 -81 -79 -183q-4 -11 -4 -19q0 -13 14 -13q9 0 20 6q28 17 64 44q6 4 132 105q9 0 9 -5v-10zM551 601q6 -5 -5.5 -14.5t-19.5 -6.5
q-19 7 -46.5 33.5t-55.5 60.5q-48 56 -68 101q-3 8 9 19.5t17 4.5q11 -17 32.5 -45.5t43.5 -54.5q30 -35 53 -59q28 -30 40 -39z" />
    <glyph glyph-name="ucircumflex" unicode="&#xfb;" horiz-adv-x="623" 
d="M632 202q1 -13 -0.5 -22t-8.5 -12q-49 -46 -108.5 -90t-105.5 -66q-30 -15 -52 -15q-19 0 -27.5 10.5t-8.5 28.5t8 32l59 119q6 12 37 79q6 14 6 22q0 13 -11 13q-13 0 -27 -17q-64 -77 -160 -157q-56 -47 -144 -109q-30 -22 -52 -22q-16 0 -24.5 11.5t-8.5 27.5
q0 9 4.5 22.5t30.5 63t36 75.5q2 4 2 12q0 12 -9 12q-7 0 -16.5 -9.5l-21 -20.5t-30.5 -22q-13 -3 -11 14v15q2 13 11 20q54 42 61 48q26 23 52.5 55.5t35.5 47.5q14 21 20 36l27 64q17 33 39 28q20 -4 20 -18q0 -6 -6 -18l-83 -176q-52 -112 -71 -166q-5 -14 -5 -24
q0 -13 10 -13q5 0 11 3t10 6q88 71 206 186q131 128 186 206q11 16 29 16q11 0 18.5 -6.5t7.5 -16.5q0 -5 -3 -11l-89 -187q-37 -81 -79 -183q-4 -11 -4 -19q0 -13 14 -13q9 0 20 6q28 17 64 44q6 4 132 105q9 0 9 -5v-10zM627 600l-2 -8q-14 -13 -24 -12q-17 3 -40 23
q-12 10 -44 42q-9 9 -26 33q-13 18 -19 19q-3 0 -21 -12q-60 -40 -68 -45q-41 -24 -73 -40q-41 -20 -58 -23q-11 -2 -21 13q-5 8 0 10q12 5 55 29l81 47q30 18 62 40q51 35 62 42l31 -46q11 -15 29.5 -37t42.5 -46t33 -29z" />
    <glyph glyph-name="udieresis" unicode="&#xfc;" horiz-adv-x="622" 
d="M632 202q1 -13 -0.5 -22t-8.5 -12q-49 -46 -108.5 -90t-105.5 -66q-30 -15 -52 -15q-19 0 -27.5 10.5t-8.5 28.5t8 32l59 119q6 12 37 79q6 14 6 22q0 13 -11 13q-13 0 -27 -17q-64 -77 -160 -157q-56 -47 -144 -109q-30 -22 -52 -22q-16 0 -24.5 11.5t-8.5 27.5
q0 9 4.5 22.5t30.5 63t36 75.5q2 4 2 12q0 12 -9 12q-7 0 -16.5 -9.5l-21 -20.5t-30.5 -22q-13 -3 -11 14v15q2 13 11 20q54 42 61 48q26 23 52.5 55.5t35.5 47.5q14 21 20 36l27 64q17 33 39 28q20 -4 20 -18q0 -6 -6 -18l-83 -176q-52 -112 -71 -166q-5 -14 -5 -24
q0 -13 10 -13q5 0 11 3t10 6q88 71 206 186q131 128 186 206q11 16 29 16q11 0 18.5 -6.5t7.5 -16.5q0 -5 -3 -11l-89 -187q-37 -81 -79 -183q-4 -11 -4 -19q0 -13 14 -13q9 0 20 6q28 17 64 44q6 4 132 105q9 0 9 -5v-10zM547 615q-9 -15 -24 -25.5t-30 -10.5
q-11 0 -19.5 8t-8.5 22q0 7 3.5 17.5t14 27t22.5 27.5t25 11q3 0 11 -2q18 -7 18 -32q0 -22 -12 -43zM400 615q-8 -15 -23 -25.5t-30 -10.5q-11 0 -19 7q-11 10 -11 26q0 10 3.5 19.5t11.5 22.5q12 18 21 27q13 12 28 12q7 0 15 -3.5t12 -12t4 -20.5q0 -21 -12 -42z" />
    <glyph glyph-name="dagger" unicode="&#x2020;" horiz-adv-x="825" 
d="M896 673l-32 -84h-300l-331 -867h-78l331 867h-293l31 84h294l115 301h80l-115 -301h298z" />
    <glyph glyph-name="degree" unicode="&#xb0;" horiz-adv-x="384" 
d="M480 772q-19 -59 -65.5 -107t-87.5 -48q-20 0 -35.5 12t-23 31.5t-7.5 43.5q0 17 4 37.5t10 42.5q18 61 62.5 109.5t89.5 48.5q13 0 31 -7.5t27.5 -28t9.5 -50.5q0 -21 -4 -42t-11 -42zM443 775q5 16 9 35.5t4 35.5q0 19 -5.5 30.5t-18 15t-20.5 3.5q-26 0 -49 -24
q-15 -16 -36 -53q-26 -46 -26 -98q0 -44 23 -53q5 -2 15 -2q30 0 60.5 33.5t43.5 76.5z" />
    <glyph glyph-name="cent" unicode="&#xa2;" horiz-adv-x="569" 
d="M572 466q11 3 11 -10q0 -8 -5.5 -21.5t-8.5 -18.5q-12 -16 -57 -51q-38 -29 -72.5 -51.5t-59 -33t-59.5 -14.5q-8 0 -17 -25l-14 -47l-63 -192q-4 -13 -13.5 -22.5t-21.5 -7.5q-12 3 -12 18q0 7 2.5 17t6.5 21l66 186q8 20 8 28q0 15 -47.5 31.5t-59.5 87.5q-3 23 -3 43
q0 129 113 248q100 105 172 105q11 0 15 16q1 8 3 17l66 195q4 12 12.5 22t17.5 5q7 -4 7 -15q0 -8 -4 -20l-63 -177q-1 -5 -2 -9q-4 -13 -4 -16q0 -9 8 -12q33 -13 45 -20q18 -11 24 -28q2 -5 2 -15q0 -9 -3 -19q-1 -3 -7 -19l-33 -79q-10 -25 -30 -25q-4 0 -10.5 5
t-6.5 14q0 5 3 12.5t4 11.5l27 61q9 21 9 34q0 19 -29 25q-17 3 -23.5 -7.5t-18.5 -45.5l-102 -301l-7.5 -25.5t-2.5 -12.5q0 -6 10 -15q9 -7 35 7q5 3 91 62q20 14 46 37q50 45 55 46zM413 655q7 21 7 32q0 14 -13 14q-41 0 -116 -96q-85 -108 -85 -207q0 -47 22 -73
q14 -17 30 -20q12 -7 23 -4q10 2 12.5 13.5t5.5 23.5z" />
    <glyph glyph-name="sterling" unicode="&#xa3;" horiz-adv-x="771" 
d="M788 984q30 -15 30 -70q0 -66 -46 -184t-131 -265q-9 -15 -16.5 -19.5t-35.5 -9.5q-6 -1 -14 -1q-11 0 -11 7q0 8 16 30q45 66 70 109q50 84 76 157q16 47 25 77q18 61 18 90q0 12 -2 20.5t-11.5 13t-14.5 4.5q-31 0 -71 -63q-22 -34 -60.5 -117.5t-73.5 -175.5
q-67 -179 -79 -204l136 1q15 0 18 -1q7 -2 7 -12q0 -6 -3 -15q-6 -17 -10 -21q-6 -5 -20 -5h-150l-35 -75h130q15 0 18 -1q7 -2 7 -12q0 -6 -4 -19t-9.5 -17.5t-19.5 -4.5h-142q-28 -47 -78 -100q-7 -8 -15 -16q-13 -13 -13 -17q0 -6 33 -12t89 -6q54 0 114.5 6t102.5 15
q10 2 11 2q12 0 12 -13q-2 -14 -2 -20q0 -12 -11.5 -18.5t-26.5 -9.5q-83 -10 -176 -10q-124 0 -207 24l-67 -18t-58 -9q-8 1 -12 1q-51 5 -53 5q-28 8 -28 33q0 38 45 49q24 6 90 6q13 0 25 -3q37 -9 38 -9q11 0 21 7q41 30 63 59q22 33 37 53h-131q-23 0 -23 13q0 6 3 13
l7.5 18t22.5 11h149l39 74h-135q-23 0 -23 14q0 5 3 12l7.5 18t22.5 11l149 -1q16 39 38.5 102l39.5 108q27 72 66 164q26 62 48 101q33 60 67 94q42 42 84 42q20 0 40 -10z" />
    <glyph glyph-name="section" unicode="&#xa7;" horiz-adv-x="813" 
d="M830 742h-78q22 47 22 82q0 51 -43 78q-30 18 -75 18q-56 0 -110 -26.5t-84 -74.5q-24 -40 -24 -77q0 -29 14.5 -53.5t40.5 -45.5l156 -126q46 -37 67 -67q28 -40 28 -85q0 -33 -14 -68q-26 -62 -70.5 -106.5t-115.5 -82.5l-52 -28q35 -38 35 -86q0 -31 -14 -73
q-33 -93 -126 -153.5t-200 -60.5q-85 0 -131.5 43.5t-46.5 114.5q0 47 23 104h85q-24 -47 -24 -84q0 -30 15.5 -52t45.5 -34.5t67 -12.5q46 0 88 18t73 55q21 26 33.5 56.5t12.5 56.5q0 51 -36 83l-213 189q-51 46 -51 107q0 33 17 78q25 63 69 107t113 78l42 21
q-26 37 -26 77q0 33 19 82q36 90 128 147t188 57q85 0 130.5 -40.5t45.5 -110.5q0 -48 -24 -105zM644 281q10 27 10 50q0 42 -36 73l-219 185l-35 -16q-52 -24 -83 -52q-35 -32 -53 -76q-12 -30 -12 -53q0 -25 10 -43.5t32 -38.5l206 -182l42 21q53 27 84 55q38 34 54 77z
" />
    <glyph glyph-name="bullet" unicode="&#x2022;" horiz-adv-x="295" 
d="M167 186q-12 -20 -31 -33t-38 -13q-13 0 -26 11t-13 30q0 12 5 24.5t16.5 33t28 35t34.5 14.5q8 0 18.5 -5t16 -15.5t5.5 -26.5q0 -29 -16 -55z" />
    <glyph glyph-name="paragraph" unicode="&#xb6;" horiz-adv-x="832" 
d="M971 977l-479 -1255h-91l442 1160h-169l-444 -1161l-92 -3l274 719q-85 0 -134.5 48.5t-49.5 126.5q0 44 18 92q42 113 151.5 192.5t227.5 79.5z" />
    <glyph glyph-name="germandbls" unicode="&#xdf;" horiz-adv-x="772" 
d="M704 744q0 -114 -58 -200t-161 -112q-30 -7 -30 -30q0 -30 42 -41q70 -19 110 -54q48 -43 48 -105q0 -91 -76 -148q-62 -46 -159 -46t-170 34t-73 83q0 53 47.5 84t115.5 31q22 0 37.5 1l30.5 2q24 0 48 -5q5 -1 46 -13q23 -6 23 -12q0 -5 -9 -20q-5 -9 -9.5 -16t-9.5 -7
q-4 0 -15 3q-37 10 -60.5 14t-65.5 4q-69 0 -97.5 -13t-28.5 -41q0 -38 66 -62q59 -21 134 -21q73 0 124 57q43 48 43 90q0 64 -53 93l-117 54q-29 18 -29 54q0 19 8.5 32t28.5 21q111 44 160 106q56 72 56 196q0 73 -19 116q-25 58 -83 58q-50 0 -93 -43q-34 -34 -69 -103
q-10 -19 -58 -126q-20 -45 -44.5 -108.5l-47.5 -123.5q-28 -73 -55 -135l-213 -492q-7 -14 -47 -14q-10 0 -18.5 3.5t-6.5 10.5q22 38 35 65l31 68q7 17 80 182l72 165l58 135l74 177q41 107 42 109q51 118 104 189q76 101 149 101q9 0 14 -1q84 -10 120 -87q28 -59 28 -159
z" />
    <glyph glyph-name="registered" unicode="&#xae;" horiz-adv-x="1163" 
d="M847 976q170 0 259 -87q81 -79 81 -212q0 -147 -93 -303q-97 -163 -251 -263q-171 -111 -368 -111q-171 0 -259 86q-81 79 -81 212q0 147 93 303q97 163 251 263q172 112 368 112zM827 924q-174 0 -328 -100q-138 -90 -223 -232.5t-85 -273.5q0 -119 71 -189
q79 -77 232 -77q174 0 328 100q140 91 224 232.5t84 273.5q0 118 -71 188q-80 78 -232 78zM944 621q-17 -52 -56 -88t-97 -57q20 -14 25 -19q11 -11 13 -22.5t2 -21.5q0 -32 -28 -96t-28 -106q4 -14 5 -23h-61l-5 1q-3 26 14 74q40 114 40 133q0 16 -4.5 26t-17.5 18.5
t-26.5 11t-37.5 2.5h-19h-156l-101 -266h-58l224 587h216q76 0 115 -18q51 -23 51 -80q0 -25 -10 -56zM885 615q5 14 6.5 25t1.5 17q0 37 -32 52.5t-83 15.5h-167l-84 -222l164 1q66 0 112 21q60 27 82 90z" />
    <glyph glyph-name="copyright" unicode="&#xa9;" horiz-adv-x="1157" 
d="M840 976q170 0 259 -87q81 -79 81 -212q0 -147 -93 -303q-97 -163 -251 -263q-171 -111 -368 -111q-171 0 -259 86q-81 79 -81 212q0 147 93 303q97 163 251 263q172 112 368 112zM820 924q-174 0 -328 -100q-138 -90 -223 -232.5t-85 -273.5q0 -119 71 -189
q79 -77 232 -77q174 0 328 100q140 91 224 232.5t84 273.5q0 118 -71 188q-80 78 -232 78zM938 630l-4 -23h-59l3 19q2 14 2 21q0 46 -36 71t-90 25q-104 0 -188 -81q-70 -68 -111 -176q-16 -42 -24.5 -74.5t-8.5 -63.5q0 -49 28.5 -79.5t94.5 -38.5q5 -1 16 -1q62 0 130 46
t108 114h58q-52 -93 -144.5 -150t-189.5 -57q-83 0 -120.5 40t-37.5 110q0 36 8 72.5t24 79.5q47 126 147 215q109 97 231 97q73 0 120 -34t47 -95v-22q-3 -11 -4 -15z" />
    <glyph glyph-name="trademark" unicode="&#x2122;" horiz-adv-x="1015" 
d="M1185 974l-185 -485h-47l165 432l-326 -431h-43l10 432l-166 -433h-47l184 486h75l-10 -427l320 426h70zM695 978l-16 -42h-152l-171 -447h-47l171 448h-152l16 41h351z" />
    <glyph glyph-name="acute" unicode="&#xb4;" horiz-adv-x="430" 
d="M607 955q-14 -21 -55 -53q-33 -26 -81.5 -56t-100 -56t-75.5 -30q-6 -1 -12 7t-6 16t5 9q15 6 67 37l98 60q24 15 65 44q71 51 87 56q6 2 9 -4t3 -15q0 -10 -4 -15z" />
    <glyph glyph-name="dieresis" unicode="&#xa8;" horiz-adv-x="417" 
d="M559 907q-9 -15 -24 -25.5t-30 -10.5q-11 0 -19.5 8t-8.5 22q0 7 3.5 17.5t14 27t22.5 27.5t25 11q3 0 11 -2q18 -7 18 -32q0 -22 -12 -43zM412 907q-8 -15 -23 -25.5t-30 -10.5q-11 0 -19 7q-11 10 -11 26q0 10 3.5 19.5t11.5 22.5q12 18 21 27q13 12 28 12q7 0 15 -3.5
t12 -12t4 -20.5q0 -21 -12 -42z" />
    <glyph glyph-name="notequal" unicode="&#x2260;" horiz-adv-x="1214" 
d="M1085 650l-37 -97h-323l-224 -229h459l-35 -93l-503 -1l-257 -268l-64 49l202 215l-258 1l36 97h316l212 229h-439l37 98l496 -1l257 273l64 -48l-211 -225h272z" />
    <glyph glyph-name="AE" unicode="&#xc6;" horiz-adv-x="1128" 
d="M1295 894q0 -27 -49 -89l-98 -116q-60 -71 -75 -104q-9 -15 -18 -15t-20.5 11.5t-11.5 22.5q0 6 2 11q9 13 12 18q22 34 61 78l74 78.5t59 67.5q9 12 9 27q0 11 -5 21t-16.5 16t-26.5 6q-58 0 -147.5 -61t-129.5 -132q-25 -45 -37.5 -86.5t-12.5 -83.5q0 -57 26 -106
l24 -45q9 -19 9 -44q0 -9 -7.5 -17t-40.5 -34l-64 -49q-31 -24 -56 -54t-36 -59l-2 -37l2 -48q8 -21 24.5 -30.5t50.5 -13.5q6 -1 18 -1q88 0 194 88q89 74 132 153q9 17 23 17q5 0 14 -4.5t9 -19.5q0 -10 -6 -19q-78 -124 -176.5 -193t-204.5 -69q-25 0 -50 4t-48 18
q-29 11 -41 34q-3 7 -6 21q7 21 7 44q0 49 -34.5 94t-90 77t-141.5 53q-69 17 -113 17q-14 0 -16 -3q-8 0 -39 -55t-53 -104.5t-36 -86.5t-25 -70q-5 -13 -12.5 -18.5t-25.5 -5.5q-24 0 -24 14q0 4 4 14q39 102 76 182q2 4 33 56q23 38 23 55q0 19 -27 19q-9 0 -18 -2
t-28.5 -5.5t-40.5 -9.5q-14 0 -14 18q4 17 13 29t18 12l140 10l37 63l35 56q42 66 86 126q62 84 108 130q78 77 111 106q64 57 116 88q62 37 111 37q26 0 46.5 -9t28.5 -27t8 -42q0 -27 -10 -68q-6 -26 -22 -77q56 84 136 136q87 57 177 57q48 0 75 -24q23 -21 23 -48z
M873 383l-35 82.5t-23 64.5q-4 29 -4 66q0 77 24.5 184.5t24.5 124.5q0 24 -10.5 31.5t-23.5 7.5q-51 0 -157 -89q-86 -72 -178 -174q-42 -46 -94 -120q-76 -109 -89 -138l-18 -43q6 1 13.5 1h11.5q39 0 81.5 -7t90.5 -23q66 -22 109 -58q34 -29 77 -92q32 64 94 111z" />
    <glyph glyph-name="Oslash" unicode="&#xd8;" horiz-adv-x="822" 
d="M939 940q9 -9 9 -18q0 -17 -50 -56q-32 -25 -51 -46q8 -19 11.5 -39.5t3.5 -48.5q0 -108 -69 -274q-79 -191 -195 -312q-142 -149 -303 -149q-56 0 -102 29l-9 -11q-11 -27 -16 -37q-9 -18 -52 -18q-12 0 -15 2q-5 3 -5 11q0 13 12.5 38.5t35.5 61.5q-40 56 -40 150
q0 103 33 208q28 88 79 179q39 69 92 138q78 102 175.5 167.5t196.5 78.5q4 0 12 1.5t13 1.5q18 0 25 -12.5t7 -18.5q0 -9 -16 -12t-24 -4q-138 -22 -260 -136q-105 -99 -181 -249q-68 -134 -89 -262q-3 -19 -5 -39t-2 -38q0 -61 19 -102q37 53 97 130l97 122l107 124
l155 173q88 98 142 153q-20 20 -45 20q-61 0 -125 -64q-69 -69 -110 -184q-5 -14 -10 -18q-2 -2 -24 -14q-12 -6 -19 -6q-13 0 -13 18q0 12 6 24q57 140 129.5 213.5t155.5 73.5h13q27 0 45.5 -7t33.5 -20l24 21q11 7 45 38q27 25 41 25q7 0 15 -6zM809 730q1 5 1 15
q0 14 -5 31l-102 -112q-68 -76 -109 -127q-10 -12 -108 -118q-42 -45 -105 -125q-38 -48 -85 -117l-72 -107q30 -19 72 -19q12 0 18 1q182 19 328 232q136 199 167 446z" />
    <glyph glyph-name="infinity" unicode="&#x221e;" horiz-adv-x="788" 
d="M671 223q-21 -59 -73.5 -96t-102.5 -37q-32 0 -64.5 15.5t-52.5 44.5l-25 37l-54 -37q-42 -29 -85.5 -44.5t-76.5 -15.5q-38 0 -62.5 21.5t-24.5 58.5q0 24 12 53q21 52 71 87t103 35q33 0 59.5 -14.5t46.5 -42.5l32 -45l67 45q86 57 149 57q40 0 64.5 -22.5t24.5 -59.5
q0 -18 -8 -40zM626 220q4 18 4 25q0 24 -16.5 38.5t-44.5 14.5q-26 0 -51 -10q-14 -6 -50 -26l-76 -45l35 -51q24 -34 77 -34q41 0 76 25.5t46 62.5zM337 217l-42 45q-19 19 -31 26q-17 10 -42 10q-36 0 -68.5 -21.5t-48.5 -56.5q-4 -7 -6 -17t-2 -18q0 -24 16.5 -38.5
t45.5 -14.5q30 0 52.5 7t51.5 27z" />
    <glyph glyph-name="plusminus" unicode="&#xb1;" horiz-adv-x="513" 
d="M427 287l-16 -41h-146l-56 -146h-38l56 146h-146l15 41h146l57 147h39l-56 -147h145zM327 32l-12 -32h-334l12 32h334z" />
    <glyph glyph-name="lessequal" unicode="&#x2264;" horiz-adv-x="592" 
d="M598 530l-21 -56l-403 -154l282 -162l-20 -54l-339 194l17 44zM412 45l-18 -48h-411l18 48h411z" />
    <glyph glyph-name="greaterequal" unicode="&#x2265;" horiz-adv-x="594" 
d="M526 342l-17 -44l-487 -194l20 54l407 162l-285 154l21 56zM411 45l-18 -48h-411l17 48h412z" />
    <glyph glyph-name="yen" unicode="&#xa5;" horiz-adv-x="905" 
d="M903 770l-51 -123q-3 -8 -97 -231l-71.5 -167.5t-43.5 -103.5q-22 -54 -53 -121h142q25 0 25 -14q0 -6 -4 -18.5t-10 -17.5t-20 -5h-156l-30 -70h130q15 0 18 -1q7 -2 7 -12q0 -6 -3 -15q-6 -17 -10 -21q-6 -5 -20 -5h-148l-31 -64q-21 -36 -77 -115l-26 -41
q-8 -11 -13 -11q-7 0 -10 13t-7 23t-4 15q0 8 11 26q30 45 56 79.5t45 73.5h-135q-23 0 -23 14q0 5 3 12.5l7.5 18t22.5 10.5h153l28 69h-127q-23 0 -23 14q0 5 3 12.5l7.5 18.5t22.5 11h141l34 84l26 62q15 41 61 145q38 87 45 109v3q-3 1 -16.5 -10.5t-64.5 -69.5
q-55 -62 -90 -95l-111.5 -106t-104.5 -86q-60 -41 -126 -64q-5 -2 -14 -2q-17 0 -30 11t-13 29q0 6 1 9q11 55 49 151q34 86 84 195l164 392q15 32 24.5 65t9.5 52t-9.5 25.5t-23.5 6.5q-35 0 -83 -56q-42 -49 -86 -130q-22 -41 -39.5 -101.5l-22.5 -78.5t-9 -34
q-7 -20 -35 -31q-15 -6 -21 -6q-7 0 -7 9q2 12 3 21q11 67 39.5 139t67.5 136q57 95 102 141q52 53 99 53q27 0 53 -16.5t26 -65.5q0 -29 -9 -62.5t-25 -68.5l-270 -636q-12 -30 -15 -38q-8 -23 -8 -38q0 -9 4 -12q15 -13 88 40q80 58 196 171q110 107 149 148
q71 75 111 131q46 64 85 148l33 81q12 23 29 29t23 6q8 0 8 -7t-10 -32z" />
    <glyph glyph-name="mu" unicode="&#xb5;" horiz-adv-x="883" 
d="M827 711l-212 -554q-11 -30 -11 -59q0 -27 10 -42.5t33 -15.5q7 0 11 1q27 5 47.5 20.5t38.5 42.5l26 38h25l-26 -44q-31 -52 -99 -91q-62 -35 -108 -35q-8 0 -12 1q-34 5 -56.5 32.5t-22.5 65.5q0 19 8 43l-50 -36q-63 -44 -123 -72t-96 -28t-73 20q-44 24 -58 63
l-19 -50q-17 -44 -18 -110.5t-21 -121.5q-13 -36 -44 -64.5t-63 -28.5q-20 0 -31.5 13.5t-11.5 35.5q0 7 1.5 15.5t5.5 19.5q16 44 40 80q71 104 74 110l19 39l271 712h121l-187 -490q-13 -32 -13 -63q0 -39 22 -64t62 -25q57 0 132 45q81 49 103 106l188 491h117z" />
    <glyph glyph-name="partialdiff" unicode="&#x2202;" horiz-adv-x="764" 
d="M778 529q-60 -197 -218 -369q-170 -186 -321 -186q-15 0 -22 1q-86 9 -128.5 52.5t-42.5 113.5q0 43 19 102q39 117 154 207.5t231 90.5q50 0 83 -16q27 -13 64 -48l30 -29l37 69q34 64 54.5 133.5t20.5 127.5q0 75 -32 117q-36 47 -109 47q-32 0 -70 -11l-75 -22l-27 -8
l-28 64l65 17q38 10 69.5 15t65.5 5q112 0 167 -74q49 -66 49 -184q0 -52 -8.5 -102t-27.5 -113zM597 398l-23 35q-13 20 -29 31t-42 17q-8 1 -15 3q-6 1 -16 1q-66 0 -141 -58q-68 -53 -119 -131q-31 -47 -48.5 -94t-17.5 -87q0 -37 15.5 -62.5t49.5 -37.5q17 -6 34 -6
q50 0 108 46q49 39 102 110q40 53 82 128z" />
    <glyph glyph-name="summation" unicode="&#x3a3;" horiz-adv-x="1082" 
d="M1193 976l-81 -217h-28q14 36 14 61q0 29 -18.5 55t-44.5 32.5t-76 6.5h-399l207 -462l-586 -461h548q27 0 48.5 7t54.5 26q75 44 110 119h30q-28 -39 -53.5 -79t-46.5 -78q-42 -77 -70 -144l-90 19h-779l685 531l-248 593l85 -9h738z" />
    <glyph glyph-name="product" unicode="&#x220f;" horiz-adv-x="1245" 
d="M1428 975l-11 -30l-30 -2q-20 0 -36 -6.5t-39 -20.5q-34 -21 -56 -52q-16 -23 -33 -67l-306 -801q-15 -37 -15 -60q0 -18 9.5 -31.5t26 -19t41.5 -5.5l31 -2l-9 -22h-425l10 26l36 1q29 0 46.5 4t39.5 20t35 41q3 5 20 51l343 897h-498l-340 -889q-9 -24 -13 -39t-4 -28
q0 -22 13 -35.5t27 -16.5t46 -3h26l-11 -29h-424l11 31h33h11q21 0 37.5 3.5t33.5 14.5q28 17 45 45q7 12 25 58l309 810q11 28 11 49q0 25 -18 48q-7 10 -15 17q-15 13 -38 13l-23 1l11 29h1067z" />
    <glyph glyph-name="pi" unicode="&#x3c0;" horiz-adv-x="909" 
d="M985 713l-46 -119h-191l-152 -349q-13 -31 -13 -57q0 -29 15.5 -47.5t45.5 -18.5q34 0 67 23.5t55 59.5l16 25h28l-16 -32q-41 -83 -114.5 -140.5t-148.5 -57.5q-39 0 -56 22t-17 63q0 40 16 91.5t41 104.5l154 313h-171l-235 -463q-28 -54 -66 -93q-46 -47 -85 -47
q-8 0 -17 3q-22 7 -33 18.5t-9 32.5q6 43 59 82q73 54 89 75l28 35q16 20 24 37l154 314h-47q-18 0 -34 -0.5t-40.5 -8.5t-60.5 -38q-29 -24 -40 -38l-21 9l17 21q72 86 78 92q42 43 96 65.5t104 22.5h526z" />
    <glyph glyph-name="integral" unicode="&#x222b;" horiz-adv-x="545" 
d="M711 1050q-11 -22 -33 -36t-45 -14q-13 0 -22 10q-14 15 -19 18t-9 3q-28 0 -66 -123l-66 -214l-160 -421q-37 -95 -70 -164q-53 -111 -104 -174q-65 -81 -125 -81q-16 0 -29 4t-22.5 15.5t-9.5 26.5q0 12 5 21q11 21 30.5 35.5t40.5 14.5q17 0 26 -22q5 -13 15 -16
q37 -12 92 137l50 141l223 585q31 80 62 140q43 83 82 124q50 53 102 53q23 0 40.5 -11.5t17.5 -30.5q0 -9 -6 -21z" />
    <glyph glyph-name="ordfeminine" unicode="&#xaa;" horiz-adv-x="546" 
d="M688 779q0 -11 -1 -14q-3 -9 -12 -14l-31.5 -28l-25.5 -22q-56 -42 -80 -55q-32 -17 -52 -17q-7 0 -14 2t-7 18q0 8 11 54q-2 4 -3 8q-6 -5 -40 -39q-47 -47 -83 -47q-13 0 -31.5 7t-32 36.5t-13.5 69.5q0 44 20.5 88t65.5 80q49 40 88 58q54 25 118 25q23 0 50.5 -8.5
t27.5 -20.5q0 -3 -5 -8q-1 -1 -4.5 -7.5t-7.5 -6.5t-8 4q-18 15 -53 15q-60 0 -132 -39.5t-108 -97.5q-18 -29 -18 -73q0 -55 26 -78q7 -7 18 -7q33 0 96 74l127 172q4 2 9 2q21 0 21 -13q1 -6 -3 -13t-7 -13l-58 -118q-9 -17 -16.5 -39t-7.5 -34q0 -8 4 -11q12 -7 86 55
l73 61q11 3 13 -6zM524 559q-6 -19 -22 -19h-256q-16 0 -16 9q0 3 3 13t4 11q4 6 16 6h255q18 0 18 -10q0 -2 -2 -10z" />
    <glyph glyph-name="ordmasculine" unicode="&#xba;" horiz-adv-x="510" 
d="M629 774q0 -16 -7 -25q-27 -26 -47 -36.5t-42 -13.5q-6 -1 -18.5 3t-16.5 4q-6 0 -10 -5q-15 -23 -50 -48q-46 -34 -84 -34q-17 0 -31 7q-27 13 -39.5 46.5t-12.5 67.5v15q2 9 2 12q7 31 14 49q21 56 59 96q27 28 67.5 52.5t64.5 24.5q12 0 16.5 -6t4.5 -12
q0 -14 -11 -16q-83 -22 -131 -83q-22 -28 -34.5 -65t-12.5 -72q0 -56 31 -80q8 -5 18 -5q20 0 49 18.5t45 36.5q9 9 9 19q0 4 -7.5 26.5t-7.5 45.5q0 6 1 14t1 13q5 39 27 72q26 40 58 40q8 0 15 -2t12 -13.5t5 -28.5q0 -12 -2.5 -25.5t-5.5 -33t-18 -48t-15 -40.5
q0 -4 2 -10t9 -6q15 0 42 18.5t44 36.5q7 1 7 -9zM503 557q-5 -19 -21 -19h-234q-16 0 -16 10q0 2 2 8t5 13t16 7h233q17 0 17 -9q0 -6 -2 -10zM528 831q4 11 7 23.5t3 24.5q0 20 -12 20q-16 0 -29 -28q-6 -12 -11.5 -30.5t-5.5 -42.5q0 -34 10 -38q12 -5 25 32q6 19 13 39z
" />
    <glyph glyph-name="Omega" unicode="&#x3a9;" horiz-adv-x="1115" 
d="M1089 517q-56 -135 -172.5 -232.5t-254.5 -119.5l-15 -40h219q25 0 44.5 7.5t40 27t30.5 46.5h25l-79 -208h-400l95 197q113 44 191.5 126.5t119.5 193.5q16 42 25.5 82t9.5 72q0 69 -44 104q-50 40 -161 40q-152 0 -259 -88q-92 -76 -145 -210q-32 -82 -32 -149
q0 -116 99 -171l-55 -197h-401l80 208h26q-8 -19 -8 -32q0 -7 4 -20t19 -21t38 -8h219l16 40q-89 17 -136 75t-47 145q0 59 25 132q54 156 218 249q156 88 353 88q160 0 250 -55.5t90 -158.5q0 -57 -28 -123z" />
    <glyph glyph-name="ae" unicode="&#xe6;" horiz-adv-x="736" 
d="M749 206q0 -16 -1.5 -24.5t-10.5 -13.5q-7 -12 -58 -54q-61 -50 -124 -84q-83 -45 -139 -45q-17 0 -37 5q-59 18 -81 59q-29 55 -20 63q-7 -6 -57 -57q-66 -67 -118 -67q-21 0 -46.5 10t-45 53t-19.5 100q0 64 27 122q31 67 95 118q72 56 126 81q80 37 169 37
q34 0 54.5 -6t54.5 -27q26 7 61 13t52 6q23 0 39 -5.5t23 -18.5q12 -24 12 -51q0 -47 -32.5 -97t-82.5 -88q-45 -35 -101 -45q-37 -7 -115 -7h-35l-3 -44q0 -40 27 -71t63 -31q64 0 174 69q99 62 137 111q12 5 12 -11zM647 436q-8 15 -34 15q-29 0 -68.5 -18.5t-65.5 -41.5
q-52 -48 -75 -75q-47 -55 -47 -91h58q35 0 80 16t79.5 47.5t53.5 58.5q25 35 25 64q0 13 -6 25zM475 450q-26 14 -65 14q-86 0 -184 -53q-106 -57 -160 -143q-24 -39 -24 -103q0 -39 9 -69.5t26 -44.5q11 -8 23 -8q40 0 107 68q51 52 77 93l44 106q39 59 122 123z" />
    <glyph glyph-name="oslash" unicode="&#xf8;" horiz-adv-x="493" 
d="M504 203q0 -22 -10 -35q-30 -29 -55 -45q-36 -23 -74 -28q-8 -1 -25 4.5t-23 5.5q-10 0 -15 -8q-21 -32 -70 -69q-66 -50 -118 -50q-23 0 -43 10l-10 7l-4 -7l-21 -34q-8 -10 -15 -21q-6 -6 -20 -6q-27 0 -27 18q0 12 13 34q17 25 22 34l14 23q-15 32 -23.5 64.5
t-8.5 59.5q0 16 3 31q11 55 34 103q28 59 70.5 103t98.5 78t92 34q18 0 24 -8.5t6 -15.5q0 -22 -17 -25q-58 -15 -104.5 -44t-81 -73t-51 -88t-16.5 -93q0 -36 9 -78l81 126l54 78q42 60 95 128q50 64 74 89l38 43q14 13 24 13q6 0 13.5 -8.5t7.5 -12.5q0 -1 -31 -30
q-26 -24 -47 -55l-18 -28q6 4 15 4h24q14 0 20.5 -16.5t6.5 -44.5q0 -22 -3 -43t-9 -44t-21 -52q-28 -54 -28 -67q0 -9 4.5 -17.5t14.5 -8.5q20 0 62 29q36 25 59 50q7 1 9 -2q1 -2 1 -12zM362 286q3 10 9 33.5t6 33.5t-3 18t-18 8q-20 0 -35 -26q-9 -15 -22 -54
q-4 -11 -6 -28.5t-2 -33.5q0 -21 3 -35.5t11 -19.5q10 -5 28.5 31.5t28.5 72.5zM256 308q-13 -19 -15 -23q-1 -2 -4 -6q-1 -3 -1 -6l-37 -56q-55 -87 -109 -182l4 -3q5 -3 11 -4q5 -1 12 -1q30 0 72 25q35 21 64 51q8 8 11 15t3 15q0 4 -13 48q-7 24 -7 43q-2 21 -2 34
q0 11 2 23.5t9 26.5z" />
    <glyph glyph-name="questiondown" unicode="&#xbf;" horiz-adv-x="501" 
d="M343 435q-8 -15 -20 -25t-25 -10q-6 0 -9 1q-22 7 -22 38q0 19 7.5 34.5t20.5 25t28 9.5q8 0 15 -4q16 -9 16 -30q0 -11 -4 -21.5t-7 -17.5zM293 309q3 -10 -16 -47t-42 -73q-15 -22 -45 -58t-62 -69l-57 -59q-42 -43 -75 -108t-33 -94q0 -39 25 -65t59 -23q74 8 116 61
q36 64 51 85q4 4 9 4q9 0 15 -9.5t6 -30.5q0 -26 -63 -83q-74 -67 -144 -67q-60 0 -88 36q-22 29 -30 88q-1 5 -1 14q0 55 52 131q27 39 64 79l103 111q39 43 54.5 63t28.5 42q8 14 16 32q21 48 24.5 55t11.5 7q5 0 12 -5.5t9 -16.5z" />
    <glyph glyph-name="exclamdown" unicode="&#xa1;" horiz-adv-x="378" 
d="M281 433q-9 -17 -20.5 -27t-26.5 -10q-6 0 -9 1q-22 7 -22 38q0 19 9 35t22 26t27 10q8 0 15 -4q16 -9 16 -30q0 -11 -4 -21.5t-7 -17.5zM203 324q10 -3 10 -17q0 -15 -11 -44q-6 -14 -11 -28l-186 -512l-10 -32q-6 -18 -19 -25.5t-25 -7.5q-22 0 -22 25q0 11 10.5 26.5
t13.5 22.5q9 20 40 100l60 157l59 162q32 90 37 96q8 25 17 50q12 28 29 28q5 0 8 -1z" />
    <glyph glyph-name="logicalnot" unicode="&#xac;" horiz-adv-x="1153" 
d="M1113 416l-158 -416h-81l130 341h-897l29 75h977z" />
    <glyph glyph-name="radical" unicode="&#x221a;" horiz-adv-x="721" 
d="M1000 1090l-629 -1154l-75 609l-140 -59l-3 40l213 86l61 -487l532 971z" />
    <glyph glyph-name="florin" unicode="&#x192;" horiz-adv-x="769" 
d="M963 1042q-37 -50 -89 -50q-12 0 -19 10q-11 15 -15 18q-2 2 -6 3q-3 1 -5 1q-28 0 -81 -105q-80 -158 -95 -182l-18 -28h135l-28 -56h-142l-238 -407q-50 -86 -103 -163q-79 -113 -143 -175q-85 -81 -148 -81q-17 0 -28 3.5t-17 12.5t-6 21q0 16 10 30q16 22 37.5 36
t44.5 14q17 0 20 -17.5t12 -20.5q23 -8 61 39q27 33 73 113l72 126l273 471h-147l24 56h166l21 36q56 94 105 162q64 88 120 138q65 58 116 58q19 0 33 -11t14 -28q0 -12 -9 -24z" />
    <glyph glyph-name="approxequal" unicode="&#x2248;" horiz-adv-x="605" 
d="M527 301l-24 -19q-59 -47 -118 -47q-22 0 -40 6t-35 13l-60 19l-27.5 8t-20.5 3q-4 0 -18 -2q-38 -7 -72 -34l-19 -14l-26 22l16 13q31 23 56 34t46 14.5t39 3.5q15 0 21 -1q7 -1 36 -11l52 -18q15 -6 31 -11t35 -5q26 3 43.5 8.5t39.5 22.5l20 15zM477 171l-23 -19
q-30 -24 -58.5 -35.5t-60.5 -11.5q-21 0 -39 6t-36 13l-60 19l-27.5 8t-20.5 3q-4 0 -22.5 -2.5t-30.5 -8.5t-37 -24l-19 -15l-26 23l16 12q56 42 114 51q18 2 24 2q11 0 20.5 -2t39.5 -11l52 -17q15 -6 31 -11.5t35 -5.5q26 2 43.5 8t39.5 23l20 15z" />
    <glyph glyph-name="Delta" unicode="&#x2206;" horiz-adv-x="998" 
d="M836 0h-889l855 996zM685 65l-29 695l-591 -695h620z" />
    <glyph glyph-name="guillemotleft" unicode="&#xab;" horiz-adv-x="819" 
d="M871 666l-53 -138l-258 -145l145 -140l-56 -147l-198 219l54 140zM513 666l-53 -138l-257 -145l144 -140l-56 -147l-197 219l53 140z" />
    <glyph glyph-name="guillemotright" unicode="&#xbb;" horiz-adv-x="805" 
d="M792 455l-54 -140l-364 -219l56 147l252 140l-147 145l53 138zM435 455l-54 -140l-364 -219l56 147l251 140l-147 145l53 138z" />
    <glyph glyph-name="ellipsis" unicode="&#x2026;" horiz-adv-x="598" 
d="M551 21q-8 -15 -23 -25.5t-30 -10.5q-11 0 -20 8.5t-9 23.5q0 11 3.5 20.5t12.5 25t20.5 26t26.5 10.5q5 0 14.5 -3.5t13.5 -12t4 -20.5q0 -22 -13 -42zM333 21q-8 -15 -23 -25.5t-30 -10.5q-11 0 -19 7q-11 10 -11 26q0 10 3.5 19.5t12 24.5t21.5 26t27 11q5 0 14 -3.5
t13 -12t4 -20.5q0 -21 -12 -42zM116 21q-9 -15 -24 -25.5t-30 -10.5q-11 0 -20 8.5t-9 23.5q0 11 3.5 20.5t12 24.5t21.5 26t27 11q5 0 14 -3.5t13 -12t4 -20.5q0 -21 -12 -42z" />
    <glyph glyph-name="nonbreakingspace" unicode="&#xa0;" horiz-adv-x="792" 
 />
    <glyph glyph-name="Agrave" unicode="&#xc0;" horiz-adv-x="899" 
d="M822 986q17 -8 25.5 -26.5t8.5 -42.5q0 -44 -27 -129q-37 -116 -40 -129q-19 -85 -54 -207q-44 -156 -53 -191q-24 -96 -24 -142q0 -11 1 -29.5t1 -27.5q0 -19 -2 -30q-6 -36 -36 -36q-14 0 -25 11.5t-11 30.5q0 8 2 19t2 28q0 55 -30 104.5t-85 81.5t-141 53
q-69 17 -113 17q-14 0 -16 -3q-8 1 -38.5 -53.5t-53 -105t-36.5 -87.5t-25 -70q-5 -13 -12.5 -18.5t-25.5 -5.5q-24 0 -24 14q0 4 4 14q39 102 76 182q2 4 33 56q23 38 23 55q0 19 -27 19q-9 0 -18 -2t-28.5 -5.5t-40.5 -9.5q-19 -2 -14 18q4 16 13 27.5t18 13.5l140 10
l37 63l35 56q42 66 86 126q62 84 108 130q78 77 111 106q64 57 116 88q62 37 111 37q26 0 49 -10zM788 938q-9 6 -22 6q-51 0 -157 -89q-86 -72 -178 -174q-54 -60 -122 -160q-55 -81 -61 -98l-18 -43q6 1 13.5 1h11.5q39 0 81.5 -7t90.5 -23q66 -22 109 -58q34 -29 77 -92
l97 372l58 176q33 105 33 148q0 18 -2.5 26.5t-10.5 14.5zM912 1056q6 -5 -5.5 -14.5t-19.5 -6.5q-19 7 -46.5 33.5t-55.5 60.5q-48 56 -68 101q-3 8 9 19.5t17 4.5q11 -17 32.5 -45.5t43.5 -54.5q30 -35 53 -59q28 -30 40 -39z" />
    <glyph glyph-name="Atilde" unicode="&#xc3;" horiz-adv-x="903" 
d="M848 986q17 -8 25.5 -26.5t8.5 -42.5q0 -44 -27 -129q-37 -116 -40 -129q-19 -85 -54 -207q-44 -156 -53 -191q-24 -96 -24 -142q0 -11 1 -29.5t1 -27.5q0 -19 -2 -30q-6 -36 -36 -36q-14 0 -25 11.5t-11 30.5q0 8 2 19t2 28q0 55 -30 104.5t-85 81.5t-141 53
q-69 17 -113 17q-14 0 -16 -3q-8 1 -38.5 -53.5t-53 -105t-36.5 -87.5t-25 -70q-5 -13 -12.5 -18.5t-25.5 -5.5q-24 0 -24 14q0 4 4 14q39 102 76 182q2 4 33 56q23 38 23 55q0 19 -27 19q-9 0 -18 -2t-28.5 -5.5t-40.5 -9.5q-19 -2 -14 18q4 16 13 27.5t18 13.5l140 10
l37 63l35 56q42 66 86 126q62 84 108 130q78 77 111 106q64 57 116 88q62 37 111 37q26 0 49 -10zM814 938q-9 6 -22 6q-51 0 -157 -89q-86 -72 -178 -174q-54 -60 -122 -160q-55 -81 -61 -98l-18 -43q6 1 13.5 1h11.5q39 0 81.5 -7t90.5 -23q66 -22 109 -58q34 -29 77 -92
l97 372l58 176q33 105 33 148q0 18 -2.5 26.5t-10.5 14.5zM1000 1112q-5 -20 -7 -29.5t-10 -14.5q-32 -16 -55 -22.5t-54 -6.5q-22 0 -54 20.5t-53 20.5q-42 0 -67 -14q-8 -5 -43 -30q-6 -6 -10 0t-2 16q1 7 4 15.5t10 14.5q37 28 60 35.5t71 7.5q22 0 55 -20.5t55 -20.5
t41 8q7 3 39 21q7 4 13 4q7 0 7 -5z" />
    <glyph glyph-name="Otilde" unicode="&#xd5;" horiz-adv-x="811" 
d="M833 732q0 -108 -69 -274q-79 -191 -195 -312q-142 -149 -303 -149q-83 0 -137 61t-54 165q0 103 33 208q28 88 79 179q39 69 92 138q78 102 175.5 167.5t196.5 78.5q4 0 12 1.5t13 1.5q18 0 25 -12.5t7 -18.5q0 -9 -16 -12t-24 -4q-138 -22 -260 -136
q-105 -99 -181 -249q-68 -134 -89 -262q-3 -21 -5 -39t-2 -37q0 -79 30 -124q35 -52 104 -52q13 0 20 1q182 19 328 232q136 199 167 446q1 5 1 15q0 39 -22.5 70t-55.5 31q-61 0 -125 -64q-69 -69 -110 -184q-5 -14 -10 -18q-2 -2 -24 -14q-12 -6 -19 -6q-13 0 -13 18
q0 12 6 24q57 140 129.5 213.5t155.5 73.5q72 0 106 -41t34 -116zM966 1112q-5 -20 -7 -29.5t-10 -14.5q-32 -16 -55 -22.5t-54 -6.5q-22 0 -54 20.5t-53 20.5q-42 0 -67 -14q-8 -5 -43 -30q-6 -6 -10 0t-2 16q1 7 4 15.5t10 14.5q37 28 60 35.5t71 7.5q22 0 55 -20.5
t55 -20.5t41 8q7 3 39 21q7 4 13 4q7 0 7 -5z" />
    <glyph glyph-name="OE" unicode="&#x152;" horiz-adv-x="1245" 
d="M1302 900q0 -27 -49 -89l-98 -116q-60 -71 -75 -104q-9 -15 -18 -15t-20.5 11.5t-11.5 22.5q0 6 2 11q9 13 12 18q22 34 61 78l74 78.5t59 67.5q9 12 9 27q0 11 -5 21t-16.5 16t-26.5 6q-58 0 -147.5 -61t-129.5 -132q-31 -56 -43 -109q0 -4 -1 -7q-4 -12 -4 -14
q-3 -20 -3 -40q0 -55 27 -106l24 -45q9 -19 9 -44q0 -9 -7.5 -17t-40.5 -34l-64 -49q-44 -34 -72 -77.5t-28 -83.5q0 -42 18.5 -59t64.5 -22q6 -1 18 -1q88 0 194 88q89 74 132 153q9 17 23 17q5 0 14 -4.5t9 -19.5q0 -10 -6 -19q-78 -124 -176.5 -193t-204.5 -69
q-54 0 -85 17q-57 31 -57 115q0 12 2.5 23t7.5 27q-73 -86 -166 -137.5t-186 -51.5q-83 0 -137 61t-54 165q0 103 33 208q28 88 79 179q39 69 92 138q78 102 175.5 167.5t196.5 78.5q17 2 26 2q6 0 13 -1.5t12.5 -12t5.5 -16.5q0 -9 -16 -12t-24 -4q-138 -22 -260 -136
q-105 -99 -181 -249q-68 -134 -89 -262q-3 -21 -5 -39t-2 -37q0 -79 30 -124q35 -52 104 -52q13 0 20 1q87 9 166.5 53.5t140.5 121.5l176.5 126t56.5 55q-24 34 -45.5 73t-34.5 86q25 83 35 163q1 5 1 15q0 39 -22.5 70t-55.5 31q-61 0 -125 -64q-69 -69 -110 -184
q-5 -14 -10 -18q-2 -2 -24 -14q-12 -6 -19 -6q-13 0 -13 18q0 12 6 24q57 140 129.5 213.5t155.5 73.5q44 0 74 -16q48 -25 61 -88q57 90 138 145q90 61 183 61q48 0 75 -24q23 -21 23 -48z" />
    <glyph glyph-name="oe" unicode="&#x153;" horiz-adv-x="788" 
d="M799 205q0 -16 -1.5 -24.5t-10.5 -13.5q-7 -13 -58 -54q-62 -50 -125 -84q-82 -44 -139 -44q-17 0 -37 5q-44 14 -69 48q-20 27 -26 63q-4 0 -8 2q-11 5 -12 5q-7 0 -13 -9q-20 -32 -71 -69q-67 -49 -121 -49q-24 0 -44 10q-39 20 -59 71q-16 42 -16 92q0 23 3 38
q0 32 34 103q29 60 69.5 103t98.5 78t93 35q18 0 25 -10q4 -5 4 -15q0 -22 -16 -24q-58 -15 -105.5 -44.5t-82.5 -75.5q-31 -40 -49 -93t-18 -101q0 -40 10.5 -68.5t34.5 -46.5q10 -7 25 -7q29 0 70 26t65 53q13 13 13 27q0 6 -10.5 37.5t-10.5 65.5v17t2 21q7 55 38 103
q37 58 84 58q5 0 19 -3t20.5 -16.5t6.5 -31.5q0 -11 -1 -19t-2 -15q15 17 21 23q18 19 70 60q34 27 87 45.5t94 18.5q48 0 60.5 -24t12.5 -53q0 -48 -32.5 -97.5t-80 -85.5t-102.5 -46q-38 -7 -116 -7l-34 -1l-3 -43q0 -41 27 -72t62 -31q65 0 175 69q98 61 137 111
q6 4 9 -1q3 -4 3 -10zM696 435q-9 16 -34 16q-30 0 -69.5 -19t-63.5 -42q-52 -47 -76 -75q-46 -54 -46 -91h58q35 0 79.5 16t78 46.5t54.5 60.5q26 36 26 63q0 14 -7 25zM357 286q7 17 10.5 33.5t3.5 32.5q0 14 -3.5 21.5t-13.5 8.5q-20 0 -35 -27q-11 -19 -21 -50.5
t-10 -66.5q0 -47 15 -55q15 -6 35 48z" />
    <glyph glyph-name="endash" unicode="&#x2013;" horiz-adv-x="625" 
d="M510 220q-5 -17 -11 -22t-20 -5h-395q-23 0 -23 13q0 6 3 13l7.5 18t22.5 11h394q25 0 25 -14q0 -5 -3 -14z" />
    <glyph glyph-name="emdash" unicode="&#x2014;" horiz-adv-x="874" 
d="M762 220q-5 -17 -11 -22t-20 -5h-657q-23 0 -23 13q0 6 3 13l7.5 18t22.5 11h656q25 0 25 -14q0 -5 -3 -14z" />
    <glyph glyph-name="quotedblleft" unicode="&#x201c;" horiz-adv-x="436" 
d="M574 1021l-8 -187q-2 -13 -13 -19t-30 -6q-21 0 -30.5 5.5t-6.5 19.5l43 185q2 12 7.5 21t15.5 9q11 0 17.5 -8.5t4.5 -19.5zM413 1021l-8 -187q-2 -13 -13 -19t-30 -6q-21 0 -30.5 5.5t-6.5 19.5l43 185q2 12 7.5 21t15.5 9q11 0 17.5 -8.5t4.5 -19.5z" />
    <glyph glyph-name="quotedblright" unicode="&#x201d;" horiz-adv-x="464" 
d="M659 1008l-142 -160q-10 -12 -19.5 -18t-20.5 -4q-13 3 -13 15q0 8 6 16l109 172q5 7 9 9q10 6 24 6q9 0 25 -3.5t22 -8t6 -11.5t-6 -13zM494 1008l-142 -160q-10 -14 -20.5 -19t-18.5 -3q-13 3 -13 16q0 7 5 15l110 172q4 7 13 11t20 4q9 0 25 -3.5t22 -8t6 -11.5
q0 -4 -3 -9z" />
    <glyph glyph-name="quoteleft" unicode="&#x2018;" horiz-adv-x="279" 
d="M402 1021l-8 -187q-2 -13 -13 -19t-30 -6q-21 0 -30.5 5.5t-6.5 19.5l43 185q2 12 7.5 21t15.5 9q11 0 17.5 -8.5t4.5 -19.5z" />
    <glyph glyph-name="quoteright" unicode="&#x2019;" horiz-adv-x="303" 
d="M494 1008l-142 -160q-10 -14 -20.5 -19t-18.5 -3q-13 3 -13 16q0 7 5 15l110 172q4 7 13 11t20 4q9 0 25 -3.5t22 -8t6 -11.5q0 -4 -3 -9z" />
    <glyph glyph-name="divide" unicode="&#xf7;" horiz-adv-x="680" 
d="M417 347q-8 -23 -30.5 -39t-45.5 -16q-35 0 -35 36q0 11 4 20q8 21 30 37t44 16q37 0 37 -35q0 -10 -4 -19zM580 243l-21 -55h-505l21 55h505zM316 84q-8 -23 -30.5 -39t-45.5 -16q-35 0 -35 36q0 11 4 20q9 22 30.5 37.5t43.5 15.5q16 0 26.5 -9.5t10.5 -25.5
q0 -10 -4 -19z" />
    <glyph glyph-name="lozenge" unicode="&#x25ca;" horiz-adv-x="742" 
d="M745 490l-441 -492h-84l-68 500l440 474h84zM668 490l-63 411l-375 -406l57 -435z" />
    <glyph glyph-name="ydieresis" unicode="&#xff;" horiz-adv-x="590" 
d="M603 203q2 -7 -2 -19t-10 -16l-88 -77l-109 -97l-96 -87q-17 -16 -31.5 -42l-19.5 -35q-8 -15 -39 -90q-13 -30 -32 -67q-22 -43 -37 -62q-18 -24 -34 -24q-7 0 -11 2q-15 8 -15 36q0 24 11 59.5t27 66.5q21 40 88 135q30 43 37 58q10 14 81 178q4 10 53 121q6 15 6 24
t-6 9q-9 0 -26 -18q-71 -83 -148 -150q-70 -61 -130 -97q-34 -20 -54 -20q-12 0 -17.5 7.5t-5.5 19.5q0 14 5 28t20 46q36 79 44 100q2 4 2 12q0 10 -8 10q-7 0 -17 -10t-19.5 -18.5t-21.5 -17.5q-7 -1 -9 4t-2 16q0 18 11 29q32 27 51 46l43 45q21 21 35.5 41.5t25.5 46.5
l22 62q14 31 42 28q25 0 25 -11q0 -3 -3.5 -11t-5.5 -12l-101 -218q-37 -79 -51 -120q-7 -20 -7 -30q0 -11 8 -11q4 0 10.5 3.5t14.5 9.5q81 64 193.5 183t171.5 203q10 14 28 14q7 -1 11 -1q22 0 22 -10q0 -6 -6 -18q-32 -63 -97 -209t-90 -210q-6 -17 -6 -24q0 -10 7 -10
q8 0 20 12q39 39 93 85l135 116q8 1 10 -4q1 -1 2 -10zM557 608q-9 -15 -24 -25.5t-30 -10.5q-11 0 -19.5 8t-8.5 22q0 7 3.5 17.5t14 27t22.5 27.5t25 11q3 0 11 -2q18 -7 18 -32q0 -22 -12 -43zM410 608q-8 -15 -23 -25.5t-30 -10.5q-11 0 -19 7q-11 10 -11 26
q0 10 3.5 19.5t11.5 22.5q12 18 21 27q13 12 28 12q7 0 15 -3.5t12 -12t4 -20.5q0 -21 -12 -42z" />
    <glyph glyph-name="Ydieresis" unicode="&#x178;" horiz-adv-x="797" 
d="M909 770l-51 -123l-98 -233l-72 -169l-106 -249q-50 -121 -78 -174q-40 -77 -98 -156l-26 -41q-8 -11 -13 -11q-7 0 -9.5 11.5t-7.5 23.5t-5 17q0 10 12 25q56 71 112 180q41 78 84 183l45 116q15 41 61 145q38 87 45 109v3q-3 1 -16.5 -10.5t-64.5 -69.5
q-55 -62 -90 -95l-111.5 -106t-104.5 -86q-60 -41 -126 -64q-5 -2 -14 -2q-17 0 -30 11t-13 29q0 6 1 9q11 55 49 151q34 86 84 195l164 392q15 32 24.5 65t9.5 52t-9.5 25.5t-23.5 6.5q-35 0 -83 -56q-42 -49 -86 -130q-22 -41 -39.5 -101.5l-22.5 -78.5t-9 -34
q-7 -20 -35 -31q-15 -6 -21 -6q-7 0 -7 9q2 12 3 21q11 67 39.5 139t67.5 136q57 95 102 141q52 53 99 53q27 0 53 -16.5t26 -65.5q0 -29 -9 -62.5t-25 -68.5l-270 -636q-12 -30 -15 -38q-8 -23 -8 -38q0 -9 4 -12q15 -13 88 40q80 58 196 171q110 107 149 148
q71 75 111 131q46 64 85 148l33 81q12 23 29 29t23 6q8 0 8 -7t-10 -32zM823 1067q-9 -15 -24 -25.5t-30 -10.5q-11 0 -19.5 8t-8.5 22q0 7 3.5 17.5t14 27t22.5 27.5t25 11q3 0 11 -2q18 -7 18 -32q0 -22 -12 -43zM676 1067q-8 -15 -23 -25.5t-30 -10.5q-11 0 -19 7
q-11 10 -11 26q0 10 3.5 19.5t11.5 22.5q12 18 21 27q13 12 28 12q7 0 15 -3.5t12 -12t4 -20.5q0 -21 -12 -42z" />
    <glyph glyph-name="periodcentered" unicode="&#xb7;" horiz-adv-x="331" 
d="M275 496q-8 -15 -23 -25.5t-30 -10.5q-11 0 -20 8.5t-9 23.5q0 11 3.5 20.5t12.5 25t20.5 26t26.5 10.5q5 0 14.5 -3.5t13.5 -12t4 -20.5q0 -22 -13 -42z" />
    <glyph glyph-name="periodcentered" unicode="&#x2219;" horiz-adv-x="331" 
d="M275 496q-8 -15 -23 -25.5t-30 -10.5q-11 0 -20 8.5t-9 23.5q0 11 3.5 20.5t12.5 25t20.5 26t26.5 10.5q5 0 14.5 -3.5t13.5 -12t4 -20.5q0 -22 -13 -42z" />
    <glyph glyph-name="quotesinglbase" unicode="&#x201a;" horiz-adv-x="303" 
d="M494 49l-142 -160q-10 -14 -20.5 -19t-18.5 -3q-13 3 -13 16q0 7 5 15l110 172q4 7 13 11t20 4q9 0 25 -3.5t22 -8t6 -11.5q0 -4 -3 -9z" />
    <glyph glyph-name="quotedblbase" unicode="&#x201e;" horiz-adv-x="464" 
d="M659 49l-142 -160q-10 -12 -19.5 -18t-20.5 -4q-13 3 -13 15q0 8 6 16l109 172q5 7 9 9q10 6 24 6q9 0 25 -3.5t22 -8t6 -11.5t-6 -13zM494 49l-142 -160q-10 -14 -20.5 -19t-18.5 -3q-13 3 -13 16q0 7 5 15l110 172q4 7 13 11t20 4q9 0 25 -3.5t22 -8t6 -11.5
q0 -4 -3 -9z" />
    <glyph glyph-name="Acircumflex" unicode="&#xc2;" horiz-adv-x="846" 
d="M882 986q17 -8 25.5 -26.5t8.5 -42.5q0 -44 -27 -129q-37 -116 -40 -129q-19 -85 -54 -207q-44 -156 -53 -191q-24 -96 -24 -142q0 -11 1 -29.5t1 -27.5q0 -19 -2 -30q-6 -36 -36 -36q-14 0 -25 11.5t-11 30.5q0 8 2 19t2 28q0 55 -30 104.5t-85 81.5t-141 53
q-69 17 -113 17q-14 0 -16 -3q-8 1 -38.5 -53.5t-53 -105t-36.5 -87.5t-25 -70q-5 -13 -12.5 -18.5t-25.5 -5.5q-24 0 -24 14q0 4 4 14q39 102 76 182q2 4 33 56q23 38 23 55q0 19 -27 19q-9 0 -18 -2t-28.5 -5.5t-40.5 -9.5q-19 -2 -14 18q4 16 13 27.5t18 13.5l140 10
l37 63l35 56q42 66 86 126q62 84 108 130q78 77 111 106q64 57 116 88q62 37 111 37q26 0 49 -10zM848 938q-9 6 -22 6q-51 0 -157 -89q-86 -72 -178 -174q-54 -60 -122 -160q-55 -81 -61 -98l-18 -43q6 1 13.5 1h11.5q39 0 81.5 -7t90.5 -23q66 -22 109 -58q34 -29 77 -92
l97 372l58 176q33 105 33 148q0 18 -2.5 26.5t-10.5 14.5zM1065 1051l-2 -8q-14 -13 -24 -12q-17 3 -40 23q-12 10 -44 42q-9 9 -26 33q-13 18 -19 19q-3 0 -21 -12q-60 -40 -68 -45q-41 -24 -73 -40q-41 -20 -58 -23q-11 -2 -21 13q-5 8 0 10q12 5 55 29l81 47q30 18 62 40
q51 35 62 42l31 -46q11 -15 29.5 -37t42.5 -46t33 -29z" />
    <glyph glyph-name="Ecircumflex" unicode="&#xca;" horiz-adv-x="593" 
d="M704 915q0 -27 -49 -89l-98 -116q-60 -71 -75 -104q-9 -15 -18 -15t-20.5 11.5t-11.5 22.5q0 6 2 11q9 13 12 18q22 34 61 78l74 78.5t59 67.5q9 12 9 27q0 11 -5 21t-16.5 16t-26.5 6q-58 0 -147.5 -61t-129.5 -132q-25 -45 -37.5 -86.5t-12.5 -83.5q0 -57 26 -106
l24 -45q9 -19 9 -46q0 -9 -9 -18q-3 -3 -39 -31l-64 -49q-44 -34 -72 -77.5t-28 -83.5q0 -42 18.5 -59t64.5 -22q6 -1 18 -1q88 0 194 88q89 74 132 153q9 17 23 17q5 0 14 -4.5t9 -19.5q0 -10 -6 -19q-78 -124 -176.5 -193t-204.5 -69q-54 0 -85 17q-57 31 -57 115
q0 81 70 150l147 122q-27 60 -45 108.5t-18 77.5q0 131 117 260q124 137 270 137q48 0 75 -24q23 -21 23 -48zM785 1053l-2 -8q-14 -13 -24 -12q-17 3 -40 23q-12 10 -44 42q-9 9 -26 33q-13 18 -19 19q-3 0 -21 -12q-60 -40 -68 -45q-41 -24 -73 -40q-41 -20 -58 -23
q-11 -2 -21 13q-5 8 0 10q12 5 55 29l81 47q30 18 62 40q51 35 62 42l31 -46q11 -15 29.5 -37t42.5 -46t33 -29z" />
    <glyph glyph-name="Aacute" unicode="&#xc1;" horiz-adv-x="846" 
d="M882 986q17 -8 25.5 -26.5t8.5 -42.5q0 -44 -27 -129q-37 -116 -40 -129q-19 -85 -54 -207q-44 -156 -53 -191q-24 -96 -24 -142q0 -11 1 -29.5t1 -27.5q0 -19 -2 -30q-6 -36 -36 -36q-14 0 -25 11.5t-11 30.5q0 8 2 19t2 28q0 55 -30 104.5t-85 81.5t-141 53
q-69 17 -113 17q-14 0 -16 -3q-8 1 -38.5 -53.5t-53 -105t-36.5 -87.5t-25 -70q-5 -13 -12.5 -18.5t-25.5 -5.5q-24 0 -24 14q0 4 4 14q39 102 76 182q2 4 33 56q23 38 23 55q0 19 -27 19q-9 0 -18 -2t-28.5 -5.5t-40.5 -9.5q-19 -2 -14 18q4 16 13 27.5t18 13.5l140 10
l37 63l35 56q42 66 86 126q62 84 108 130q78 77 111 106q64 57 116 88q62 37 111 37q26 0 49 -10zM848 938q-9 6 -22 6q-51 0 -157 -89q-86 -72 -178 -174q-54 -60 -122 -160q-55 -81 -61 -98l-18 -43q6 1 13.5 1h11.5q39 0 81.5 -7t90.5 -23q66 -22 109 -58q34 -29 77 -92
l97 372l58 176q33 105 33 148q0 18 -2.5 26.5t-10.5 14.5zM999 1227q-14 -21 -55 -53q-33 -26 -81.5 -56t-100 -56t-75.5 -30q-6 -1 -12 7t-6 16t5 9q15 6 67 37l98 60q24 15 65 44q71 51 87 56q6 2 9 -4t3 -15q0 -10 -4 -15z" />
    <glyph glyph-name="Edieresis" unicode="&#xcb;" horiz-adv-x="610" 
d="M704 915q0 -27 -49 -89l-98 -116q-60 -71 -75 -104q-9 -15 -18 -15t-20.5 11.5t-11.5 22.5q0 6 2 11q9 13 12 18q22 34 61 78l74 78.5t59 67.5q9 12 9 27q0 11 -5 21t-16.5 16t-26.5 6q-58 0 -147.5 -61t-129.5 -132q-25 -45 -37.5 -86.5t-12.5 -83.5q0 -57 26 -106
l24 -45q9 -19 9 -46q0 -9 -9 -18q-3 -3 -39 -31l-64 -49q-44 -34 -72 -77.5t-28 -83.5q0 -42 18.5 -59t64.5 -22q6 -1 18 -1q88 0 194 88q89 74 132 153q9 17 23 17q5 0 14 -4.5t9 -19.5q0 -10 -6 -19q-78 -124 -176.5 -193t-204.5 -69q-54 0 -85 17q-57 31 -57 115
q0 81 70 150l147 122q-27 60 -45 108.5t-18 77.5q0 131 117 260q124 137 270 137q48 0 75 -24q23 -21 23 -48zM767 1067q-9 -15 -24 -25.5t-30 -10.5q-11 0 -19.5 8t-8.5 22q0 7 3.5 17.5t14 27t22.5 27.5t25 11q3 0 11 -2q18 -7 18 -32q0 -22 -12 -43zM620 1067
q-8 -15 -23 -25.5t-30 -10.5q-11 0 -19 7q-11 10 -11 26q0 10 3.5 19.5t11.5 22.5q12 18 21 27q13 12 28 12q7 0 15 -3.5t12 -12t4 -20.5q0 -21 -12 -42z" />
    <glyph glyph-name="Egrave" unicode="&#xc8;" horiz-adv-x="610" 
d="M704 915q0 -27 -49 -89l-98 -116q-60 -71 -75 -104q-9 -15 -18 -15t-20.5 11.5t-11.5 22.5q0 6 2 11q9 13 12 18q22 34 61 78l74 78.5t59 67.5q9 12 9 27q0 11 -5 21t-16.5 16t-26.5 6q-58 0 -147.5 -61t-129.5 -132q-25 -45 -37.5 -86.5t-12.5 -83.5q0 -57 26 -106
l24 -45q9 -19 9 -46q0 -9 -9 -18q-3 -3 -39 -31l-64 -49q-44 -34 -72 -77.5t-28 -83.5q0 -42 18.5 -59t64.5 -22q6 -1 18 -1q88 0 194 88q89 74 132 153q9 17 23 17q5 0 14 -4.5t9 -19.5q0 -10 -6 -19q-78 -124 -176.5 -193t-204.5 -69q-54 0 -85 17q-57 31 -57 115
q0 81 70 150l147 122q-27 60 -45 108.5t-18 77.5q0 131 117 260q124 137 270 137q48 0 75 -24q23 -21 23 -48zM759 1050q6 -5 -5.5 -14.5t-19.5 -6.5q-19 7 -46.5 33.5t-55.5 60.5q-48 56 -68 101q-3 8 9 19.5t17 4.5q11 -17 32.5 -45.5t43.5 -54.5q30 -35 53 -59
q28 -30 40 -39z" />
    <glyph glyph-name="Iacute" unicode="&#xcd;" horiz-adv-x="512" 
d="M567 991q17 -14 25 -41.5t8 -64.5q0 -116 -72 -316q-62 -174 -131 -291q-60 -105 -146 -188q-104 -101 -183 -101q-25 0 -48 12q-15 6 -19 8q-7 3 -7 9q0 7 10.5 27.5t21.5 20.5q9 0 19.5 -6.5t22 -12.5t20.5 -6q4 0 8 2q92 42 176 146q72 89 142 231q51 102 92.5 248.5
t41.5 223.5q0 53 -22 53q-44 0 -102 -69q-48 -58 -93 -146q-21 -43 -33.5 -86t-18.5 -78.5t-10.5 -46t-22.5 -30.5l-28 -31q-6 0 -6 35q-4 43 22.5 133.5t67.5 159.5q48 83 107 144q71 74 122 74q20 0 36 -13zM727 1227q-14 -21 -55 -53q-33 -26 -81.5 -56t-100 -56
t-75.5 -30q-6 -1 -12 7t-6 16t5 9q15 6 67 37l98 60q24 15 65 44q71 51 87 56q6 2 9 -4t3 -15q0 -10 -4 -15z" />
    <glyph glyph-name="Icircumflex" unicode="&#xce;" horiz-adv-x="512" 
d="M567 991q17 -14 25 -41.5t8 -64.5q0 -116 -72 -316q-62 -174 -131 -291q-60 -105 -146 -188q-104 -101 -183 -101q-25 0 -48 12q-15 6 -19 8q-7 3 -7 9q0 7 10.5 27.5t21.5 20.5q9 0 19.5 -6.5t22 -12.5t20.5 -6q4 0 8 2q92 42 176 146q72 89 142 231q51 102 92.5 248.5
t41.5 223.5q0 53 -22 53q-44 0 -102 -69q-48 -58 -93 -146q-21 -43 -33.5 -86t-18.5 -78.5t-10.5 -46t-22.5 -30.5l-28 -31q-6 0 -6 35q-4 43 22.5 133.5t67.5 159.5q48 83 107 144q71 74 122 74q20 0 36 -13zM769 1053l-2 -8q-14 -13 -24 -12q-17 3 -40 23q-12 10 -44 42
q-9 9 -26 33q-13 18 -19 19q-3 0 -21 -12q-60 -40 -68 -45q-41 -24 -73 -40q-41 -20 -58 -23q-11 -2 -21 13q-5 8 0 10q12 5 55 29l81 47q30 18 62 40q51 35 62 42l31 -46q11 -15 29.5 -37t42.5 -46t33 -29z" />
    <glyph glyph-name="Idieresis" unicode="&#xcf;" horiz-adv-x="512" 
d="M567 991q17 -14 25 -41.5t8 -64.5q0 -116 -72 -316q-62 -174 -131 -291q-60 -105 -146 -188q-104 -101 -183 -101q-25 0 -48 12q-15 6 -19 8q-7 3 -7 9q0 7 10.5 27.5t21.5 20.5q9 0 19.5 -6.5t22 -12.5t20.5 -6q4 0 8 2q92 42 176 146q72 89 142 231q51 102 92.5 248.5
t41.5 223.5q0 53 -22 53q-44 0 -102 -69q-48 -58 -93 -146q-21 -43 -33.5 -86t-18.5 -78.5t-10.5 -46t-22.5 -30.5l-28 -31q-6 0 -6 35q-4 43 22.5 133.5t67.5 159.5q48 83 107 144q71 74 122 74q20 0 36 -13zM671 1067q-9 -15 -24 -25.5t-30 -10.5q-11 0 -19.5 8t-8.5 22
q0 7 3.5 17.5t14 27t22.5 27.5t25 11q3 0 11 -2q18 -7 18 -32q0 -22 -12 -43zM524 1067q-8 -15 -23 -25.5t-30 -10.5q-11 0 -19 7q-11 10 -11 26q0 10 3.5 19.5t11.5 22.5q12 18 21 27q13 12 28 12q7 0 15 -3.5t12 -12t4 -20.5q0 -21 -12 -42z" />
    <glyph glyph-name="Igrave" unicode="&#xcc;" horiz-adv-x="504" 
d="M567 991q17 -14 25 -41.5t8 -64.5q0 -116 -72 -316q-62 -174 -131 -291q-60 -105 -146 -188q-104 -101 -183 -101q-25 0 -48 12q-15 6 -19 8q-7 3 -7 9q0 7 10.5 27.5t21.5 20.5q9 0 19.5 -6.5t22 -12.5t20.5 -6q4 0 8 2q92 42 176 146q72 89 142 231q51 102 92.5 248.5
t41.5 223.5q0 53 -22 53q-44 0 -102 -69q-48 -58 -93 -146q-21 -43 -33.5 -86t-18.5 -78.5t-10.5 -46t-22.5 -30.5l-28 -31q-6 0 -6 35q-4 43 22.5 133.5t67.5 159.5q48 83 107 144q71 74 122 74q20 0 36 -13zM671 1050q6 -5 -5.5 -14.5t-19.5 -6.5q-19 7 -46.5 33.5
t-55.5 60.5q-48 56 -68 101q-3 8 9 19.5t17 4.5q11 -17 32.5 -45.5t43.5 -54.5q30 -35 53 -59q28 -30 40 -39z" />
    <glyph glyph-name="Oacute" unicode="&#xd3;" horiz-adv-x="781" 
d="M862 732q0 -108 -69 -274q-79 -191 -195 -312q-142 -149 -303 -149q-83 0 -137 61t-54 165q0 103 33 208q28 88 79 179q39 69 92 138q78 102 175.5 167.5t196.5 78.5q4 0 12 1.5t13 1.5q18 0 25 -12.5t7 -18.5q0 -9 -16 -12t-24 -4q-138 -22 -260 -136
q-105 -99 -181 -249q-68 -134 -89 -262q-3 -21 -5 -39t-2 -37q0 -79 30 -124q35 -52 104 -52q13 0 20 1q182 19 328 232q136 199 167 446q1 5 1 15q0 39 -22.5 70t-55.5 31q-61 0 -125 -64q-69 -69 -110 -184q-5 -14 -10 -18q-2 -2 -24 -14q-12 -6 -19 -6q-13 0 -13 18
q0 12 6 24q57 140 129.5 213.5t155.5 73.5q72 0 106 -41t34 -116zM919 1227q-14 -21 -55 -53q-33 -26 -81.5 -56t-100 -56t-75.5 -30q-6 -1 -12 7t-6 16t5 9q15 6 67 37l98 60q24 15 65 44q71 51 87 56q6 2 9 -4t3 -15q0 -10 -4 -15z" />
    <glyph glyph-name="Ocircumflex" unicode="&#xd4;" horiz-adv-x="781" 
d="M862 732q0 -108 -69 -274q-79 -191 -195 -312q-142 -149 -303 -149q-83 0 -137 61t-54 165q0 103 33 208q28 88 79 179q39 69 92 138q78 102 175.5 167.5t196.5 78.5q4 0 12 1.5t13 1.5q18 0 25 -12.5t7 -18.5q0 -9 -16 -12t-24 -4q-138 -22 -260 -136
q-105 -99 -181 -249q-68 -134 -89 -262q-3 -21 -5 -39t-2 -37q0 -79 30 -124q35 -52 104 -52q13 0 20 1q182 19 328 232q136 199 167 446q1 5 1 15q0 39 -22.5 70t-55.5 31q-61 0 -125 -64q-69 -69 -110 -184q-5 -14 -10 -18q-2 -2 -24 -14q-12 -6 -19 -6q-13 0 -13 18
q0 12 6 24q57 140 129.5 213.5t155.5 73.5q72 0 106 -41t34 -116zM937 1053l-2 -8q-14 -13 -24 -12q-17 3 -40 23q-12 10 -44 42q-9 9 -26 33q-13 18 -19 19q-3 0 -21 -12q-60 -40 -68 -45q-41 -24 -73 -40q-41 -20 -58 -23q-11 -2 -21 13q-5 8 0 10q12 5 55 29l81 47
q30 18 62 40q51 35 62 42l31 -46q11 -15 29.5 -37t42.5 -46t33 -29z" />
    <glyph glyph-name="Ograve" unicode="&#xd2;" horiz-adv-x="780" 
d="M862 732q0 -108 -69 -274q-79 -191 -195 -312q-142 -149 -303 -149q-83 0 -137 61t-54 165q0 103 33 208q28 88 79 179q39 69 92 138q78 102 175.5 167.5t196.5 78.5q4 0 12 1.5t13 1.5q18 0 25 -12.5t7 -18.5q0 -9 -16 -12t-24 -4q-138 -22 -260 -136
q-105 -99 -181 -249q-68 -134 -89 -262q-3 -21 -5 -39t-2 -37q0 -79 30 -124q35 -52 104 -52q13 0 20 1q182 19 328 232q136 199 167 446q1 5 1 15q0 39 -22.5 70t-55.5 31q-61 0 -125 -64q-69 -69 -110 -184q-5 -14 -10 -18q-2 -2 -24 -14q-12 -6 -19 -6q-13 0 -13 18
q0 12 6 24q57 140 129.5 213.5t155.5 73.5q72 0 106 -41t34 -116zM863 1050q6 -5 -5.5 -14.5t-19.5 -6.5q-19 7 -46.5 33.5t-55.5 60.5q-48 56 -68 101q-3 8 9 19.5t17 4.5q11 -17 32.5 -45.5t43.5 -54.5q30 -35 53 -59q28 -30 40 -39z" />
    <glyph glyph-name="Uacute" unicode="&#xda;" horiz-adv-x="838" 
d="M1022 810l-64 -121q-36 -70 -54 -110q-72 -159 -87 -195q-45 -104 -67 -182q-27 -93 -27 -166v-12q0 -18 -3 -22q-3 -3 -21 -11q-22 -8 -30 -8q-14 0 -12 23q5 56 15.5 102.5t49.5 167.5q15 47 42.5 109.5l56.5 128.5q1 4 -1 8t-6 2q-21 -13 -93 -96q-41 -48 -72 -78
l-153 -152q-94 -92 -145 -133q-74 -59 -129 -79q-4 -2 -7 -2h-7q-15 0 -25.5 10.5t-10.5 28.5q0 6 1 10q13 57 52 156q34 85 88 200l168 360q15 32 24 64.5t9 61.5q0 33 -14.5 44.5t-32.5 11.5q-47 0 -114 -74q-54 -60 -107 -148q-25 -41 -45 -100q-7 -20 -24 -81
q-5 -17 -9 -33q-7 -20 -35 -31q-15 -6 -21 -6q-7 0 -7 9q2 12 3 21q10 64 43 140q28 65 70 135q60 100 118 154q69 64 134 64q30 0 62 -15q18 -8 26 -28.5t8 -48.5q0 -34 -8.5 -70t-25.5 -72l-274 -604q-10 -22 -17 -53.5t-2 -34.5t10 -3q8 0 17 7q3 2 16 14q1 0 41 35
l92 82q60 55 96 92l224.5 232t184.5 209q12 15 33 59q17 35 34 47q6 3 12 3q13 0 18 -8.5t2 -13.5zM991 1227q-14 -21 -55 -53q-33 -26 -81.5 -56t-100 -56t-75.5 -30q-6 -1 -12 7t-6 16t5 9q15 6 67 37l98 60q24 15 65 44q71 51 87 56q6 2 9 -4t3 -15q0 -10 -4 -15z" />
    <glyph glyph-name="Ucircumflex" unicode="&#xdb;" horiz-adv-x="838" 
d="M1022 810l-64 -121q-36 -70 -54 -110q-72 -159 -87 -195q-45 -104 -67 -182q-27 -93 -27 -166v-12q0 -18 -3 -22q-3 -3 -21 -11q-22 -8 -30 -8q-14 0 -12 23q5 56 15.5 102.5t49.5 167.5q15 47 42.5 109.5l56.5 128.5q1 4 -1 8t-6 2q-21 -13 -93 -96q-41 -48 -72 -78
l-153 -152q-94 -92 -145 -133q-74 -59 -129 -79q-4 -2 -7 -2h-7q-15 0 -25.5 10.5t-10.5 28.5q0 6 1 10q13 57 52 156q34 85 88 200l168 360q15 32 24 64.5t9 61.5q0 33 -14.5 44.5t-32.5 11.5q-47 0 -114 -74q-54 -60 -107 -148q-25 -41 -45 -100q-7 -20 -24 -81
q-5 -17 -9 -33q-7 -20 -35 -31q-15 -6 -21 -6q-7 0 -7 9q2 12 3 21q10 64 43 140q28 65 70 135q60 100 118 154q69 64 134 64q30 0 62 -15q18 -8 26 -28.5t8 -48.5q0 -34 -8.5 -70t-25.5 -72l-274 -604q-10 -22 -17 -53.5t-2 -34.5t10 -3q8 0 17 7q3 2 16 14q1 0 41 35
l92 82q60 55 96 92l224.5 232t184.5 209q12 15 33 59q17 35 34 47q6 3 12 3q13 0 18 -8.5t2 -13.5zM993 1053l-2 -8q-14 -13 -24 -12q-17 3 -40 23q-12 10 -44 42q-9 9 -26 33q-13 18 -19 19q-3 0 -21 -12q-60 -40 -68 -45q-41 -24 -73 -40q-41 -20 -58 -23q-11 -2 -21 13
q-5 8 0 10q12 5 55 29l81 47q30 18 62 40q51 35 62 42l31 -46q11 -15 29.5 -37t42.5 -46t33 -29z" />
    <glyph glyph-name="Ugrave" unicode="&#xd9;" horiz-adv-x="838" 
d="M1022 810l-64 -121q-36 -70 -54 -110q-72 -159 -87 -195q-45 -104 -67 -182q-27 -93 -27 -166v-12q0 -18 -3 -22q-3 -3 -21 -11q-22 -8 -30 -8q-14 0 -12 23q5 56 15.5 102.5t49.5 167.5q15 47 42.5 109.5l56.5 128.5q1 4 -1 8t-6 2q-21 -13 -93 -96q-41 -48 -72 -78
l-153 -152q-94 -92 -145 -133q-74 -59 -129 -79q-4 -2 -7 -2h-7q-15 0 -25.5 10.5t-10.5 28.5q0 6 1 10q13 57 52 156q34 85 88 200l168 360q15 32 24 64.5t9 61.5q0 33 -14.5 44.5t-32.5 11.5q-47 0 -114 -74q-54 -60 -107 -148q-25 -41 -45 -100q-7 -20 -24 -81
q-5 -17 -9 -33q-7 -20 -35 -31q-15 -6 -21 -6q-7 0 -7 9q2 12 3 21q10 64 43 140q28 65 70 135q60 100 118 154q69 64 134 64q30 0 62 -15q18 -8 26 -28.5t8 -48.5q0 -34 -8.5 -70t-25.5 -72l-274 -604q-10 -22 -17 -53.5t-2 -34.5t10 -3q8 0 17 7q3 2 16 14q1 0 41 35
l92 82q60 55 96 92l224.5 232t184.5 209q12 15 33 59q17 35 34 47q6 3 12 3q13 0 18 -8.5t2 -13.5zM943 1050q6 -5 -5.5 -14.5t-19.5 -6.5q-19 7 -46.5 33.5t-55.5 60.5q-48 56 -68 101q-3 8 9 19.5t17 4.5q11 -17 32.5 -45.5t43.5 -54.5q30 -35 53 -59q28 -30 40 -39z" />
  </font>
</defs>
</svg>
