<svg xmlns="http://www.w3.org/2000/svg" width="24" height="24" viewBox="0 0 24 24">
    <path fill="#000" fill-rule="nonzero" d="M18.667 18h-.334v-.333c0-.434-.279-.801-.666-.939v-4.79a.998.998 0 0 0 .666-.938v-.333h.334c.184 0 .333-.15.333-.334v-1h.333a.333.333 0 1 0 .179-.615l-7.333-4.666a.334.334 0 0 0-.358 0L4.487 8.719a.335.335 0 0 0 .18.614H5v1c0 .184.15.334.333.334h.334V11c0 .434.279.8.666.939v4.789a.998.998 0 0 0-.666.939V18h-.334c-.551 0-1 .449-1 1v.667c0 .184.15.333.334.333h14.666c.184 0 .334-.15.334-.333V19c0-.551-.449-1-1-1zm-1-7c0 .184-.15.333-.334.333H16a.333.333 0 0 1-.333-.333v-.333h2V11zM13 16.728v-4.79a.998.998 0 0 0 .667-.938v-.333H15V11c0 .434.28.8.667.939v4.789a.998.998 0 0 0-.667.939V18h-1.333v-.333c0-.434-.28-.801-.667-.939zm-4.667 0v-4.79A.998.998 0 0 0 9 11v-.333h1.333V11c0 .434.28.8.667.939v4.789a.998.998 0 0 0-.667.939V18H9v-.333c0-.434-.28-.801-.667-.939zm-1.666-5.395A.333.333 0 0 1 6.333 11v-.333h2V11c0 .184-.149.333-.333.333H6.667zm1 .667v4.667H7V12h.667zM11 17.667c0-.184.15-.334.333-.334h1.334c.184 0 .333.15.333.334V18h-2v-.333zm.667-1V12h.666v4.667h-.666zm1-5.334h-1.334A.333.333 0 0 1 11 11v-.333h2V11c0 .184-.15.333-.333.333zm3 6.334c0-.184.149-.334.333-.334h1.333c.184 0 .334.15.334.334V18h-2v-.333zm.666-1V12H17v4.667h-.667zM12 4.729l6.189 3.938H5.81L12 4.729zM5.667 10v-.667h12.666V10H5.667zm.666 7.667c0-.184.15-.334.334-.334H8c.184 0 .333.15.333.334V18h-2v-.333zM19 19.333H5V19c0-.184.15-.333.333-.333h13.334c.184 0 .333.149.333.333v.333zM14.185 7.39l-2-1.333a.334.334 0 0 0-.37 0l-2 1.333A.333.333 0 0 0 10 8h4a.333.333 0 0 0 .185-.61zM11.1 7.333l.898-.599.9.6H11.1z"/>
</svg>
