<?xml version="1.0" encoding="UTF-8"?>
<svg width="16px" height="16px" viewBox="0 0 16 16" version="1.1" xmlns="http://www.w3.org/2000/svg" xmlns:xlink="http://www.w3.org/1999/xlink">
    <!-- Generator: Sketch 48.1 (47250) - http://www.bohemiancoding.com/sketch -->
    <title>delivery</title>
    <desc>Created with Sketch.</desc>
    <defs></defs>
    <g id="Pricing-Flow---Step-1:-Writer-Selection" stroke="none" stroke-width="1" fill="none" fill-rule="evenodd" transform="translate(-235.000000, -829.000000)">
        <g id="total-price-fixed-footer" transform="translate(0.000000, 795.000000)" fill="#9B9B9B">
            <g id="Group-4">
                <g id="Group-5" transform="translate(50.000000, 30.000000)">
                    <g id="get-help-copy" transform="translate(185.000000, 0.000000)">
                        <g id="delivery" transform="translate(0.000000, 5.000000)">
                            <g id="shipping-box" transform="translate(0.000000, -1.000000)">
                                <path d="M5.53333333,10.7333333 C5.4,10.6666667 5.33333333,10.6666667 5.2,10.6666667 C5.13333333,10.6666667 5.13333333,10.7333333 5.13333333,10.7333333 L4.13333333,11.7333333 C4,11.8666667 4,12.0666667 4.13333333,12.2 C4.26666667,12.3333333 4.46666667,12.3333333 4.6,12.2 L5,11.8 L5,13 C5,13.2 5.13333333,13.3333333 5.33333333,13.3333333 C5.53333333,13.3333333 5.66666667,13.2 5.66666667,13 L5.66666667,11.8 L6.06666667,12.2 C6.13333333,12.2666667 6.2,12.2666667 6.33333333,12.2666667 C6.46666667,12.2666667 6.53333333,12.2666667 6.6,12.2 C6.73333333,12.0666667 6.73333333,11.8666667 6.6,11.7333333 L5.53333333,10.7333333 Z" id="Shape" fill-rule="nonzero"></path>
                                <path d="M15.4,2 L8.06666667,0 L8,0 L7.93333333,0 L0.6,2 C0.466666667,2.06666667 0.333333333,2.2 0.333333333,2.33333333 L0.333333333,13.6666667 C0.333333333,13.8 0.466666667,13.9333333 0.6,14 L7.93333333,16 L8,16 L8.06666667,16 L15.4,14 C15.5333333,13.9333333 15.6666667,13.8 15.6666667,13.6666667 L15.6666667,2.33333333 C15.6666667,2.2 15.5333333,2.06666667 15.4,2 Z M5,1.53333333 L5,7.53333333 L4.66666667,7.86666667 L4.26666667,7.46666667 C4.13333333,7.33333333 3.93333333,7.33333333 3.8,7.46666667 L3.4,7.86666667 L3.06666667,7.53333333 L3,2.06666667 L5,1.53333333 Z M1,13.4 L1,2.6 L2.33333333,2.26666667 L2.33333333,7.73333333 C2.33333333,7.8 2.4,7.93333333 2.4,8 L3.06666667,8.66666667 C3.2,8.8 3.4,8.8 3.53333333,8.66666667 L3.93333333,8.26666667 L4.33333333,8.66666667 C4.4,8.73333333 4.46666667,8.73333333 4.6,8.73333333 C4.73333333,8.73333333 4.8,8.73333333 4.86666667,8.66666667 L5.53333333,8 C5.6,7.93333333 5.6,7.86666667 5.6,7.73333333 L5.6,1.33333333 L7.6,0.8 L7.66666667,15.2 L1,13.4 Z M13,2 L13,7.46666667 L12.6666667,7.8 L12.2666667,7.4 C12.1333333,7.26666667 11.9333333,7.26666667 11.8,7.4 L11.4,7.8 L11.0666667,7.46666667 L11,1.46666667 L13,2 Z M8.33333333,15.2 L8.33333333,0.733333333 L10.3333333,1.26666667 L10.3333333,7.6 C10.3333333,7.66666667 10.4,7.8 10.4,7.86666667 L11.0666667,8.53333333 C11.2,8.66666667 11.4,8.66666667 11.5333333,8.53333333 L11.9333333,8.13333333 L12.3333333,8.53333333 C12.4,8.6 12.4666667,8.6 12.6,8.6 C12.7333333,8.6 12.8,8.6 12.8666667,8.53333333 L13.5333333,7.86666667 C13.6,7.8 13.6,7.73333333 13.6,7.6 L13.6,2.13333333 L14.9333333,2.46666667 L15,13.4 L8.33333333,15.2 Z" id="Shape" fill-rule="nonzero"></path>
                                <path d="M11.2,12 L9.2,12.6666667 C9,12.7333333 8.93333333,12.9333333 9,13.0666667 C9.06666667,13.2 9.2,13.2666667 9.33333333,13.2666667 C9.4,13.2666667 9.4,13.2666667 9.46666667,13.2666667 L11.4666667,12.6 C11.6666667,12.5333333 11.7333333,12.3333333 11.6666667,12.2 C11.6,12.0666667 11.4,11.9333333 11.2,12 Z" id="Shape" fill-rule="nonzero"></path>
                            </g>
                        </g>
                    </g>
                </g>
            </g>
        </g>
    </g>
</svg>