<svg width="15" height="18" viewBox="0 0 15 18" fill="none" xmlns="http://www.w3.org/2000/svg">
<path d="M12.867 7.29354L7.85261 12.8001C7.76848 12.8925 7.65069 12.9479 7.5329 12.9479C7.41511 12.9479 7.29733 12.8925 7.21319 12.8001L2.19877 7.29354C2.01367 7.09028 2.01367 6.77615 2.19877 6.59137C2.38386 6.38811 2.66992 6.38811 2.83819 6.59137L7.06175 11.2294V0.789196C7.07858 0.512022 7.2805 0.290283 7.5329 0.290283C7.78531 0.290283 7.98723 0.512022 7.98723 0.789196V11.2294L12.2108 6.59137C12.3959 6.38811 12.6819 6.38811 12.8502 6.59137C13.0353 6.77615 13.0353 7.09028 12.867 7.29354ZM14.3646 16.4218V12.8925C14.3646 12.6153 14.1627 12.3935 13.9103 12.3935C13.6579 12.3935 13.456 12.6153 13.456 12.8925V15.9229H1.60983V12.8925C1.60983 12.6153 1.4079 12.3935 1.1555 12.3935C0.903095 12.3935 0.701172 12.6153 0.701172 12.8925V16.4218C0.701172 16.699 0.903095 16.9207 1.1555 16.9207H13.9271C14.1627 16.9207 14.3646 16.699 14.3646 16.4218Z" fill="#A27F4F" stroke="#A27F4F" stroke-width="0.5" stroke-miterlimit="10"/>
</svg>
