<?xml version="1.0" encoding="UTF-8"?>
<svg width="16px" height="15px" viewBox="0 0 16 15" version="1.1" xmlns="http://www.w3.org/2000/svg" xmlns:xlink="http://www.w3.org/1999/xlink">
    <!-- Generator: Sketch 48.1 (47250) - http://www.bohemiancoding.com/sketch -->
    <title>gift</title>
    <desc>Created with Sketch.</desc>
    <defs></defs>
    <g id="Pricing-Flow---Step-1:-Writer-Selection" stroke="none" stroke-width="1" fill="none" fill-rule="evenodd" transform="translate(-389.000000, -829.000000)">
        <g id="total-price-fixed-footer" transform="translate(0.000000, 795.000000)" fill="#9B9B9B">
            <g id="Group-4">
                <g id="Group-5" transform="translate(50.000000, 30.000000)">
                    <g id="get-help-copy-2" transform="translate(339.000000, 0.000000)">
                        <g id="gift" transform="translate(0.000000, 4.000000)">
                            <g id="gift-box">
                                <path d="M14.9333333,7.75862069 L1.06666667,7.75862069 C0.533333333,7.75862069 0.266666667,7.5 0.266666667,6.98275862 L0.266666667,5.17241379 C0.266666667,4.65517241 0.533333333,4.13793103 1.06666667,4.13793103 L14.9333333,4.13793103 C15.4666667,4.13793103 15.7333333,4.65517241 15.7333333,5.17241379 L15.7333333,6.98275862 C15.7333333,7.5 15.4666667,7.75862069 14.9333333,7.75862069 Z M1.06666667,4.65517241 C0.906666667,4.65517241 0.8,4.96551724 0.8,5.17241379 L0.8,6.98275862 C0.8,7.18965517 0.853333333,7.24137931 1.06666667,7.24137931 L14.9333333,7.24137931 C15.1466667,7.24137931 15.2,7.18965517 15.2,6.98275862 L15.2,5.17241379 C15.2,4.96551724 15.0933333,4.65517241 14.9333333,4.65517241 L1.06666667,4.65517241 Z" id="Shape" fill-rule="nonzero"></path>
                                <path d="M13.6,15 L2.4,15 C1.49333333,15 0.8,14.0172414 0.8,13.1896552 L0.8,7.5 C0.8,7.34482759 0.906666667,7.24137931 1.06666667,7.24137931 L14.9333333,7.24137931 C15.0933333,7.24137931 15.2,7.34482759 15.2,7.5 L15.2,13.1896552 C15.2,14.0172414 14.5066667,15 13.6,15 Z M1.33333333,7.75862069 L1.33333333,13.1896552 C1.33333333,13.7586207 1.81333333,14.4827586 2.4,14.4827586 L13.6,14.4827586 C14.1866667,14.4827586 14.6666667,13.7586207 14.6666667,13.1896552 L14.6666667,7.75862069 L1.33333333,7.75862069 Z" id="Shape" fill-rule="nonzero"></path>
                                <path d="M7.89333333,4.39655172 C6.13333333,4.39655172 4.53333333,3.25862069 4.05333333,1.70689655 C3.94666667,1.39655172 4.05333333,1.03448276 4.26666667,0.775862069 C4.53333333,0.517241379 4.90666667,0.413793103 5.22666667,0.517241379 C6.93333333,1.03448276 8.16,2.53448276 8.16,4.13793103 C8.16,4.29310345 8,4.39655172 7.89333333,4.39655172 Z M4.96,1.03448276 C4.85333333,1.03448276 4.74666667,1.0862069 4.69333333,1.18965517 C4.53333333,1.29310345 4.48,1.44827586 4.53333333,1.60344828 C4.90666667,2.84482759 6.18666667,3.77586207 7.57333333,3.87931034 C7.46666667,2.5862069 6.45333333,1.44827586 5.12,1.03448276 C5.06666667,1.03448276 5.01333333,1.03448276 4.96,1.03448276 Z" id="Shape" fill-rule="nonzero"></path>
                                <path d="M7.89333333,4.39655172 C7.73333333,4.39655172 7.62666667,4.29310345 7.62666667,4.13793103 C7.62666667,2.43103448 8.64,1.03448276 10.24,0.568965517 C10.56,0.465517241 10.9333333,0.568965517 11.2,0.827586207 C11.4666667,1.0862069 11.5733333,1.44827586 11.4666667,1.75862069 C10.9333333,3.36206897 9.54666667,4.39655172 7.89333333,4.39655172 Z M10.5066667,1.03448276 C10.4533333,1.03448276 10.4533333,1.03448276 10.4,1.03448276 C9.12,1.39655172 8.26666667,2.48275862 8.16,3.82758621 C9.44,3.72413793 10.5066667,2.84482759 10.9333333,1.55172414 C10.9866667,1.39655172 10.9333333,1.24137931 10.8266667,1.13793103 C10.72,1.0862069 10.6133333,1.03448276 10.5066667,1.03448276 Z" id="Shape" fill-rule="nonzero"></path>
                                <path d="M8,14.7413793 C7.84,14.7413793 7.73333333,14.637931 7.73333333,14.4827586 L7.73333333,4.70689655 L6.02666667,6.15517241 C5.92,6.25862069 5.76,6.25862069 5.65333333,6.15517241 C5.54666667,6.05172414 5.54666667,5.89655172 5.65333333,5.79310345 L7.78666667,3.98275862 C7.84,3.93103448 8,3.87931034 8.05333333,3.93103448 C8.16,3.98275862 8.21333333,4.0862069 8.21333333,4.18965517 L8.21333333,14.5344828 C8.26666667,14.637931 8.16,14.7413793 8,14.7413793 Z" id="Shape" fill-rule="nonzero"></path>
                                <path d="M9.6,6.20689655 C9.54666667,6.20689655 9.44,6.15517241 9.38666667,6.10344828 L7.78666667,4.29310345 C7.68,4.18965517 7.68,4.03448276 7.84,3.93103448 C7.94666667,3.82758621 8.10666667,3.82758621 8.21333333,3.98275862 L9.81333333,5.79310345 C9.92,5.89655172 9.92,6.05172414 9.76,6.15517241 C9.70666667,6.20689655 9.65333333,6.20689655 9.6,6.20689655 Z" id="Shape" fill-rule="nonzero"></path>
                            </g>
                        </g>
                    </g>
                </g>
            </g>
        </g>
    </g>
</svg>