<svg xmlns="http://www.w3.org/2000/svg" width="16" height="16" viewBox="0 0 16 16">
    <path fill="#F06D66" fill-rule="nonzero" d="M15 1.86c.552 0 1 .453 1 1.01v1.347c0 .557-.448 1.01-1 1.01H1c-.552 0-1-.453-1-1.01V2.87c0-.557.448-1.01 1-1.01h3.687c-.199-.487-.103-1.069.289-1.466a1.325 1.325 0 0 1 1.886 0L8 1.544 9.138.394a1.325 1.325 0 0 1 1.886 0c.392.397.488.979.289 1.466H15zM2.276 16c-.53 0-.973-.416-1.003-.95a66.853 66.853 0 0 1 0-7.526c.03-.534.473-.95 1.003-.95h5.058V16H2.276zm6.39-9.427h5.059c.528 0 .972.417 1.002.95.142 2.507.142 5.02 0 7.527-.03.534-.474.95-1.002.95H8.667V6.573z"/>
</svg>
