<svg xmlns="http://www.w3.org/2000/svg" width="24" height="24" viewBox="0 0 24 24">
    <g fill="#000" fill-rule="nonzero">
        <path d="M19.125 18H4.875A1.878 1.878 0 0 1 3 16.125v-8.25C3 6.841 3.842 6 4.875 6h14.25C20.159 6 21 6.842 21 7.875v8.25A1.878 1.878 0 0 1 19.125 18zM4.875 6.75c-.62 0-1.125.505-1.125 1.125v8.25c0 .62.505 1.125 1.125 1.125h14.25c.62 0 1.125-.505 1.125-1.125v-8.25c0-.62-.505-1.125-1.125-1.125H4.875z"/>
        <path d="M20.625 11.25H3.375A.375.375 0 0 1 3 10.875v-2.25c0-.207.168-.375.375-.375h17.25c.207 0 .375.168.375.375v2.25a.375.375 0 0 1-.375.375zM3.75 10.5h16.5V9H3.75v1.5zM10.125 14.25h-4.5a.375.375 0 0 1 0-.75h4.5a.375.375 0 0 1 0 .75zM10.125 15.75h-4.5a.375.375 0 0 1 0-.75h4.5a.375.375 0 0 1 0 .75zM17.625 15.75h-.75c-.62 0-1.125-.505-1.125-1.125v-.75c0-.62.505-1.125 1.125-1.125h.75c.62 0 1.125.505 1.125 1.125v.75c0 .62-.505 1.125-1.125 1.125zm-.75-2.25a.375.375 0 0 0-.375.375v.75c0 .207.168.375.375.375h.75a.375.375 0 0 0 .375-.375v-.75a.375.375 0 0 0-.375-.375h-.75z"/>
    </g>
</svg>
