<svg xmlns="http://www.w3.org/2000/svg" width="18" height="12" viewBox="0 0 18 12">
    <g fill="#9B9B9B" fill-rule="nonzero">
        <path d="M16.125 12H1.875A1.878 1.878 0 0 1 0 10.125v-8.25C0 .841.842 0 1.875 0h14.25C17.159 0 18 .842 18 1.875v8.25A1.878 1.878 0 0 1 16.125 12zM1.875.75C1.255.75.75 1.255.75 1.875v8.25c0 .62.505 1.125 1.125 1.125h14.25c.62 0 1.125-.505 1.125-1.125v-8.25c0-.62-.505-1.125-1.125-1.125H1.875z"/>
        <path d="M9 6.763c-.412 0-.826-.123-1.186-.37l-6.15-4.208a.376.376 0 0 1 .423-.619l6.15 4.208a1.343 1.343 0 0 0 1.525 0l6.15-4.208a.375.375 0 0 1 .425.619l-6.151 4.208c-.36.247-.774.37-1.186.37zM1.875 10.5a.376.376 0 0 1-.24-.664l4.5-3.75a.376.376 0 0 1 .48.577l-4.5 3.75a.373.373 0 0 1-.24.087zM16.125 10.5a.374.374 0 0 1-.24-.087l-4.5-3.75a.376.376 0 0 1 .48-.577l4.5 3.75a.376.376 0 0 1-.24.664z"/>
    </g>
</svg>
