<svg xmlns="http://www.w3.org/2000/svg" width="94" height="25" viewBox="0 0 94 25">
    <g fill="none" fill-rule="nonzero">
        <path fill="#139AD6" d="M72.24 6.403h-5.044c-.297 0-.593.3-.742.6l-2.076 13.181c0 .3.148.45.445.45h2.67c.296 0 .445-.15.445-.45l.593-3.745c0-.3.297-.599.742-.599h1.631c3.412 0 5.34-1.647 5.785-4.943.297-1.348 0-2.546-.593-3.295-.89-.75-2.225-1.199-3.857-1.199m.594 4.944c-.297 1.797-1.632 1.797-2.967 1.797h-.89l.593-3.445c0-.15.149-.3.445-.3h.297c.89 0 1.78 0 2.225.6.297.15.297.599.297 1.348"/>
        <g fill="#263B80">
            <path d="M35.897 6.403h-5.043c-.297 0-.594.3-.742.6l-2.077 13.181c0 .3.149.45.445.45h2.374c.296 0 .593-.3.741-.6l.594-3.595c0-.3.296-.599.741-.599h1.632c3.412 0 5.34-1.647 5.785-4.943.297-1.348 0-2.546-.593-3.295-.89-.75-2.077-1.199-3.857-1.199m.594 4.944c-.297 1.797-1.632 1.797-2.967 1.797h-.742l.593-3.445c0-.15.149-.3.445-.3h.297c.89 0 1.78 0 2.225.6.149.15.297.599.149 1.348M51.176 11.197h-2.374c-.148 0-.445.15-.445.3l-.148.748-.148-.3c-.594-.748-1.632-1.048-2.819-1.048-2.67 0-5.043 2.097-5.488 4.943-.297 1.498.148 2.846.89 3.745s1.78 1.198 3.115 1.198c2.225 0 3.412-1.348 3.412-1.348l-.149.75c0 .299.149.448.445.448h2.225c.297 0 .594-.3.742-.599l1.335-8.388c-.148-.15-.445-.45-.593-.45m-3.412 4.794c-.297 1.348-1.335 2.397-2.818 2.397-.742 0-1.335-.3-1.632-.6-.297-.449-.445-1.048-.445-1.797.148-1.348 1.335-2.397 2.67-2.397.742 0 1.187.3 1.632.6.445.449.593 1.198.593 1.797"/>
        </g>
        <path fill="#139AD6" d="M87.37 11.197h-2.374c-.148 0-.445.15-.445.3l-.148.748-.148-.3c-.594-.748-1.632-1.048-2.819-1.048-2.67 0-5.043 2.097-5.488 4.943-.297 1.498.148 2.846.89 3.745.741.899 1.78 1.198 3.115 1.198 2.225 0 3.412-1.348 3.412-1.348l-.149.75c0 .299.149.448.445.448h2.225c.297 0 .594-.3.742-.599l1.335-8.388c-.148-.15-.297-.45-.593-.45m-3.412 4.794c-.297 1.348-1.335 2.397-2.819 2.397-.741 0-1.335-.3-1.631-.6-.297-.449-.445-1.048-.445-1.797.148-1.348 1.335-2.397 2.67-2.397.742 0 1.187.3 1.632.6.593.449.741 1.198.593 1.797"/>
        <path fill="#263B80" d="M64.08 11.197h-2.52c-.297 0-.446.15-.594.3l-3.264 5.092-1.483-4.793c-.148-.3-.297-.45-.742-.45h-2.373c-.297 0-.445.3-.445.6l2.67 7.939-2.522 3.594c-.148.3 0 .75.297.75h2.373c.297 0 .445-.15.594-.3l8.158-11.834c.445-.449.149-.898-.148-.898"/>
        <path fill="#139AD6" d="M90.188 6.853l-2.077 13.48c0 .3.149.45.445.45h2.077c.297 0 .593-.3.742-.599L93.45 7.003c0-.3-.148-.45-.445-.45h-2.373c-.148-.15-.297 0-.445.3"/>
        <path fill="#263B80" d="M17.059 1.91C16.02.71 14.092.112 11.422.112H4.005c-.445 0-.89.45-1.038.9L0 20.632c0 .45.297.75.593.75h4.599l1.186-7.34v.3c.149-.45.594-.9 1.039-.9h2.225c4.302 0 7.565-1.797 8.603-6.74v-.45c-.148 0-.148 0 0 0 .149-1.947-.148-3.145-1.186-4.343"/>
        <path fill="#139AD6" d="M18.097 6.254v.45c-1.038 5.092-4.302 6.74-8.604 6.74H7.268c-.445 0-.89.449-1.038.898L4.747 23.48c0 .3.148.6.593.6h3.857c.445 0 .89-.3.89-.75v-.15l.741-4.643v-.3c0-.449.445-.748.89-.748h.594c3.708 0 6.675-1.498 7.417-5.992.296-1.797.148-3.445-.742-4.493-.148-.3-.445-.6-.89-.75"/>
        <path fill="#232C65" d="M17.059 5.804c-.149 0-.297-.15-.445-.15-.149 0-.297 0-.445-.15-.594-.149-1.187-.149-1.929-.149H8.455c-.148 0-.297 0-.445.15a.825.825 0 0 0-.445.749l-1.187 7.789v.3c.149-.45.594-.9 1.039-.9h2.225c4.302 0 7.565-1.797 8.603-6.74 0-.15 0-.3.149-.45-.297-.15-.445-.299-.742-.299-.445-.15-.445-.15-.593-.15"/>
    </g>
</svg>
