<svg width="52" height="68" viewBox="0 0 52 68" fill="none" xmlns="http://www.w3.org/2000/svg">
<path opacity="0.7" d="M51.2256 15.697C50.7134 13.6391 49.8596 12.0958 48.4937 9.86646C46.9569 7.80863 44.5664 5.57932 41.8345 3.86447C38.9317 2.14962 35.6875 0.949219 32.4433 0.949219C31.2481 0.949219 29.8821 1.1207 28.6868 1.63516C28.5161 1.63516 28.1746 1.80665 27.8331 1.97813C27.6623 1.97813 27.4916 2.14962 27.3209 2.14962C27.1501 2.14962 27.1501 2.3211 26.9794 2.3211C26.1256 2.66407 25.6134 2.83556 25.1011 3.17853C24.5889 3.5215 24.0766 3.86447 23.3936 4.37893C23.0521 4.55041 22.8814 4.7219 22.7106 4.89338C21.5154 5.9223 20.4909 7.12269 19.8079 8.49458C18.9542 10.2094 18.4419 11.9243 18.1004 13.8106C17.9297 14.4966 17.9297 15.1825 17.9297 15.8684C17.9297 18.6122 18.7834 21.013 20.1494 23.2423C22.5399 27.1865 26.2964 29.4158 29.8821 31.6451C30.2236 31.8166 30.5651 31.9881 30.7358 32.1596C31.0773 32.331 31.2481 32.5025 31.5896 32.674C33.297 33.8744 34.4923 35.2463 35.346 36.6182C36.5413 38.5045 37.0535 40.5623 37.0535 42.6202C37.0535 45.021 36.3705 47.7647 35.0045 50.337C32.9556 54.6241 29.3698 57.7109 25.2719 60.2832C23.3936 61.655 21.1739 62.684 19.1249 64.0558C18.9542 64.2273 18.7834 64.3988 18.4419 64.5703C18.2712 64.7418 17.9297 65.0848 17.9297 65.5992C17.9297 65.9422 18.1004 66.2851 18.2712 66.6281C18.4419 66.7996 18.6127 66.9711 18.7834 67.1426C18.9542 67.3141 19.2957 67.3141 19.4664 67.3141C19.8079 67.3141 19.9787 67.3141 20.1494 67.1426C23.5644 65.2562 27.1501 63.7129 30.3943 61.4836C38.2488 55.996 44.3957 48.9651 48.1522 40.0479C49.1767 37.4756 50.0304 34.5604 50.7134 31.6451C51.2256 28.9013 51.5671 26.1576 51.5671 24.2712C51.9086 20.4986 51.7379 17.7548 51.2256 15.697Z" fill="#C1C1C1"/>
<path opacity="0.7" d="M33.2959 15.697C32.7837 13.6391 31.93 12.0958 30.564 9.86646C29.0272 7.80863 26.6368 5.57932 23.9048 3.86447C21.0021 2.14962 17.7578 0.949219 14.6844 0.949219C13.3184 0.949219 12.1231 1.1207 10.9279 1.63516C10.7572 1.63516 10.4157 1.80665 10.0742 1.97813C9.90341 1.97813 9.73266 2.14962 9.56191 2.14962C9.39116 2.14962 9.39117 2.3211 9.22042 2.3211C8.36667 2.66407 7.85443 2.83556 7.34218 3.17853C6.82994 3.5215 6.31769 3.86447 5.46395 4.37893C5.2932 4.7219 4.95171 4.89338 4.78096 5.06487C3.41497 6.09378 2.56123 7.29418 1.87823 8.66606C1.02449 10.3809 0.512245 12.0958 0.170748 13.9821C0 14.8395 0 15.5255 0 16.2114C0 18.9552 0.853742 21.356 2.21973 23.5853C4.61021 27.5295 8.36667 29.7588 11.9524 31.9881C12.2939 32.1596 12.6354 32.331 12.8061 32.5025C13.1476 32.674 13.3184 32.8455 13.6599 33.017C15.3674 34.2174 16.5626 35.5893 17.4163 36.9611C18.6116 38.8475 19.1238 40.9053 19.1238 42.9631C19.1238 45.3639 18.4408 48.1077 17.0748 50.68C15.3674 55.3101 11.6109 58.3968 7.68368 60.9691C5.80545 62.341 3.58572 63.3699 1.53674 64.7418C1.36599 64.9133 1.19524 65.0847 0.853742 65.2562C0.682994 65.4277 0.341497 65.7707 0.341497 66.2851C0.341497 66.6281 0.512245 66.9711 0.682994 67.3141C0.853742 67.4855 1.02449 67.657 1.19524 67.8285C1.36599 68 1.70748 68 1.87823 68C2.21973 68 2.39048 68 2.56123 67.8285C5.9762 65.9422 9.56191 64.3988 12.8061 62.1695C20.6606 56.682 26.8075 49.6511 30.564 40.7338C31.5885 38.1615 32.4422 35.2463 33.1252 32.331C33.6374 29.5873 33.9789 26.8435 33.9789 24.9572C34.1497 20.4986 33.9789 17.7548 33.2959 15.697Z" fill="#C1C1C1"/>
</svg>
