<svg xmlns="http://www.w3.org/2000/svg" width="24" height="24" viewBox="0 0 24 24">
    <path fill="#414B56" fill-rule="nonzero" d="M23.056 13.26l-9.305-9.311a2.595 2.595 0 0 0-1.841-.766c-.057 0-.114 0-.171.006l-6.73.444A1.468 1.468 0 0 0 3.645 5l-.16 2.39a4.638 4.638 0 0 1-.962-.74c-.72-.719-1.164-1.614-1.257-2.524-.088-.864.16-1.635.698-2.173 1.143-1.143 3.248-.89 4.702.559a.621.621 0 1 0 .88-.88C5.598-.297 2.702-.545 1.078 1.079c-.807.807-1.18 1.93-1.056 3.176.12 1.195.693 2.359 1.614 3.28a5.776 5.776 0 0 0 1.754 1.205l-.197 2.994c-.052.75.228 1.485.76 2.018l9.31 9.31c.59.59 1.371.91 2.204.91.833 0 1.614-.326 2.204-.91l5.394-5.395c.59-.59.91-1.37.91-2.203a3.104 3.104 0 0 0-.92-2.204zm-.874 3.522l-5.4 5.4a1.862 1.862 0 0 1-1.324.548c-.502 0-.973-.197-1.324-.548l-9.31-9.31a1.363 1.363 0 0 1-.399-1.056l.181-2.71c.104.015.207.03.31.041.156.016.31.026.46.026 1.061 0 2.008-.372 2.711-1.076a.621.621 0 1 0-.88-.88c-.537.539-1.308.787-2.172.7-.119-.011-.232-.032-.346-.053l.186-2.772a.228.228 0 0 1 .212-.212l6.73-.445c.03 0 .062-.005.093-.005.362 0 .713.145.967.398l9.305 9.305c.352.352.548.823.548 1.325 0 .501-.196.972-.548 1.324z"/>
</svg>
