<svg width="1236" height="1610" viewBox="0 0 1236 1610" fill="none" xmlns="http://www.w3.org/2000/svg">
<path d="M1008.85 696.045C1008.85 746.325 991.541 837.549 962.837 906.588C912.54 1027.71 829.083 1120.56 723.863 1194.65C681.021 1224.8 632.095 1246.47 585.482 1271.06C581.284 1273.28 572.03 1274.4 567.06 1266.6C557.892 1252.98 569.888 1245.87 575.629 1241.85C602.362 1223.43 631.323 1208.18 658.4 1190.11C712.552 1153.88 763.278 1112.68 791.811 1052.63C840.822 949.417 830.026 854.766 716.751 786.84C667.054 757.032 617.014 727.737 586.339 676.087C563.461 637.541 551.808 596.683 559.52 550.857C568.003 500.405 586.253 455.178 628.924 425.199C650.431 410.123 655.058 406.697 679.307 395.562C681.449 394.534 698.672 387.852 700.985 387.081C793.781 353.59 914.425 429.396 961.552 496.294C997.711 556.253 1006.71 576.125 1008.85 696.045ZM746.226 696.045C746.226 746.325 728.918 837.549 700.214 906.588C649.917 1027.71 566.46 1120.56 461.24 1194.65C418.397 1224.8 369.471 1246.47 322.859 1271.06C318.66 1273.28 309.407 1274.4 304.437 1266.6C295.269 1252.98 307.264 1245.87 313.005 1241.85C339.739 1223.43 368.7 1208.18 395.777 1190.11C449.929 1153.88 500.654 1112.68 529.187 1052.63C578.199 949.417 567.403 854.766 454.128 786.84C404.431 757.032 354.391 727.737 323.63 676.087C300.752 637.541 289.099 596.683 296.811 550.857C305.294 500.405 323.544 455.178 366.215 425.199C387.722 410.123 392.349 406.697 416.598 395.562C418.74 394.534 435.963 387.852 438.276 387.081C531.073 353.59 651.716 429.396 698.843 496.294C735.087 556.253 744.084 576.125 746.226 696.045ZM1223.66 805C1223.66 1242.79 952.469 1597.67 618.042 1597.67C283.53 1597.67 12.4238 1242.79 12.4238 805C12.4238 367.209 283.53 12.3342 617.957 12.3342C952.469 12.3342 1223.66 367.209 1223.66 805Z" stroke="#D3C2A9" stroke-width="0.7" stroke-miterlimit="10"/>
</svg>
