<svg width="71" height="60" viewBox="0 0 71 60" fill="none" xmlns="http://www.w3.org/2000/svg">
<path d="M67.0992 11.4504H45.916V2.29008C45.9153 1.68293 45.6738 1.10085 45.2445 0.671536C44.8152 0.242218 44.2331 0.000712749 43.626 0H26.6794C26.0722 0.000712749 25.4902 0.242218 25.0608 0.671536C24.6315 1.10085 24.39 1.68293 24.3893 2.29008V11.4504H3.20611C2.35609 11.4513 1.54115 11.7894 0.940099 12.3905C0.339044 12.9915 0.000952847 13.8065 0 14.6565V56.7939C0.000952847 57.6439 0.339044 58.4588 0.940099 59.0599C1.54115 59.661 2.35609 59.999 3.20611 60H67.0992C67.9493 59.999 68.7642 59.661 69.3652 59.0599C69.9663 58.4588 70.3044 57.6439 70.3053 56.7939V14.6565C70.3044 13.8065 69.9663 12.9915 69.3652 12.3905C68.7642 11.7894 67.9493 11.4513 67.0992 11.4504ZM26.6794 0.916031H43.626C43.9902 0.916428 44.3395 1.06132 44.5971 1.31892C44.8547 1.57652 44.9996 1.92578 45 2.29008V4.35114H25.3053V2.29008C25.3057 1.92578 25.4506 1.57652 25.7082 1.31892C25.9658 1.06132 26.3151 0.916428 26.6794 0.916031ZM25.3053 5.26718H45V11.4504H25.3053V5.26718ZM69.3893 56.7939C69.3886 57.401 69.1471 57.9831 68.7178 58.4124C68.2885 58.8418 67.7064 59.0833 67.0992 59.084H3.20611C2.59896 59.0833 2.01688 58.8418 1.58757 58.4124C1.15825 57.9831 0.916743 57.401 0.916031 56.7939V14.6565C0.916743 14.0493 1.15825 13.4673 1.58757 13.0379C2.01688 12.6086 2.59896 12.3671 3.20611 12.3664H67.0992C67.7064 12.3671 68.2885 12.6086 68.7178 13.0379C69.1471 13.4673 69.3886 14.0493 69.3893 14.6565V56.7939Z" fill="#ffffff"/>
</svg>
