<svg width="56" height="60" viewBox="0 0 56 60" fill="none" xmlns="http://www.w3.org/2000/svg">
<path d="M54.9364 4.25252L50.7971 0.113162C50.7615 0.0773046 50.7192 0.048844 50.6726 0.0294217C50.626 0.00999932 50.576 0 50.5255 0C50.475 0 50.4249 0.00999932 50.3783 0.0294217C50.3317 0.048844 50.2894 0.0773046 50.2538 0.113162L49.7182 0.648754C49.2548 0.300943 48.6821 0.130564 48.1038 0.168458C47.5256 0.206352 46.98 0.450015 46.5659 0.85534L38.9146 8.50665C38.8789 8.54232 38.8506 8.58467 38.8313 8.63128C38.812 8.67788 38.8021 8.72783 38.8021 8.77828C38.8021 8.82872 38.812 8.87867 38.8313 8.92528C38.8506 8.97188 38.8789 9.01423 38.9146 9.0499C38.9503 9.08557 38.9926 9.11386 39.0392 9.13317C39.0858 9.15247 39.1358 9.16241 39.1862 9.16241C39.2366 9.16241 39.2866 9.15247 39.3332 9.13317C39.3798 9.11386 39.4222 9.08557 39.4578 9.0499L47.1091 1.39858C47.3797 1.13567 47.7317 0.972719 48.1072 0.936559C48.4827 0.9004 48.8593 0.99319 49.175 1.19965L25.41 24.957C25.3742 24.9925 25.3457 25.0349 25.3263 25.0815C25.3069 25.1281 25.2969 25.1781 25.2969 25.2286C25.2969 25.2791 25.3069 25.3291 25.3263 25.3757C25.3457 25.4223 25.3742 25.4647 25.41 25.5002L25.9533 26.0435C25.7557 26.0144 25.5561 26.0016 25.3565 26.0052C24.341 26.039 23.3772 26.4607 22.6632 27.1835C21.2324 28.6143 19.8934 34.5058 19.8322 34.7583C19.8255 34.7988 19.8255 34.8402 19.8322 34.8807C19.8312 34.896 19.8312 34.9114 19.8322 34.9266C19.85 34.9843 19.8815 35.0368 19.924 35.0797C19.9947 35.1518 20.0909 35.193 20.1918 35.1944H20.276C20.5285 35.1409 26.397 33.7942 27.8508 32.3634C28.5852 31.6626 29.0233 30.707 29.075 29.6931C29.0782 29.4935 29.0654 29.2939 29.0367 29.0963L29.58 29.6396C29.6155 29.6754 29.6579 29.7039 29.7045 29.7233C29.7511 29.7427 29.8011 29.7527 29.8516 29.7527C29.9021 29.7527 29.9521 29.7427 29.9987 29.7233C30.0453 29.7039 30.0877 29.6754 30.1232 29.6396L48.0732 11.6284L54.9594 4.74221C55.0135 4.67081 55.0408 4.58269 55.0367 4.49321C55.0325 4.40372 54.997 4.31854 54.9364 4.25252ZM27.3228 31.8432C26.4812 32.6848 23.4972 33.6106 21.4466 34.1386L25.1193 30.4659C25.1913 30.3939 25.2318 30.2962 25.2318 30.1943C25.2318 30.0924 25.1913 29.9947 25.1193 29.9227C25.0472 29.8506 24.9495 29.8102 24.8476 29.8102C24.7458 29.8102 24.6481 29.8506 24.576 29.9227L20.9034 33.5953C21.4313 31.5677 22.3571 28.5607 23.1988 27.7191C23.7745 27.1346 24.5519 26.7924 25.3718 26.7627C25.761 26.7397 26.1507 26.7989 26.5156 26.9364C26.8804 27.074 27.2122 27.2868 27.4893 27.5611C27.7665 27.8353 27.9828 28.1649 28.1242 28.5283C28.2655 28.8917 28.3288 29.2807 28.3099 29.6702C28.2728 30.4945 27.9192 31.2729 27.3228 31.8432ZM47.8054 10.8633L44.2093 7.26714L50.0243 1.45214L50.4987 0.91655L54.0948 4.51267L47.8054 10.8633ZM29.8401 28.8285L26.244 25.2324L43.6584 7.80273L47.2545 11.3989L29.8401 28.8285ZM20.5897 47.0387V43.7639H22.3724C22.4739 43.7639 22.5712 43.7236 22.643 43.6519C22.7147 43.5801 22.755 43.4828 22.755 43.3813V39.1731C22.755 39.0717 22.7147 38.9744 22.643 38.9026C22.5712 38.8309 22.4739 38.7906 22.3724 38.7906H10.49C10.3885 38.7906 10.2912 38.8309 10.2194 38.9026C10.1477 38.9744 10.1074 39.0717 10.1074 39.1731V43.4196C10.1074 43.5211 10.1477 43.6184 10.2194 43.6901C10.2912 43.7619 10.3885 43.8022 10.49 43.8022H12.2421V47.054C5.02691 48.5842 0 53.6724 0 59.6174C0 59.7189 0.0403056 59.8162 0.112051 59.8879C0.183796 59.9597 0.281103 60 0.382566 60H32.4416C32.543 60 32.6403 59.9597 32.7121 59.8879C32.7838 59.8162 32.8241 59.7189 32.8241 59.6174C32.8241 53.6571 27.8049 48.5307 20.5897 47.0387ZM10.8725 39.5404H21.9899V42.9988H10.8725V39.5404ZM0.81104 59.2196C1.02528 53.7259 5.86091 49.028 12.7241 47.7426H12.793L12.8542 47.7043L12.9078 47.6508L12.946 47.5896V47.5207C12.9486 47.4953 12.9486 47.4696 12.946 47.4442C12.9466 47.4314 12.9466 47.4187 12.946 47.4059V43.7639H19.7327V47.3218C19.7321 47.3345 19.7321 47.3473 19.7327 47.36C19.7301 47.3855 19.7301 47.4111 19.7327 47.4365V47.5054L19.8934 47.5896L19.947 47.6431L20.0082 47.6814H20.077C26.9632 48.9898 31.7759 53.68 31.9901 59.1584L0.81104 59.2196Z" fill="#ffffff"/>
</svg>
