<svg width="11" height="20" viewBox="0 0 11 20" fill="none" xmlns="http://www.w3.org/2000/svg">
<path d="M7.41396 10.2427H6.96396V10.6927V18.9152L4.35489 18.9152V10.6928V10.2428H3.90489H1.4207V7.76293H3.90499H4.35499V7.31293V4.82037C4.35499 3.46782 4.76803 2.4763 5.43281 1.82276C6.09928 1.16757 7.06892 0.802783 8.27544 0.802783C9.1688 0.802783 9.96782 0.851145 10.4475 0.892133V3.05888L9.09806 3.0595C9.09799 3.0595 9.09792 3.0595 9.09785 3.0595C8.33322 3.05954 7.7516 3.23962 7.38346 3.67454C7.0294 4.09281 6.96396 4.64608 6.96396 5.15493V7.31284V7.76284H7.41396H10.2667L9.94524 10.2427H7.41396Z" fill="#F5F5F5" stroke="#808080" stroke-width="0.9"/>
</svg>
