<svg width="14" height="14" viewBox="0 0 14 14" fill="none" xmlns="http://www.w3.org/2000/svg">
<path d="M7.87305 13.9995H12.2537C13.105 13.9995 13.7966 13.3212 13.7966 12.4865V5.4082H7.87305V13.9995Z" fill="#C15A51"/>
<path d="M0.779297 5.4082V12.4865C0.779297 13.3212 1.47097 13.9995 2.32227 13.9995H6.7029V5.4082H0.779297Z" fill="#C15A51"/>
<path d="M12.2541 1.23449H9.61149C9.68244 0.904057 9.61149 0.556231 9.34546 0.295361C8.93755 -0.104639 8.26361 -0.104639 7.8557 0.295361C7.67834 0.486666 7.44778 0.851883 7.3059 1.23449H7.27043C7.11081 0.851883 6.89799 0.486666 6.7029 0.295361C6.29499 -0.104639 5.62104 -0.104639 5.21313 0.295361C4.96484 0.556231 4.87616 0.904057 4.9471 1.23449H2.32227C1.47097 1.23449 0.779297 1.91275 0.779297 2.74754V4.26058H6.68516H7.87343H13.7793V2.74754C13.7793 1.91275 13.1054 1.23449 12.2541 1.23449Z" fill="#C15A51"/>
</svg>
