<svg width="28" height="29" viewBox="0 0 28 29" fill="none" xmlns="http://www.w3.org/2000/svg">
<path d="M27.3386 14.7385C27.3386 13.5887 27.2472 12.7495 27.0493 11.8794H14.1875V17.0691H21.7372C21.585 18.3589 20.7631 20.3011 18.9365 21.6063L18.9108 21.7801L22.9776 24.9961L23.2593 25.0249C25.8469 22.5853 27.3386 18.9959 27.3386 14.7385Z" fill="#4285F4"/>
<path d="M14.1873 28.412C17.886 28.412 20.9911 27.1689 23.2591 25.0246L18.9363 21.6061C17.7795 22.4297 16.2269 23.0046 14.1873 23.0046C10.5646 23.0046 7.48998 20.5651 6.39402 17.1934L6.23335 17.2073L2.00466 20.5481L1.94934 20.705C4.20209 25.2732 8.82931 28.412 14.1873 28.412Z" fill="#34A853"/>
<path d="M6.39403 17.1939C6.10481 16.3237 5.93743 15.3914 5.93743 14.4281C5.93743 13.4647 6.10481 12.5325 6.37875 11.6623L6.37105 11.477L2.08956 8.08252L1.94946 8.15055C1.02098 10.0462 0.488281 12.175 0.488281 14.4281C0.488281 16.6812 1.02098 18.8098 1.94946 20.7055L6.39403 17.1939Z" fill="#FBBC05"/>
<path d="M14.1873 5.85066C16.7596 5.85066 18.4949 6.98495 19.4843 7.93289L23.3504 4.0794C20.9759 1.82631 17.886 0.443359 14.1873 0.443359C8.82933 0.443359 4.20209 3.58208 1.94934 8.15034L6.37874 11.662C7.48999 8.29022 10.5647 5.85066 14.1873 5.85066Z" fill="#EB4335"/>
</svg>
