<svg width="20" height="20" viewBox="0 0 20 20" fill="none" xmlns="http://www.w3.org/2000/svg">
<g clip-path="url(#clip0)">
<path d="M18.5167 15.6173H18.5351V15.2673V4.43862C18.5351 2.57875 17.0225 1.06661 15.1631 1.06661H4.33437C2.47453 1.06661 0.962365 2.57878 0.962365 4.43862V15.2673C0.962365 17.1272 2.47493 18.6393 4.33437 18.6393H15.1627C16.9044 18.6393 18.3411 17.3129 18.5167 15.6173ZM4.33437 0.702783H15.1631C17.2225 0.702783 18.8985 2.37875 18.8989 4.43862C18.8989 4.43864 18.8989 4.43866 18.8989 4.43868V15.2673C18.8989 17.3271 17.2225 19.0031 15.1631 19.0031H4.33437C2.27458 19.0031 0.598535 17.3268 0.598535 15.2673V4.43862C0.598535 2.3788 2.27456 0.702783 4.33437 0.702783Z" fill="black" stroke="#808080" stroke-width="0.7"/>
<path d="M5.39785 9.85273C5.39785 7.45395 7.34974 5.50207 9.74851 5.50207C12.1473 5.50207 14.0992 7.45395 14.0992 9.85273C14.0992 12.2515 12.1473 14.2034 9.74851 14.2034C7.34974 14.2034 5.39785 12.2515 5.39785 9.85273ZM5.76168 9.85273C5.76168 12.0515 7.54971 13.8396 9.74851 13.8396C11.9473 13.8396 13.7353 12.0515 13.7353 9.85273C13.7353 7.65393 11.9473 5.8659 9.74851 5.8659C7.54971 5.8659 5.76168 7.65393 5.76168 9.85273Z" fill="black" stroke="#808080" stroke-width="0.7"/>
<path d="M13.9418 4.59815C13.9418 4.01302 14.4183 3.53655 15.0034 3.53655C15.5885 3.53655 16.065 4.01302 16.065 4.59815C16.065 5.18328 15.5885 5.65974 15.0034 5.65974C14.4183 5.65974 13.9418 5.18328 13.9418 4.59815ZM14.3056 4.59815C14.3056 4.9833 14.6182 5.29591 15.0034 5.29591C15.3885 5.29591 15.7012 4.9833 15.7012 4.59815C15.7012 4.21299 15.3885 3.90038 15.0034 3.90038C14.6182 3.90038 14.3056 4.21299 14.3056 4.59815Z" stroke="#808080" stroke-width="0.7"/>
</g>
<defs>
<clipPath id="clip0">
<rect width="19" height="19" fill="white" transform="translate(0.248535 0.352783)"/>
</clipPath>
</defs>
</svg>
