<?xml version="1.0" encoding="utf-8"?>
<!-- Generator: Adobe Illustrator 23.0.6, SVG Export Plug-In . SVG Version: 6.00 Build 0)  -->
<svg version="1.1" id="Layer_1" xmlns="http://www.w3.org/2000/svg" xmlns:xlink="http://www.w3.org/1999/xlink" x="0px" y="0px"
	 viewBox="0 0 20 20" style="enable-background:new 0 0 20 20;" xml:space="preserve">
<style type="text/css">
	.st0{fill:#808080;}
</style>
<g id="_x39_CeFVd.tif">
	<g>
		<g>
			<path class="st0" d="M11.7,19H7.3V6.5h4.4v0.8c1.3-1.1,3-1.4,4.8-0.8C18,6.9,19,8.1,19.3,10c0,0.3,0.1,0.4,0.1,0.6
				c0,2.2,0,4.4,0,6.6V19h-4.5l0-0.6c0-0.1,0-0.2,0-0.3v-1.8c0-1.3,0-2.6,0-3.8c0-0.3,0-0.7-0.1-1c-0.1-0.7-0.5-1-1.1-1.1
				c-0.8-0.1-1.4,0.2-1.6,0.8c-0.2,0.4-0.3,0.8-0.3,1.2c0,1.4,0,2.8,0,4.2L11.7,19z M8.3,18h2.4l0-1.5c0-1.4,0-2.8,0-4.2
				c0-0.5,0.1-1.1,0.3-1.6c0.4-1,1.4-1.5,2.7-1.4c1,0.1,1.8,0.8,2,1.9c0.1,0.4,0.1,0.8,0.1,1.2c0,1.3,0,2.6,0,3.8V18h2.5v-0.8
				c0-2.2,0-4.4,0-6.6c0-0.1,0-0.2,0-0.3l0-0.1c-0.3-1.5-1-2.4-2.2-2.8c-1.5-0.5-2.8-0.3-3.9,0.7c-0.2,0.1-0.3,0.3-0.4,0.5l-1.1,1.2
				V7.5H8.3V18z"/>
		</g>
		<g>
			<path class="st0" d="M5.9,19.1H1.4V6.5h4.5V19.1z M2.4,18.1h2.5V7.5H2.4V18.1z"/>
		</g>
		<g>
			<path class="st0" d="M3.6,5.9c-0.7,0-1.3-0.3-1.8-0.7C1.3,4.7,1,4,1,3.3c0-0.7,0.3-1.4,0.8-1.9c0.5-0.5,1.1-0.8,1.8-0.8
				c0,0,0,0,0,0c1.4,0,2.6,1.2,2.6,2.6C6.3,4.7,5.1,5.9,3.6,5.9C3.6,5.9,3.6,5.9,3.6,5.9z M3.6,1.7C3.6,1.7,3.6,1.7,3.6,1.7
				c-0.4,0-0.8,0.2-1.1,0.5C2.2,2.5,2,2.9,2,3.3l0,0c0,0.4,0.2,0.9,0.5,1.2c0.3,0.3,0.8,0.5,1.1,0.5c0.9,0,1.6-0.8,1.6-1.7
				C5.2,2.4,4.5,1.7,3.6,1.7z"/>
		</g>
	</g>
</g>
</svg>
