<svg width="77" height="99" viewBox="0 0 77 99" fill="none" xmlns="http://www.w3.org/2000/svg">
<path d="M46.4382 42.9588H47.0668L47.0666 42.9474L46.4382 42.9588ZM43.5907 55.8782L43.011 55.6353L43.011 55.6353L43.5907 55.8782ZM28.791 73.5555L29.1505 74.071H29.1505L28.791 73.5555ZM20.2228 78.2459L20.5121 78.8038L20.5136 78.8031L20.2228 78.2459ZM19.0798 77.9724L19.6067 77.6295L19.6008 77.6209L19.0798 77.9724ZM19.6124 76.4555L19.9665 76.9748L19.9668 76.9746L19.6124 76.4555ZM24.7361 73.2808L24.3888 72.757L24.3887 72.757L24.7361 73.2808ZM32.9955 64.8445L32.4288 64.5729L32.4287 64.573L32.9955 64.8445ZM28.346 48.5323L28.667 47.992L28.6669 47.9919L28.346 48.5323ZM20.269 41.7371L19.73 42.0603L19.73 42.0604L20.269 41.7371ZM18.6057 34.0526L17.986 33.9475L17.986 33.9478L18.6057 34.0526ZM22.9062 26.3417L23.2651 26.8577L23.2652 26.8576L22.9062 26.3417ZM26.0274 24.5248L26.2871 25.0972L26.2878 25.0968L26.0274 24.5248ZM27.3685 24.0031L27.5778 24.5957L27.5801 24.5949L27.3685 24.0031ZM43.5007 30.708L44.0368 30.38L44.0256 30.3616L44.0131 30.3441L43.5007 30.708ZM62.7034 42.9593H63.332L63.3318 42.9479L62.7034 42.9593ZM59.8546 55.8785L60.4343 56.1214L60.4343 56.1213L59.8546 55.8785ZM45.0562 73.5555L45.4156 74.0712L45.4157 74.0711L45.0562 73.5555ZM36.4855 78.2459L36.7759 78.8033L36.7762 78.8031L36.4855 78.2459ZM35.345 77.9724L35.8725 77.6305L35.8657 77.6204L35.345 77.9724ZM35.8776 76.4555L36.2317 76.9748L36.2321 76.9745L35.8776 76.4555ZM41.0013 73.2809L41.3485 73.8047L41.3486 73.8047L41.0013 73.2809ZM49.2607 64.8447L49.8275 65.1163L49.8275 65.1163L49.2607 64.8447ZM44.6112 48.5327L44.9323 47.9924L44.9321 47.9923L44.6112 48.5327ZM36.5341 41.7364L37.0732 41.4132L37.0731 41.413L36.5341 41.7364ZM34.8708 34.0533L34.2512 33.9481L34.2512 33.9482L34.8708 34.0533ZM39.1702 26.3424L39.529 26.8584L39.5292 26.8583L39.1702 26.3424ZM42.2913 24.5244L42.0351 23.9504L42.0316 23.952L42.2913 24.5244ZM43.6336 24.0027L43.422 23.4109L43.4214 23.4111L43.6336 24.0027ZM59.7659 30.7075L60.302 30.3795L60.2907 30.3611L60.2782 30.3435L59.7659 30.7075ZM75.3715 49.6498C75.3715 76.3323 58.7218 97.67 38.5 97.67V98.927C59.7006 98.927 76.6285 76.7027 76.6285 49.6498H75.3715ZM38.5 97.67C18.2794 97.67 1.6285 76.3323 1.6285 49.6498H0.3715C0.3715 76.7028 17.3006 98.927 38.5 98.927V97.67ZM1.6285 49.6498C1.6285 22.9661 18.2794 1.6285 38.5 1.6285V0.3715C17.3006 0.3715 0.3715 22.5957 0.3715 49.6498H1.6285ZM38.5 1.6285C58.7218 1.6285 75.3715 22.9661 75.3715 49.6498H76.6285C76.6285 22.5957 59.7006 0.3715 38.5 0.3715V1.6285ZM45.8097 42.9588C45.8097 45.9536 44.7562 51.4701 43.011 55.6353L44.1703 56.1211C45.973 51.8187 47.0667 46.1375 47.0667 42.9588H45.8097ZM43.011 55.6353C39.9508 62.9392 34.8691 68.5515 28.4316 73.0399L29.1505 74.071C35.7422 69.4751 41.0003 63.6872 44.1703 56.1211L43.011 55.6353ZM28.4316 73.0399C25.8213 74.8599 22.8701 76.1551 19.932 77.6887L20.5136 78.8031C23.3508 77.3222 26.4523 75.9523 29.1505 74.071L28.4316 73.0399ZM19.9334 77.688C19.928 77.6908 19.9023 77.702 19.8609 77.7099C19.821 77.7175 19.7804 77.7193 19.7446 77.715C19.7098 77.7109 19.6851 77.7019 19.6676 77.6917C19.6522 77.6828 19.6308 77.6667 19.6066 77.6296L18.5531 78.3152C18.826 78.7346 19.2274 78.9194 19.5963 78.9632C19.9423 79.0043 20.2762 78.9262 20.5121 78.8038L19.9334 77.688ZM19.6008 77.6209C19.5094 77.4853 19.5033 77.4152 19.5029 77.3995C19.5025 77.3877 19.5034 77.3709 19.5269 77.3349C19.5551 77.2915 19.6065 77.2364 19.6903 77.1696C19.7771 77.1004 19.8602 77.0473 19.9665 76.9748L19.2583 75.9362C19.1237 76.028 18.717 76.2746 18.4732 76.6494C18.3379 76.8574 18.2376 77.1217 18.2464 77.4346C18.255 77.7435 18.3682 78.0414 18.5588 78.3239L19.6008 77.6209ZM19.9668 76.9746C20.7769 76.4216 21.6235 75.9146 22.4893 75.4004C23.3498 74.8893 24.2312 74.3698 25.0835 73.8046L24.3887 72.757C23.5679 73.3014 22.7161 73.8037 21.8474 74.3196C20.9838 74.8326 20.1052 75.3581 19.258 75.9364L19.9668 76.9746ZM25.0834 73.8046C28.4581 71.5672 31.7211 68.9587 33.5623 65.1161L32.4287 64.573C30.7415 68.0943 27.7233 70.5462 24.3888 72.757L25.0834 73.8046ZM33.5623 65.1162C35.1166 61.873 35.7621 58.684 35.0517 55.7292C34.3376 52.7589 32.2813 50.1392 28.667 47.992L28.025 49.0727C31.4276 51.0941 33.2141 53.4631 33.8295 56.023C34.4487 58.5983 33.9105 61.4811 32.4288 64.5729L33.5623 65.1162ZM28.6669 47.9919C25.5593 46.1469 22.6149 44.4263 20.8079 41.4138L19.73 42.0604C21.7287 45.3925 24.9756 47.2622 28.0252 49.0728L28.6669 47.9919ZM20.808 41.4138C19.4462 39.1432 18.781 36.7834 19.2253 34.1575L17.986 33.9478C17.4795 36.9412 18.2563 39.6031 19.73 42.0603L20.808 41.4138ZM19.2253 34.1578C19.737 31.1423 20.8188 28.5592 23.2651 26.8577L22.5473 25.8257C19.707 27.8014 18.5248 30.7725 17.986 33.9475L19.2253 34.1578ZM23.2652 26.8576C24.5799 25.9427 24.8322 25.7573 26.2871 25.0972L25.7676 23.9525C24.2169 24.6562 23.8952 24.8877 22.5472 25.8258L23.2652 26.8576ZM26.2878 25.0968C26.2874 25.097 26.2926 25.0947 26.3061 25.089C26.3185 25.0838 26.3347 25.0771 26.3546 25.069C26.3945 25.0529 26.4457 25.0324 26.5054 25.0087C26.6246 24.9616 26.7734 24.9035 26.9231 24.8455C27.2283 24.7273 27.519 24.6165 27.5778 24.5957L27.1591 23.4105C27.0147 23.4616 25.9275 23.8797 25.7669 23.9528L26.2878 25.0968ZM27.5801 24.5949C30.2319 23.6466 33.3507 24.2283 36.2235 25.6109C39.09 26.9904 41.5988 29.1154 42.9883 31.0719L44.0131 30.3441C42.4857 28.1933 39.8021 25.9382 36.7686 24.4782C33.7413 23.0213 30.2525 22.3042 27.1568 23.4113L27.5801 24.5949ZM42.9646 31.036C44.0872 32.8708 44.7427 34.0247 45.154 35.61C45.5704 37.215 45.7436 39.2928 45.8098 42.9701L47.0666 42.9474C47.0004 39.2692 46.8282 37.0578 46.3707 35.2944C45.9081 33.5112 45.1611 32.2176 44.0368 30.38L42.9646 31.036ZM62.0749 42.9593C62.0749 45.9539 61.0202 51.4692 59.2749 55.6357L60.4343 56.1213C62.2369 51.818 63.3319 46.1381 63.3319 42.9593H62.0749ZM59.2749 55.6356C56.2148 62.9395 51.1331 68.5516 44.6967 73.04L45.4157 74.0711C52.0062 69.4752 57.2643 63.6874 60.4343 56.1214L59.2749 55.6356ZM44.6969 73.0399C42.0854 74.8599 39.134 76.1552 36.1948 77.6887L36.7762 78.8031C39.6148 77.3222 42.7161 75.9524 45.4156 74.0712L44.6969 73.0399ZM36.1951 77.6885C36.1904 77.691 36.1653 77.7021 36.1241 77.7099C36.0846 77.7175 36.0442 77.7193 36.0086 77.715C35.9741 77.7109 35.9497 77.702 35.9325 77.692C35.9174 77.6833 35.8963 77.6673 35.8724 77.6305L34.8176 78.3143C35.0899 78.7343 35.4913 78.9193 35.8602 78.9632C36.2058 79.0043 36.54 78.9262 36.7759 78.8033L36.1951 77.6885ZM35.8657 77.6204C35.774 77.4847 35.768 77.4147 35.7675 77.3992C35.7672 77.3878 35.768 77.3711 35.7914 77.3351C35.8197 77.2917 35.8711 77.2367 35.9551 77.1698C36.0421 77.1005 36.1252 77.0474 36.2317 76.9748L35.5235 75.9363C35.3892 76.0278 34.9821 76.2745 34.7381 76.6492C34.6026 76.8573 34.5022 77.1217 34.511 77.4348C34.5198 77.7439 34.6334 78.042 34.8244 78.3245L35.8657 77.6204ZM36.2321 76.9745C37.0415 76.4215 37.8878 75.9146 38.7535 75.4004C39.614 74.8894 40.4957 74.3699 41.3485 73.8047L40.6541 72.757C39.8326 73.3014 38.9804 73.8037 38.1116 74.3197C37.248 74.8326 36.3696 75.3582 35.523 75.9366L36.2321 76.9745ZM41.3486 73.8047C44.7233 71.5673 47.9863 68.9589 49.8275 65.1163L48.6939 64.5732C47.0066 68.0944 43.9885 70.5463 40.654 72.757L41.3486 73.8047ZM49.8275 65.1163C51.3812 61.8731 52.0263 58.6843 51.3159 55.7295C50.6018 52.7593 48.5459 50.1397 44.9323 47.9924L44.2901 49.0731C47.6921 51.0945 49.4783 53.4634 50.0938 56.0233C50.7129 58.5986 50.175 61.4814 48.6939 64.5732L49.8275 65.1163ZM44.9321 47.9923C41.8232 46.1462 38.879 44.4256 37.0732 41.4132L35.9951 42.0595C37.9926 45.3917 41.2396 47.2615 44.2903 49.0731L44.9321 47.9923ZM37.0731 41.413C35.7113 39.1436 35.0451 36.7839 35.4905 34.1584L34.2512 33.9482C33.7433 36.9419 34.5216 39.6039 35.9952 42.0598L37.0731 41.413ZM35.4905 34.1584C36.0022 31.1428 37.0829 28.5598 39.529 26.8584L38.8113 25.8265C35.9708 27.8022 34.7899 30.7734 34.2512 33.9481L35.4905 34.1584ZM39.5292 26.8583C40.8443 25.9431 41.0964 25.7568 42.551 25.0967L42.0316 23.952C40.4806 24.6559 40.1588 24.8888 38.8112 25.8266L39.5292 26.8583ZM42.5475 25.0983C42.5473 25.0984 42.5488 25.0977 42.5528 25.096C42.5566 25.0944 42.5616 25.0923 42.5679 25.0897C42.5807 25.0844 42.5972 25.0776 42.6172 25.0695C42.6574 25.0533 42.7089 25.0328 42.7687 25.0092C42.8882 24.9621 43.0372 24.9041 43.1871 24.846C43.4916 24.7282 43.7846 24.6163 43.8459 24.5943L43.4214 23.4111C43.2773 23.4628 42.1926 23.8802 42.0351 23.9505L42.5475 25.0983ZM43.8452 24.5945C46.4958 23.6468 49.6143 24.2285 52.4873 25.6109C55.354 26.9903 57.8635 29.115 59.2535 31.0715L60.2782 30.3435C58.7502 28.1928 56.066 25.938 53.0324 24.4782C50.005 23.0215 46.5165 22.3044 43.422 23.4109L43.8452 24.5945ZM59.2297 31.0354C60.3523 32.8708 61.0079 34.025 61.4192 35.6105C61.8356 37.2156 62.0088 39.2934 62.075 42.9706L63.3318 42.9479C63.2655 39.2697 63.0934 37.0584 62.6359 35.2948C62.1733 33.5116 61.4263 32.2177 60.302 30.3795L59.2297 31.0354Z" fill="#545353"/>
</svg>
