<svg width="50" height="73" viewBox="0 0 50 73" fill="none" xmlns="http://www.w3.org/2000/svg">
<path d="M25.111 72.065C38.8561 72.065 49.9988 56.0635 49.9988 36.3247C49.9988 16.5859 38.8561 0.584473 25.111 0.584473C11.3658 0.584473 0.223145 16.5859 0.223145 36.3247C0.223145 56.0635 11.3658 72.065 25.111 72.065Z" fill="#D15C51"/>
<path fill-rule="evenodd" clip-rule="evenodd" d="M17.6638 18.1533C17.6201 18.1711 17.4269 18.2534 17.2271 18.3395C17.1277 18.3823 17.0289 18.4251 16.9497 18.4598C16.91 18.4772 16.8758 18.4923 16.8491 18.5042L16.8161 18.5191L16.8057 18.5239L16.8029 18.5252C15.8795 18.9886 15.6899 19.1346 14.8972 19.745C14.8686 19.7671 14.8392 19.7897 14.809 19.813L14.8086 19.8133C13.195 21.0523 12.4778 22.9419 12.1409 25.1466C11.8504 27.0627 12.2876 28.7912 13.1878 30.4478C14.366 32.6153 16.2763 33.8704 18.3008 35.2005L18.3853 35.256C18.3853 35.256 18.3854 35.256 18.3854 35.2561C20.7816 36.8292 22.1448 38.7498 22.6182 40.9277C23.0889 43.0937 22.661 45.4306 21.6332 47.8059C20.4142 50.6253 18.2492 52.5321 16.0169 54.1723L16.0168 54.1725C15.4864 54.5617 14.9392 54.9211 14.4028 55.2733C14.3684 55.2959 14.334 55.3185 14.2996 55.341C13.7268 55.7173 13.1671 56.088 12.6314 56.4927L12.6309 56.493C12.6157 56.5045 12.6012 56.5153 12.5873 56.5257C12.5368 56.5634 12.4938 56.5954 12.4493 56.6346C12.3946 56.6828 12.3621 56.7217 12.3446 56.7514C12.3304 56.7756 12.3307 56.7853 12.3308 56.791C12.3311 56.7998 12.3343 56.849 12.3942 56.9466L12.3964 56.9502L12.3986 56.9539C12.4141 56.9802 12.4269 56.9902 12.4343 56.9949C12.4431 57.0005 12.4562 57.0061 12.4762 57.0087C12.497 57.0113 12.5215 57.0102 12.5464 57.005C12.5705 56.9998 12.5864 56.9927 12.5914 56.9901C13.1072 56.6913 13.6237 56.4052 14.1365 56.1212C15.5546 55.3358 16.9437 54.5664 18.2093 53.5894L18.2095 53.5892C22.4705 50.3044 25.8301 46.2002 27.8535 40.855C29.0046 37.8099 29.7024 33.7743 29.7033 31.5835C29.6612 28.8942 29.5471 27.376 29.2716 26.204C29.0003 25.0502 28.5679 24.2097 27.8269 22.8752C26.9088 21.4493 25.2547 19.9018 23.3654 18.8962C21.4665 17.8855 19.4092 17.4624 17.6638 18.1533ZM23.7442 18.0411C25.7548 19.1113 27.5335 20.7643 28.5445 22.3413L28.5527 22.3541L28.5601 22.3674C29.307 23.7118 29.8041 24.6598 30.1114 25.9668C30.4152 27.2589 30.5284 28.8788 30.5704 31.5713L30.5705 31.5753V31.5794C30.5705 33.9072 29.8452 38.0694 28.6546 41.2191L28.6545 41.2193C26.5563 46.762 23.0761 50.9997 18.7084 54.3668C17.3867 55.387 15.914 56.2025 14.4787 56.9974C13.9762 57.2757 13.4784 57.5514 12.9931 57.8325L12.9889 57.835L12.9888 57.8349C12.8322 57.9232 12.6088 57.9829 12.3747 57.9527C12.1249 57.9204 11.8561 57.7825 11.6724 57.4736C11.5458 57.2662 11.4702 57.047 11.464 56.8195C11.4577 56.5876 11.5247 56.3914 11.6155 56.2368C11.7629 55.9859 11.9995 55.8126 12.1089 55.7324C12.1207 55.7238 12.1311 55.7162 12.1396 55.7098C12.7009 55.2858 13.2826 54.9009 13.8538 54.5257C13.8867 54.5041 13.9196 54.4825 13.9524 54.4609C14.493 54.106 15.0226 53.7582 15.534 53.3828C17.7397 51.7621 19.7358 49.9746 20.8495 47.3989L20.8495 47.3987C21.8281 45.1372 22.1835 43.0297 21.7746 41.148C21.3682 39.2783 20.1888 37.548 17.9397 36.0714L17.9395 36.0713C17.8873 36.037 17.835 36.0027 17.7826 35.9683C15.8121 34.6745 13.7342 33.3102 12.4427 30.9343L12.4427 30.9343C11.465 29.135 10.9534 27.1802 11.2854 24.9904L11.2855 24.9899C11.6405 22.6662 12.4257 20.4825 14.3108 19.0349C14.336 19.0155 14.3607 18.9965 14.3848 18.9779C15.2138 18.3396 15.447 18.16 16.445 17.6593L16.4494 17.6572L16.4494 17.6572C16.5518 17.6073 17.2694 17.2996 17.3652 17.2609L17.3677 17.2599L17.3677 17.2599C19.4224 16.4458 21.7381 16.9734 23.7442 18.0411Z" fill="white"/>
<path fill-rule="evenodd" clip-rule="evenodd" d="M28.4275 18.1533C28.3837 18.1711 28.1906 18.2534 27.9908 18.3395C27.8914 18.3823 27.7926 18.4251 27.7133 18.4598C27.6737 18.4772 27.6394 18.4923 27.6127 18.5042L27.5797 18.5191L27.5694 18.5239L27.5666 18.5252C26.6432 18.9886 26.4536 19.1346 25.6609 19.745C25.6323 19.7671 25.6029 19.7897 25.5726 19.813L25.5722 19.8133C23.9586 21.0523 23.2414 22.9419 22.9046 25.1466C22.614 27.0627 23.0512 28.7912 23.9515 30.4478C25.1297 32.6153 27.0399 33.8704 29.0645 35.2005L29.1489 35.256C29.149 35.256 29.149 35.256 29.1491 35.2561C31.5453 36.8292 32.9085 38.7498 33.3818 40.9277C33.8526 43.0937 33.4246 45.4306 32.3968 47.8059C31.1779 50.6253 29.0129 52.5321 26.7806 54.1723L26.7804 54.1725C26.2501 54.5617 25.7028 54.9211 25.1665 55.2733C25.132 55.2959 25.0976 55.3185 25.0633 55.341C24.4905 55.7173 23.9308 56.088 23.395 56.4927L23.3946 56.493C23.3794 56.5045 23.3649 56.5153 23.351 56.5257C23.3004 56.5634 23.2575 56.5954 23.213 56.6346C23.1583 56.6828 23.1257 56.7217 23.1083 56.7514C23.0941 56.7756 23.0944 56.7853 23.0945 56.791C23.0948 56.7998 23.098 56.849 23.1579 56.9466L23.1601 56.9502L23.1623 56.9539C23.1778 56.9802 23.1906 56.9902 23.198 56.9949C23.2068 57.0005 23.2199 57.0061 23.2399 57.0087C23.2607 57.0113 23.2852 57.0102 23.3101 57.005C23.3342 56.9998 23.3501 56.9927 23.355 56.9901C23.8709 56.6913 24.3874 56.4052 24.9001 56.1212C26.3182 55.3358 27.7073 54.5664 28.973 53.5894L29.2227 53.978L28.973 53.5894C33.2294 50.3044 36.5938 46.2 38.6172 40.855C39.7682 37.8099 40.4661 33.7744 40.4669 31.5836C40.4224 28.8943 40.3084 27.376 40.0334 26.2037C39.7627 25.05 39.3314 24.2093 38.5906 22.8752C37.6725 21.4493 36.0183 19.9018 34.129 18.8962C32.2302 17.8855 30.1729 17.4624 28.4275 18.1533ZM34.5079 18.0411C36.5184 19.1113 38.2972 20.7643 39.3082 22.3413L39.3164 22.3541L39.3238 22.3674C40.0708 23.7122 40.5666 24.66 40.8733 25.967C41.1763 27.2588 41.2896 28.8785 41.3341 31.5708L41.3342 31.5751V31.5794C41.3342 33.9072 40.6089 38.0694 39.4182 41.2191L39.4182 41.2193C37.3199 46.7622 33.8347 50.9997 29.4723 54.3666C28.1505 55.3869 26.6778 56.2025 25.2424 56.9974C24.7399 57.2757 24.242 57.5514 23.7568 57.8325L23.7525 57.835L23.7525 57.8349C23.5959 57.9232 23.3725 57.9829 23.1383 57.9527C22.8886 57.9204 22.6198 57.7825 22.4361 57.4736C22.3095 57.2662 22.2339 57.047 22.2277 56.8195C22.2214 56.5876 22.2883 56.3914 22.3792 56.2368C22.5265 55.9859 22.7632 55.8126 22.8726 55.7324C22.8844 55.7238 22.8947 55.7162 22.9033 55.7098C23.4646 55.2858 24.0463 54.9009 24.6174 54.5257L24.7161 54.4609C25.2567 54.1059 25.7863 53.7582 26.2977 53.3828C28.5033 51.7621 30.4995 49.9746 31.6132 47.3989L31.6132 47.3987C32.5918 45.1372 32.9472 43.0297 32.5382 41.148C32.1319 39.2783 30.9525 37.548 28.7033 36.0714L28.7032 36.0713C28.651 36.037 28.5986 36.0027 28.5463 35.9683C26.5758 34.6745 24.4979 33.3102 23.2064 30.9343L23.2064 30.9343C22.2287 29.135 21.717 27.1802 22.0491 24.9904L22.0492 24.9899C22.4042 22.6662 23.1893 20.4825 25.0745 19.0349C25.0997 19.0155 25.1244 18.9965 25.1485 18.9779C25.9775 18.3396 26.2107 18.16 27.2087 17.6593L27.2131 17.6572L27.2131 17.6572C27.3155 17.6073 28.0331 17.2996 28.1288 17.2609L28.1313 17.2599L28.1313 17.2599C30.1861 16.4458 32.5018 16.9734 34.5079 18.0411Z" fill="white"/>
<path fill-rule="evenodd" clip-rule="evenodd" d="M9.12272 13.2193C5.03263 19.1285 2.49027 27.3131 2.49027 36.3733C2.49027 45.4336 5.03263 53.6182 9.12272 59.5274C13.2126 65.4363 18.831 69.0491 25.0023 69.0491C31.1736 69.0491 36.792 65.4363 40.8818 59.5274C44.9719 53.6182 47.5143 45.4336 47.5143 36.3733C47.5143 27.3131 44.9719 19.1285 40.8818 13.2193C36.792 7.31043 31.1736 3.69762 25.0023 3.69762C18.831 3.69762 13.2126 7.31043 9.12272 13.2193ZM8.43183 12.6448C12.6466 6.55537 18.5011 2.74707 25.0023 2.74707C31.5035 2.74707 37.3579 6.55537 41.5727 12.6448C45.7873 18.7339 48.3815 27.1248 48.3815 36.3733C48.3815 45.6219 45.7873 54.0128 41.5727 60.1019C37.3579 66.1913 31.5035 69.9996 25.0023 69.9996C18.5011 69.9996 12.6466 66.1913 8.43183 60.1019C4.21723 54.0128 1.62305 45.6219 1.62305 36.3733C1.62305 27.1248 4.21723 18.7339 8.43183 12.6448Z" fill="white"/>
</svg>
