<svg width="126" height="163" viewBox="0 0 126 163" fill="none" xmlns="http://www.w3.org/2000/svg">
<path d="M63.0035 163C28.5407 163 0.507812 126.439 0.507812 81.5C0.507812 36.5614 28.5407 0 63.0035 0C97.4662 0 125.499 36.5614 125.499 81.5C125.508 126.439 97.4662 163 63.0035 163ZM63.0035 2.49755C29.9186 2.49755 3.00348 37.9403 3.00348 81.5C3.00348 125.06 29.9186 160.502 63.0035 160.502C96.0884 160.502 123.003 125.06 123.003 81.5C123.012 37.9403 96.0971 2.49755 63.0035 2.49755ZM59 130.09C58.1855 130.09 57.3449 129.734 56.8076 128.893C56.1057 127.843 55.7158 126.248 57.9342 124.739L58.0208 124.678C59.4853 123.664 61.0277 122.744 62.5182 121.851C63.8094 121.079 65.1439 120.273 66.409 119.432C71.2617 116.18 76.6083 112.043 79.468 106.016C84.104 96.2512 82.8042 88.6371 75.4732 82.8528C74.7106 86.0181 73.7054 89.2788 72.4836 92.236C67.6049 103.995 59.5546 113.717 47.8735 121.938C44.5806 124.253 40.9324 126.1 37.4056 127.878C36.1751 128.494 34.9532 129.118 33.74 129.76C32.6655 130.332 31.0624 130.15 30.2478 128.884C29.5459 127.835 29.156 126.239 31.3744 124.73L31.461 124.669C32.9255 123.655 34.468 122.736 35.9584 121.842C37.2496 121.071 38.5841 120.264 39.8492 119.423C44.7019 116.171 50.0485 112.043 52.9082 106.007C58.1335 94.985 55.8111 86.7119 45.8024 80.7108L45.4905 80.5287C40.5165 77.5455 35.3778 74.467 32.1716 69.0729C29.4766 64.5288 28.5321 60.106 29.2946 55.5532C30.3605 49.1792 32.7608 44.8779 36.8336 42.0161L37.0069 41.8947C39.078 40.4378 39.6326 40.0476 42.1283 38.9029C42.4056 38.7728 44.2167 38.079 44.4073 38.001C50.6811 35.7289 57.9688 38.0096 63.7747 41.7386C65.6725 40.4031 66.279 39.9955 68.6881 38.8942C68.974 38.7641 70.7764 38.0703 70.9671 37.9923C81.0884 34.3413 93.8267 42.4844 98.766 49.5088C102.579 55.796 103.567 57.9293 103.792 70.4171V70.4431C103.792 75.4556 102.128 84.804 99.0433 92.236C94.1647 104.004 86.1144 113.717 74.442 121.938C71.1491 124.253 67.5009 126.1 63.974 127.878C62.7435 128.494 61.5217 129.118 60.3085 129.751C59.9099 129.977 59.4593 130.09 59 130.09ZM32.1976 127.297C32.2063 127.297 32.2323 127.384 32.3276 127.523C32.3969 127.592 32.5182 127.583 32.5789 127.557C33.8007 126.916 35.0399 126.291 36.279 125.667C39.7279 123.924 43.2981 122.129 46.435 119.909C57.7175 111.965 65.4818 102.608 70.1699 91.2907C71.4437 88.2122 72.4922 84.6826 73.2635 81.2919C72.9688 81.1011 72.6655 80.9103 72.3536 80.7282L72.0416 80.5374C67.0763 77.5542 61.9376 74.4756 58.7314 69.0816C56.0364 64.5375 55.0919 60.1147 55.8544 55.5619C56.7643 50.1245 58.6361 46.2047 61.695 43.3863C56.5563 40.2904 50.3605 38.5126 45.2565 40.3598C45.0052 40.4551 43.3588 41.0969 43.1595 41.1836C40.8804 42.2243 40.4558 42.5191 38.4368 43.9413L38.2634 44.0627C34.7712 46.5169 32.7089 50.2979 31.7556 55.9695C31.0971 59.9152 31.929 63.783 34.312 67.7981C37.1976 72.6545 41.8423 75.4382 46.7643 78.3867L47.0763 78.5688C58.0815 85.1683 60.8718 95.0284 55.1525 107.083C52.0329 113.665 46.3657 118.061 41.2271 121.504C39.9186 122.38 38.5494 123.204 37.2323 123.993C35.7764 124.869 34.2686 125.771 32.8735 126.733L32.7782 126.803C32.6135 126.924 32.2496 127.167 32.1976 127.297ZM58.7574 127.297C58.766 127.297 58.792 127.384 58.8874 127.523C58.9567 127.592 59.078 127.583 59.1387 127.557C60.3518 126.916 61.591 126.291 62.8302 125.667C66.279 123.924 69.8492 122.12 72.9862 119.909C84.2686 111.965 92.0329 102.608 96.721 91.2907C99.5719 84.4225 101.279 75.3168 101.279 70.4691C101.071 58.6058 100.222 56.7673 96.6603 50.8963C92.1196 44.4443 80.4212 37.2552 71.799 40.3598C71.565 40.4638 69.9186 41.1056 69.7106 41.1923C67.8475 42.0508 67.2236 42.3977 65.9498 43.2822C68.5407 45.2335 70.7158 47.4362 72.1976 49.5348C76.0104 55.822 76.9983 57.964 77.2236 70.4431V70.4691C77.2236 72.9233 76.825 76.4095 76.0624 80.1992C85.0226 86.7466 86.9896 95.9997 81.7123 107.109C78.5927 113.682 72.9255 118.087 67.7868 121.53C66.4784 122.406 65.1092 123.23 63.792 124.019C62.3362 124.895 60.8284 125.797 59.4333 126.759L59.338 126.829C59.182 126.916 58.8094 127.167 58.7574 127.297ZM63.8527 44.8172C60.9411 47.2714 59.1733 50.8529 58.3068 55.9781C57.6482 59.9239 58.4801 63.7917 60.8631 67.8068C63.7487 72.6632 68.3934 75.4469 73.3154 78.3954L73.6274 78.5862C73.6881 78.6209 73.7401 78.6556 73.8007 78.6902C74.3986 75.4989 74.7279 72.5851 74.7279 70.4778C74.52 58.6144 73.6707 56.776 70.1092 50.905C68.6447 48.8324 66.4524 46.6817 63.8527 44.8172Z" fill="#EAE9E8"/>
</svg>
