<svg width="48" height="62" viewBox="0 0 48 62" fill="none" xmlns="http://www.w3.org/2000/svg">
<g clip-path="url(#clip0)">
<path d="M24 61.6802C37.2548 61.6802 48 47.9985 48 31.1213C48 14.2442 37.2548 0.5625 24 0.5625C10.7452 0.5625 0 14.2442 0 31.1213C0 47.9985 10.7452 61.6802 24 61.6802Z" fill="#D15C51"/>
<path fill-rule="evenodd" clip-rule="evenodd" d="M16.8186 15.5845C16.7764 15.5997 16.5901 15.67 16.3975 15.7436C16.3016 15.7803 16.2063 15.8169 16.1299 15.8465C16.0917 15.8614 16.0587 15.8743 16.0329 15.8845L16.0011 15.8972L15.9911 15.9013L15.9884 15.9024C15.0979 16.2986 14.9151 16.4235 14.1507 16.9454C14.1231 16.9643 14.0948 16.9836 14.0656 17.0035L14.0652 17.0038C12.5092 18.0632 11.8176 19.6788 11.4927 21.5639C11.2125 23.2022 11.6342 24.6801 12.5023 26.0966C13.6384 27.9499 15.4806 29.023 17.4329 30.1602L17.5143 30.2077C17.5144 30.2077 17.5144 30.2077 17.5145 30.2078C19.8252 31.5528 21.1398 33.195 21.5962 35.0572C22.0502 36.9092 21.6375 38.9073 20.6464 40.9382C19.4709 43.3489 17.3831 44.9792 15.2305 46.3817L15.2303 46.3818C14.7189 46.7146 14.1912 47.0218 13.6739 47.323C13.6407 47.3423 13.6075 47.3616 13.5744 47.3809C13.022 47.7027 12.4823 48.0196 11.9657 48.3656L11.9653 48.3659C11.9506 48.3757 11.9366 48.3849 11.9232 48.3938C11.8744 48.426 11.8331 48.4534 11.7901 48.4869C11.7374 48.5282 11.706 48.5614 11.6892 48.5868C11.6755 48.6075 11.6757 48.6158 11.6759 48.6207C11.6761 48.6282 11.6792 48.6702 11.737 48.7537L11.7391 48.7568L11.7412 48.76C11.7562 48.7824 11.7685 48.791 11.7757 48.795C11.7841 48.7998 11.7968 48.8046 11.8161 48.8068C11.8361 48.8091 11.8598 48.8081 11.8837 48.8036C11.907 48.7992 11.9223 48.7931 11.9271 48.7909C12.4246 48.5354 12.9227 48.2908 13.4171 48.048C14.7846 47.3764 16.1241 46.7186 17.3447 45.8832L17.3449 45.8831C21.4539 43.0745 24.6936 39.5653 26.6448 34.995C27.7548 32.3913 28.4278 28.9408 28.4286 27.0676C28.388 24.7682 28.278 23.4701 28.0123 22.468C27.7507 21.4815 27.3338 20.7628 26.6191 19.6218C25.7339 18.4026 24.1387 17.0794 22.3168 16.2196C20.4857 15.3555 18.5017 14.9937 16.8186 15.5845ZM22.6821 15.4885C24.6209 16.4035 26.3363 17.817 27.3112 19.1653L27.3191 19.1762L27.3262 19.1876C28.0464 20.3371 28.5258 21.1476 28.8221 22.2652C29.1151 23.37 29.2243 24.755 29.2648 27.0572L29.2649 27.0606V27.0641C29.2649 29.0544 28.5655 32.6132 27.4173 35.3063L27.4172 35.3065C25.3939 40.0456 22.0379 43.669 17.826 46.5479C16.5514 47.4202 15.1312 48.1175 13.7471 48.7972C13.2626 49.0351 12.7825 49.2708 12.3146 49.5112L12.3104 49.5133L12.3104 49.5133C12.1594 49.5888 11.9439 49.6398 11.7181 49.6139C11.4773 49.5863 11.2181 49.4685 11.041 49.2043C10.9189 49.027 10.846 48.8396 10.84 48.645C10.8339 48.4467 10.8985 48.279 10.986 48.1468C11.1282 47.9323 11.3564 47.7841 11.4619 47.7156C11.4733 47.7082 11.4832 47.7017 11.4915 47.6962C12.0327 47.3337 12.5937 47.0046 13.1445 46.6838C13.1762 46.6653 13.208 46.6468 13.2396 46.6284C13.7609 46.3249 14.2716 46.0275 14.7648 45.7066C16.8918 44.3209 18.8167 42.7925 19.8906 40.5901L19.8907 40.59C20.8344 38.6564 21.1771 36.8544 20.7827 35.2455C20.3909 33.6468 19.2536 32.1674 17.0846 30.9049L17.0845 30.9048C17.0341 30.8755 16.9837 30.8461 16.9332 30.8167C15.033 29.7105 13.0292 28.544 11.7838 26.5125L11.7838 26.5125C10.8409 24.9741 10.3475 23.3026 10.6678 21.4304L10.6679 21.4299C11.0102 19.4431 11.7673 17.576 13.5852 16.3382C13.6095 16.3216 13.6333 16.3054 13.6566 16.2895C14.456 15.7438 14.6809 15.5902 15.6433 15.1621L15.6475 15.1602L15.6475 15.1603C15.7463 15.1176 16.4383 14.8545 16.5306 14.8215L16.533 14.8206L16.533 14.8206C18.5145 14.1245 20.7476 14.5756 22.6821 15.4885Z" fill="white"/>
<path fill-rule="evenodd" clip-rule="evenodd" d="M27.1982 15.5845C27.156 15.5997 26.9697 15.67 26.7771 15.7436C26.6812 15.7803 26.5859 15.8169 26.5095 15.8465C26.4713 15.8614 26.4383 15.8743 26.4125 15.8845L26.3807 15.8972L26.3707 15.9013L26.368 15.9024C25.4775 16.2986 25.2947 16.4235 24.5303 16.9454C24.5027 16.9643 24.4744 16.9836 24.4452 17.0035L24.4448 17.0038C22.8888 18.0632 22.1972 19.6788 21.8723 21.5639C21.5921 23.2022 22.0137 24.6801 22.8818 26.0966C24.018 27.9499 25.8602 29.023 27.8125 30.1602L27.8939 30.2077C27.894 30.2077 27.894 30.2077 27.8941 30.2078C30.2048 31.5528 31.5194 33.195 31.9758 35.0572C32.4298 36.9092 32.0171 38.9073 31.026 40.9382C29.8505 43.3489 27.7627 44.9792 25.6101 46.3817L25.6099 46.3818C25.0985 46.7146 24.5708 47.0218 24.0535 47.323C24.0203 47.3423 23.9871 47.3616 23.954 47.3809C23.4016 47.7027 22.8619 48.0196 22.3453 48.3656L22.3449 48.3659C22.3302 48.3757 22.3162 48.3849 22.3028 48.3938C22.254 48.426 22.2127 48.4534 22.1697 48.4869C22.117 48.5282 22.0856 48.5614 22.0688 48.5868C22.0551 48.6075 22.0553 48.6158 22.0555 48.6207C22.0557 48.6282 22.0588 48.6702 22.1166 48.7537L22.1187 48.7568L22.1208 48.76C22.1358 48.7824 22.1481 48.791 22.1553 48.795C22.1637 48.7998 22.1764 48.8046 22.1957 48.8068C22.2157 48.8091 22.2393 48.8081 22.2633 48.8036C22.2866 48.7992 22.3019 48.7931 22.3067 48.7909C22.8041 48.5354 23.3022 48.2908 23.7967 48.048C25.1642 47.3764 26.5037 46.7186 27.7243 45.8832L27.965 46.2155L27.7243 45.8832C31.8288 43.0744 35.0732 39.5651 37.0244 34.995C38.1344 32.3914 38.8073 28.9409 38.8082 27.0677C38.7652 24.7683 38.6553 23.47 38.3901 22.4678C38.129 21.4813 37.7132 20.7625 36.9987 19.6218C36.1134 18.4026 34.5183 17.0794 32.6964 16.2196C30.8653 15.3555 28.8813 14.9937 27.1982 15.5845ZM33.0617 15.4885C35.0005 16.4035 36.7158 17.817 37.6908 19.1653L37.6987 19.1762L37.7058 19.1876C38.4262 20.3375 38.9043 21.1479 39.2 22.2654C39.4923 23.3699 39.6015 24.7548 39.6444 27.0568L39.6445 27.0604V27.0641C39.6445 29.0544 38.9451 32.6132 37.7969 35.3063L37.7968 35.3065C35.7734 40.0458 32.4126 43.669 28.2057 46.5477C26.9311 47.4201 25.5109 48.1175 24.1267 48.7972C23.6422 49.0351 23.1621 49.2708 22.6941 49.5112L22.69 49.5133L22.69 49.5133C22.5389 49.5888 22.3235 49.6398 22.0977 49.6139C21.8569 49.5863 21.5977 49.4685 21.4206 49.2043C21.2985 49.027 21.2256 48.8396 21.2196 48.645C21.2135 48.4467 21.2781 48.279 21.3656 48.1468C21.5078 47.9323 21.736 47.7841 21.8415 47.7156C21.8529 47.7082 21.8628 47.7017 21.8711 47.6962C22.4123 47.3337 22.9733 47.0046 23.5241 46.6838L23.6192 46.6284C24.1405 46.3249 24.6512 46.0275 25.1444 45.7066C27.2714 44.3209 29.1963 42.7925 30.2702 40.5901L30.2703 40.59C31.214 38.6564 31.5567 36.8544 31.1623 35.2455C30.7705 33.6468 29.6332 32.1674 27.4642 30.9049L27.4641 30.9048C27.4137 30.8755 27.3633 30.8461 27.3127 30.8167C25.4125 29.7105 23.4088 28.544 22.1634 26.5125L22.1634 26.5125C21.2205 24.9741 20.7271 23.3026 21.0474 21.4304L21.0475 21.4299C21.3898 19.4431 22.1469 17.576 23.9648 16.3382C23.9891 16.3216 24.0129 16.3054 24.0362 16.2895C24.8356 15.7438 25.0605 15.5902 26.0229 15.1621L26.0271 15.1602L26.0271 15.1603C26.1259 15.1176 26.8179 14.8545 26.9102 14.8215L26.9126 14.8206L26.9126 14.8206C28.894 14.1245 31.1272 14.5756 33.0617 15.4885Z" fill="white"/>
<path fill-rule="evenodd" clip-rule="evenodd" d="M8.58214 11.3658C4.63796 16.4183 2.18629 23.4164 2.18629 31.1631C2.18629 38.9098 4.63796 45.9079 8.58214 50.9604C12.5261 56.0126 17.9441 59.1017 23.8952 59.1017C29.8464 59.1017 35.2644 56.0126 39.2083 50.9604C43.1525 45.9079 45.6042 38.9098 45.6042 31.1631C45.6042 23.4164 43.1525 16.4183 39.2083 11.3658C35.2644 6.31353 29.8464 3.22448 23.8952 3.22448C17.9441 3.22448 12.5261 6.31353 8.58214 11.3658ZM7.9159 10.8745C11.9804 5.66793 17.6259 2.41174 23.8952 2.41174C30.1645 2.41174 35.8101 5.66793 39.8746 10.8745C43.9388 16.0809 46.4405 23.2553 46.4405 31.1631C46.4405 39.0708 43.9388 46.2453 39.8746 51.4516C35.8101 56.6582 30.1645 59.9144 23.8952 59.9144C17.6259 59.9144 11.9804 56.6582 7.9159 51.4516C3.85165 46.2453 1.35001 39.0708 1.35001 31.1631C1.35001 23.2553 3.85165 16.0809 7.9159 10.8745Z" fill="white"/>
</g>
<defs>
<clipPath id="clip0">
<rect width="48" height="61.1177" fill="white" transform="translate(0 0.5625)"/>
</clipPath>
</defs>
</svg>
