<?xml version="1.0" encoding="utf-8"?>
<!-- Generator: Adobe Illustrator 21.0.0, SVG Export Plug-In . SVG Version: 6.00 Build 0)  -->
<svg version="1.1" id="Layer_1" xmlns="http://www.w3.org/2000/svg" xmlns:xlink="http://www.w3.org/1999/xlink" x="0px" y="0px"
	 viewBox="0 0 1236 1610" style="enable-background:new 0 0 1236 1610;" xml:space="preserve">
<style type="text/css">
	.st0{fill:none;stroke:#E8E8E8;stroke-width:0.7;stroke-miterlimit:10;}
</style>
<path class="st0" d="M1008.8,696c0,50.3-17.3,141.5-46,210.5c-50.3,121.1-133.8,214-239,288.1c-42.8,30.2-91.8,51.8-138.4,76.4
	c-4.2,2.2-13.5,3.3-18.4-4.5c-9.2-13.6,2.8-20.7,8.6-24.8c26.7-18.4,55.7-33.7,82.8-51.7c54.2-36.2,104.9-77.4,133.4-137.5
	c49-103.2,38.2-197.9-75.1-265.8C667.1,757,617,727.7,586.3,676.1c-22.9-38.5-34.5-79.4-26.8-125.2c8.5-50.5,26.7-95.7,69.4-125.7
	c21.5-15.1,26.1-18.5,50.4-29.6c2.1-1,19.4-7.7,21.7-8.5c92.8-33.5,213.4,42.3,260.6,109.2C997.7,556.3,1006.7,576.1,1008.8,696z
	 M746.2,696c0,50.3-17.3,141.5-46,210.5c-50.3,121.1-133.8,214-239,288.1c-42.8,30.2-91.8,51.8-138.4,76.4
	c-4.2,2.2-13.5,3.3-18.4-4.5c-9.2-13.6,2.8-20.7,8.6-24.8c26.7-18.4,55.7-33.7,82.8-51.7c54.2-36.2,104.9-77.4,133.4-137.5
	c49-103.2,38.2-197.9-75.1-265.8c-49.7-29.8-99.7-59.1-130.5-110.8c-22.9-38.5-34.5-79.4-26.8-125.2c8.5-50.5,26.7-95.7,69.4-125.7
	c21.5-15.1,26.1-18.5,50.4-29.6c2.1-1,19.4-7.7,21.7-8.5c92.8-33.5,213.4,42.3,260.6,109.2C735.1,556.3,744.1,576.1,746.2,696z
	 M1223.7,805c0,437.8-271.2,792.7-605.6,792.7c-334.5,0-605.6-354.9-605.6-792.7C12.4,367.2,283.5,12.3,618,12.3
	C952.5,12.3,1223.7,367.2,1223.7,805z"/>
</svg>
