<svg width="67" height="60" viewBox="0 0 67 60" fill="none" xmlns="http://www.w3.org/2000/svg">
<path d="M65.6324 2.71576H61.2662V0.436618C61.2662 0.320819 61.2202 0.209764 61.1383 0.127882C61.0564 0.0460003 60.9454 0 60.8296 0H48.9274C48.8116 0 48.7005 0.0460003 48.6186 0.127882C48.5368 0.209764 48.4908 0.320819 48.4908 0.436618V2.71576H41.9328C39.9898 2.68865 38.0871 3.27021 36.4914 4.37894C34.8957 5.48766 33.6869 7.06795 33.0345 8.89827C32.3821 7.06795 31.1733 5.48766 29.5776 4.37894C27.9818 3.27021 26.0791 2.68865 24.1362 2.71576H0.436618C0.320819 2.71576 0.209764 2.76176 0.127882 2.84364C0.0460003 2.92553 0 3.03658 0 3.15238V51.1803C0 51.2961 0.0460003 51.4072 0.127882 51.489C0.209764 51.5709 0.320819 51.6169 0.436618 51.6169H24.1362C26.3095 51.558 28.4181 52.36 30.0029 53.8483C31.5877 55.3366 32.5204 57.3907 32.5979 59.5634C32.5979 59.6792 32.6439 59.7902 32.7258 59.8721C32.8076 59.954 32.9187 60 33.0345 60C33.1503 60 33.2613 59.954 33.3432 59.8721C33.4251 59.7902 33.4711 59.6792 33.4711 59.5634C33.5396 57.3845 34.4683 55.3215 36.0541 53.8257C37.6399 52.3299 39.7536 51.5232 41.9328 51.582H65.6324C65.7482 51.582 65.8592 51.536 65.9411 51.4541C66.023 51.3722 66.069 51.2612 66.069 51.1454V3.11745C66.0602 3.00781 66.0103 2.90553 65.9294 2.83106C65.8484 2.75658 65.7424 2.71541 65.6324 2.71576ZM32.5979 55.8085C31.8077 54.2471 30.5965 52.9379 29.1012 52.029C27.6058 51.1201 25.886 50.6476 24.1362 50.6651H0.873235V3.51041H24.1362C26.3154 3.4516 28.4291 4.25835 30.0149 5.75413C31.6006 7.24991 32.5294 9.31292 32.5979 11.4918V55.8085ZM49.364 3.15238V0.873235H60.4104V26.721L55.171 21.6388C55.0894 21.5588 54.9797 21.514 54.8654 21.514C54.7511 21.514 54.6414 21.5588 54.5597 21.6388L49.3203 26.721L49.364 3.15238ZM65.1957 50.7H41.9328C40.1866 50.6793 38.4693 51.1465 36.9743 52.0491C35.4794 52.9516 34.2661 54.2536 33.4711 55.8085V11.5791C33.5396 9.40025 34.4683 7.33723 36.0541 5.84145C37.6399 4.34567 39.7536 3.53892 41.9328 3.59773H48.4908V27.7514C48.4902 27.8376 48.5153 27.922 48.5627 27.994C48.6101 28.066 48.6777 28.1224 48.7571 28.156C48.8365 28.1896 48.924 28.199 49.0087 28.183C49.0934 28.1669 49.1715 28.1261 49.233 28.0658L54.8654 22.5557L60.5239 28.0658C60.5855 28.1261 60.6635 28.1669 60.7482 28.183C60.8329 28.199 60.9205 28.1896 60.9999 28.156C61.0792 28.1224 61.1469 28.066 61.1943 27.994C61.2417 27.922 61.2667 27.8376 61.2662 27.7514V3.589H65.1783L65.1957 50.7ZM27.3585 13.5351C27.3585 13.6509 27.3125 13.762 27.2306 13.8439C27.1487 13.9258 27.0376 13.9718 26.9218 13.9718H6.54926C6.43347 13.9718 6.32241 13.9258 6.24053 13.8439C6.15865 13.762 6.11265 13.6509 6.11265 13.5351C6.11265 13.4193 6.15865 13.3083 6.24053 13.2264C6.32241 13.1445 6.43347 13.0985 6.54926 13.0985H26.9218C27.0376 13.0985 27.1487 13.1445 27.2306 13.2264C27.3125 13.3083 27.3585 13.4193 27.3585 13.5351ZM27.3585 20.6433C27.3585 20.7591 27.3125 20.8701 27.2306 20.952C27.1487 21.0339 27.0376 21.0799 26.9218 21.0799H6.54926C6.43347 21.0799 6.32241 21.0339 6.24053 20.952C6.15865 20.8701 6.11265 20.7591 6.11265 20.6433C6.11265 20.5275 6.15865 20.4164 6.24053 20.3345C6.32241 20.2527 6.43347 20.2067 6.54926 20.2067H26.9218C27.0376 20.2067 27.1487 20.2527 27.2306 20.3345C27.3125 20.4164 27.3585 20.5275 27.3585 20.6433ZM27.3585 27.7514C27.3585 27.8672 27.3125 27.9783 27.2306 28.0602C27.1487 28.142 27.0376 28.188 26.9218 28.188H6.54926C6.43347 28.188 6.32241 28.142 6.24053 28.0602C6.15865 27.9783 6.11265 27.8672 6.11265 27.7514C6.11265 27.6356 6.15865 27.5246 6.24053 27.4427C6.32241 27.3608 6.43347 27.3148 6.54926 27.3148H26.9218C27.0376 27.3148 27.1487 27.3608 27.2306 27.4427C27.3125 27.5246 27.3585 27.6356 27.3585 27.7514ZM27.3585 34.8596C27.3585 34.9753 27.3125 35.0864 27.2306 35.1683C27.1487 35.2502 27.0376 35.2962 26.9218 35.2962H6.54926C6.43347 35.2962 6.32241 35.2502 6.24053 35.1683C6.15865 35.0864 6.11265 34.9753 6.11265 34.8596C6.11265 34.7438 6.15865 34.6327 6.24053 34.5508C6.32241 34.4689 6.43347 34.4229 6.54926 34.4229H26.9218C27.0361 34.4229 27.1459 34.4677 27.2275 34.5477C27.3092 34.6277 27.3562 34.7365 27.3585 34.8508V34.8596ZM27.3585 41.9677C27.3585 42.0835 27.3125 42.1945 27.2306 42.2764C27.1487 42.3583 27.0376 42.4043 26.9218 42.4043H6.54926C6.43347 42.4043 6.32241 42.3583 6.24053 42.2764C6.15865 42.1945 6.11265 42.0835 6.11265 41.9677C6.11265 41.8519 6.15865 41.7408 6.24053 41.659C6.32241 41.5771 6.43347 41.5311 6.54926 41.5311H26.9218C27.0376 41.5311 27.1487 41.5771 27.2306 41.659C27.3125 41.7408 27.3585 41.8519 27.3585 41.9677ZM59.9563 34.8508C59.9563 34.9666 59.9103 35.0777 59.8285 35.1596C59.7466 35.2414 59.6355 35.2874 59.5197 35.2874H39.1471C39.0313 35.2874 38.9203 35.2414 38.8384 35.1596C38.7565 35.0777 38.7105 34.9666 38.7105 34.8508C38.7105 34.735 38.7565 34.624 38.8384 34.5421C38.9203 34.4602 39.0313 34.4142 39.1471 34.4142H59.5197C59.6355 34.4142 59.7466 34.4602 59.8285 34.5421C59.9103 34.624 59.9563 34.735 59.9563 34.8508ZM59.9563 41.959C59.9563 42.0747 59.9103 42.1858 59.8285 42.2677C59.7466 42.3496 59.6355 42.3956 59.5197 42.3956H39.1471C39.0313 42.3956 38.9203 42.3496 38.8384 42.2677C38.7565 42.1858 38.7105 42.0747 38.7105 41.959C38.7105 41.8432 38.7565 41.7321 38.8384 41.6502C38.9203 41.5683 39.0313 41.5223 39.1471 41.5223H59.5197C59.5778 41.5223 59.6353 41.5339 59.6888 41.5564C59.7424 41.5789 59.7909 41.6118 59.8316 41.6533C59.8722 41.6948 59.9042 41.7439 59.9256 41.7979C59.9471 41.8519 59.9575 41.9096 59.9563 41.9677V41.959Z" fill="#ffffff"/>
</svg>
