<?xml version="1.0" encoding="utf-8"?>
<!-- Generator: Adobe Illustrator 21.0.0, SVG Export Plug-In . SVG Version: 6.00 Build 0)  -->
<svg version="1.1" id="Layer_1" xmlns="http://www.w3.org/2000/svg" xmlns:xlink="http://www.w3.org/1999/xlink" x="0px" y="0px"
	 viewBox="0 0 58.8 75" style="enable-background:new 0 0 58.8 75;" xml:space="preserve">
<style type="text/css">
	.st0{opacity:0.5;fill:#C2BCBC;}
</style>
<path class="st0" d="M36.6,26.9c-0.1-5.3-0.3-8.4-1-10.8c-0.6-2.4-1.6-4.1-3.2-6.7c-1.4-2-3.5-4-6-5.7c0,0-0.5-0.3-0.8-0.5
	c-3.1-1.8-6.6-3.1-9.9-3.1c-1.3,0-2.7,0.2-3.9,0.7c-0.1,0-1,0.4-1.5,0.6C10.2,1.4,10,1.4,10,1.4C9,1.9,8.4,2.2,7.9,2.5
	c-0.6,0.3-1.1,0.7-2,1.3C4.2,5.1,3,6.6,2.1,8.3C1.2,10,0.6,11.9,0.3,14c-0.1,0.8-0.2,1.5-0.2,2.2c0,2.8,0.9,5.4,2.4,7.8
	c2.5,4.2,6.6,6.6,10.7,9.1c3.1,1.8,5.3,3.9,6.7,6.2c1.4,2.3,2.1,4.8,2.1,7.4c0,3-0.9,6.1-2.4,9.2c-2.5,5.1-6.8,8.6-11.4,11.7
	c-2.3,1.5-4.7,2.8-6.9,4.3c-0.2,0.1-0.4,0.3-0.6,0.4c-0.2,0.2-0.2,0.3-0.2,0.4c0,0.1,0,0.3,0.2,0.5l0,0c0.1,0.1,0.1,0.2,0.2,0.2
	c0.1,0,0.2,0.1,0.3,0.1h0c0.1,0,0.3,0,0.3-0.1c3.9-2.1,8-3.9,11.5-6.3C22,61,28.9,53.3,33,43.4c1.1-2.6,2.6-8.3,2.6-8.3
	C36.3,31.9,36.6,29,36.6,26.9z"/>
<path class="st0" d="M58,26.9c-0.1-5.3-0.3-8.4-1-10.8c-0.6-2.4-1.6-4.1-3.2-6.7c-1.4-2-3.5-4-6-5.7c0,0-0.5-0.3-0.8-0.5
	c-3.1-1.8-6.6-3.1-9.9-3.1c-1.3,0-2.7,0.2-3.9,0.7c-0.1,0-1,0.4-1.5,0.6c-0.2,0.1-0.3,0.1-0.3,0.1c-1,0.5-1.6,0.8-2.1,1.1
	c-0.6,0.3-1.1,0.7-2,1.3c-1.7,1.2-2.9,2.7-3.8,4.4C22.5,10,22,11.9,21.6,14c-0.1,0.8-0.2,1.5-0.2,2.2c0,2.8,0.9,5.4,2.4,7.8
	c2.5,4.2,6.6,6.6,10.7,9.1c3.1,1.8,5.3,3.9,6.7,6.2c1.4,2.3,2.1,4.8,2.1,7.4c0,3-0.9,6.1-2.4,9.2c-2.5,5.1-6.8,8.6-11.4,11.7
	c-2.3,1.5-4.7,2.8-6.9,4.3c-0.2,0.1-0.4,0.3-0.6,0.4c-0.2,0.2-0.2,0.3-0.2,0.4c0,0.1,0,0.3,0.2,0.5l0,0c0.1,0.1,0.1,0.2,0.2,0.2
	s0.2,0.1,0.3,0.1h0c0.1,0,0.3,0,0.3-0.1c3.9-2.1,8-3.9,11.5-6.3c8.7-6.1,15.7-13.8,19.8-23.8C55.4,40.8,57,35,57,35
	C57.6,31.9,58,29,58,26.9z"/>
</svg>
