<svg width="24" height="19" viewBox="0 0 24 19" fill="none" xmlns="http://www.w3.org/2000/svg">
<path d="M15.7951 0.859596V0.855713H16.81L17.1808 0.929482C17.4281 0.977375 17.6525 1.04014 17.8542 1.11779C18.0559 1.19544 18.2511 1.28604 18.4397 1.38957C18.6284 1.4931 18.7995 1.59859 18.953 1.706C19.1053 1.81214 19.2419 1.92473 19.3629 2.04379C19.4826 2.16415 19.6693 2.19521 19.923 2.13697C20.1768 2.07874 20.45 1.99784 20.7428 1.89431C21.0356 1.79078 21.3251 1.6743 21.6113 1.54488C21.8976 1.41545 22.072 1.33327 22.1344 1.29833C22.1956 1.26211 22.2281 1.24269 22.232 1.24009L22.2359 1.23427L22.2554 1.22456L22.2749 1.21485L22.2944 1.20515L22.314 1.19544L22.3179 1.18962L22.3237 1.18573L22.3296 1.18185L22.3335 1.17603L22.353 1.1702L22.3725 1.16632L22.3686 1.19544L22.3627 1.22456L22.353 1.25368L22.3432 1.2828L22.3335 1.30221L22.3237 1.32163L22.314 1.35075C22.3075 1.37016 22.301 1.39604 22.2944 1.4284C22.2879 1.46076 22.2261 1.59017 22.109 1.81666C21.9919 2.04315 21.8455 2.27287 21.6699 2.50582C21.4942 2.73878 21.3368 2.91478 21.1976 3.03386C21.057 3.15422 20.964 3.23834 20.9184 3.28623C20.8729 3.3354 20.8176 3.38069 20.7525 3.42212L20.655 3.48618L20.6354 3.49589L20.6159 3.50559L20.612 3.51142L20.6062 3.5153L20.6003 3.51918L20.5964 3.52501L20.5769 3.53471L20.5574 3.54442L20.5535 3.55025L20.5476 3.55413L20.5418 3.55801L20.5379 3.56383L20.534 3.56966L20.5281 3.57354L20.5222 3.57742L20.5183 3.58325H20.6159L21.1624 3.46677C21.5268 3.38912 21.8748 3.29529 22.2066 3.18528L22.7336 3.01056L22.7921 2.99115L22.8214 2.98144L22.8409 2.97174L22.8604 2.96203L22.88 2.95232L22.8995 2.94262L22.9385 2.93679L22.9776 2.93291V2.97174L22.9678 2.97562L22.958 2.98144L22.9542 2.98727L22.9483 2.99115L22.9424 2.99503L22.9385 3.00086L22.9346 3.00668L22.9288 3.01056L22.9229 3.01444L22.919 3.02027L22.9151 3.02609L22.9092 3.02997L22.8995 3.04939L22.8897 3.0688L22.8839 3.07268C22.8813 3.07657 22.7987 3.18656 22.636 3.40271C22.4734 3.62013 22.3855 3.73013 22.3725 3.73273C22.3595 3.73661 22.3413 3.75602 22.3179 3.79097C22.2957 3.82719 22.1578 3.97151 21.9041 4.22388C21.6504 4.47625 21.4019 4.70078 21.1585 4.89751C20.9139 5.09552 20.7903 5.33883 20.7877 5.62744C20.7838 5.91475 20.7688 6.23961 20.7428 6.60198C20.7168 6.96436 20.668 7.35584 20.5964 7.77647C20.5249 8.19709 20.4142 8.67271 20.2646 9.20333C20.115 9.73394 19.9328 10.2516 19.7181 10.7564C19.5034 11.2611 19.279 11.7141 19.0448 12.1153C18.8105 12.5165 18.5959 12.8562 18.4007 13.1345C18.2055 13.4127 18.0071 13.6748 17.8054 13.9207C17.6037 14.1666 17.3487 14.4436 17.0403 14.7516C16.7306 15.0583 16.5615 15.2266 16.5329 15.2563C16.5029 15.2848 16.3754 15.3909 16.1503 15.5747C15.9265 15.7598 15.6858 15.9448 15.4281 16.1299C15.1718 16.3137 14.9363 16.4671 14.7216 16.59C14.5069 16.7129 14.248 16.8534 13.9448 17.0113C13.6429 17.1704 13.3163 17.318 12.965 17.4539C12.6137 17.5898 12.2429 17.716 11.8525 17.8324C11.4622 17.9489 11.0848 18.0395 10.7205 18.1042C10.3562 18.1689 9.94305 18.2239 9.48112 18.2692L8.78825 18.3372V18.3469H7.5196V18.3372L7.3537 18.3275C7.24312 18.321 7.15203 18.3145 7.08046 18.308C7.00891 18.3016 6.7389 18.266 6.27048 18.2013C5.80205 18.1366 5.43448 18.0718 5.16773 18.0071C4.901 17.9424 4.50413 17.8195 3.97716 17.6383C3.45018 17.4571 2.99932 17.274 2.62459 17.0889C2.25116 16.9051 2.01694 16.7886 1.92195 16.7395C1.82827 16.6916 1.72287 16.6321 1.60577 16.5609L1.43011 16.4541L1.42622 16.4483L1.42035 16.4444L1.41449 16.4405L1.41059 16.4347L1.39107 16.425L1.37155 16.4153L1.36767 16.4095L1.3618 16.4056L1.35594 16.4017L1.35204 16.3959L1.34815 16.39L1.34228 16.3862H1.33252V16.3473L1.35204 16.3512L1.37155 16.357L1.45938 16.3667C1.51794 16.3732 1.67734 16.3829 1.93757 16.3959C2.19781 16.4088 2.4743 16.4088 2.76706 16.3959C3.05983 16.3829 3.35911 16.3538 3.66487 16.3085C3.97066 16.2632 4.33173 16.1856 4.7481 16.0755C5.16449 15.9655 5.54704 15.8348 5.89576 15.6834C6.24317 15.5307 6.49038 15.4168 6.63743 15.3417C6.78315 15.268 7.00565 15.1308 7.30491 14.9302L7.75381 14.6293L7.75772 14.6235L7.76357 14.6196L7.76945 14.6157L7.77333 14.6099L7.77724 14.604L7.78309 14.6002L7.78897 14.5963L7.79285 14.5904L7.81237 14.5846L7.83189 14.5807L7.83579 14.5613L7.84164 14.5419L7.84752 14.538L7.8514 14.5322L7.69526 14.5225C7.59118 14.516 7.49033 14.5096 7.39274 14.5031C7.29515 14.4966 7.14227 14.4675 6.93407 14.4157C6.7259 14.364 6.50145 14.2863 6.26072 14.1828C6.02001 14.0792 5.7858 13.9563 5.55808 13.8139C5.33039 13.6716 5.16578 13.5531 5.06429 13.4587C4.9641 13.3655 4.83398 13.2335 4.67394 13.0626C4.5152 12.8905 4.37727 12.7138 4.26016 12.5327C4.14306 12.3515 4.03116 12.1424 3.92448 11.9056L3.76246 11.5523L3.7527 11.5232L3.74294 11.4941L3.73709 11.4747L3.73319 11.4552L3.76246 11.4591L3.79174 11.4649L4.00643 11.4941C4.14957 11.5135 4.37403 11.5199 4.67979 11.5135C4.98557 11.507 5.19701 11.4941 5.31411 11.4747C5.43122 11.4552 5.50279 11.4423 5.52881 11.4358L5.56784 11.4261L5.61664 11.4164L5.66543 11.4067L5.66933 11.4009L5.67519 11.397L5.68106 11.3931L5.68495 11.3873L5.64591 11.3776L5.60688 11.3679L5.56784 11.3582L5.52881 11.3485L5.48977 11.3388C5.46375 11.3323 5.41822 11.3193 5.35315 11.2999C5.2881 11.2805 5.11244 11.2093 4.82617 11.0864C4.53993 10.9634 4.31222 10.8437 4.14306 10.7273C3.97348 10.6104 3.81178 10.4827 3.65902 10.3448C3.50678 10.205 3.33959 10.0251 3.15742 9.80513C2.97526 9.58512 2.81262 9.32951 2.66948 9.03832C2.52635 8.74712 2.41901 8.46887 2.34744 8.20355C2.27615 7.9398 2.22912 7.67014 2.20693 7.39791L2.17178 6.99024L2.19129 6.99412L2.21081 6.99994L2.23033 7.00965L2.24985 7.01936L2.26937 7.02906L2.28888 7.03877L2.59141 7.17466C2.7931 7.26526 3.04357 7.34291 3.34283 7.40762C3.64212 7.47232 3.82102 7.50793 3.87957 7.51439L3.9674 7.5241H4.14306L4.13917 7.51827L4.1333 7.51439L4.12744 7.51051L4.12354 7.50468L4.11965 7.49886L4.11378 7.49498L4.10792 7.49109L4.10402 7.48527L4.0845 7.47556L4.06499 7.46586L4.0611 7.46003L4.05523 7.45615L4.04937 7.45227L4.04547 7.44644L4.02595 7.43674L4.00643 7.42703L4.00255 7.42121C3.99865 7.41861 3.94269 7.3772 3.83468 7.29696C3.72797 7.21543 3.61608 7.10996 3.49897 6.98053C3.38187 6.8511 3.26476 6.71521 3.14766 6.57286C3.03034 6.43018 2.92584 6.27752 2.83538 6.11665C2.74431 5.95488 2.64801 5.74908 2.54652 5.49932C2.44633 5.25083 2.37021 5.0004 2.31816 4.74803C2.26613 4.49566 2.23685 4.24653 2.23033 4.00063C2.22383 3.75472 2.23033 3.54442 2.24985 3.3697C2.26937 3.19499 2.3084 2.99761 2.36695 2.77761C2.42551 2.5576 2.5101 2.32464 2.62068 2.07874L2.78658 1.70989L2.79634 1.68077L2.8061 1.65165L2.81197 1.64777L2.81586 1.64194L2.81976 1.63612L2.82562 1.63224L2.83149 1.63612L2.83538 1.64194L2.83928 1.64777L2.84513 1.65165L2.85101 1.65553L2.85489 1.66135L2.8588 1.66718L2.86465 1.67106L2.87441 1.69047L2.88417 1.70989L2.89004 1.71377L2.89393 1.71959L3.15742 2.01079C3.33308 2.20492 3.54127 2.42171 3.78198 2.66113C4.02271 2.90055 4.15607 3.02479 4.18209 3.03386C4.20813 3.0442 4.24064 3.07397 4.27968 3.12316C4.31871 3.17105 4.44884 3.28559 4.67003 3.46677C4.89124 3.64795 5.18075 3.85827 5.53857 4.09769C5.8964 4.33711 6.29325 4.57331 6.72914 4.80627C7.16505 5.03923 7.63347 5.24953 8.13441 5.43719C8.63537 5.62486 8.98668 5.7478 9.18836 5.80604C9.39005 5.86428 9.73485 5.93869 10.2228 6.02929C10.7107 6.11989 11.0783 6.17813 11.3255 6.20401C11.5728 6.22989 11.7419 6.24478 11.833 6.24866L11.9696 6.25254L11.9657 6.22342L11.9599 6.1943L11.9208 5.95164C11.8948 5.78987 11.8818 5.56338 11.8818 5.27218C11.8818 4.98099 11.9046 4.71245 11.9501 4.46654C11.9957 4.22064 12.064 3.97151 12.155 3.71914C12.2461 3.46677 12.3353 3.26421 12.4224 3.11151C12.5109 2.96009 12.6267 2.78731 12.7698 2.59318C12.913 2.39905 13.0984 2.19846 13.3261 1.99138C13.5538 1.7843 13.814 1.59987 14.1068 1.4381C14.3996 1.27634 14.6696 1.15337 14.9168 1.06926C15.164 0.98514 15.3722 0.930123 15.5413 0.904246C15.7105 0.878368 15.7951 0.863478 15.7951 0.859596Z" fill="#F5F5F5"/>
<path d="M8.78825 18.3469V18.3372L9.48112 18.2692C9.94305 18.2239 10.3562 18.1689 10.7205 18.1042C11.0848 18.0395 11.4622 17.9489 11.8525 17.8324C12.2429 17.716 12.6137 17.5898 12.965 17.4539C13.3163 17.318 13.6429 17.1704 13.9448 17.0113C14.248 16.8534 14.5069 16.7129 14.7216 16.59C14.9363 16.4671 15.1718 16.3137 15.4281 16.1299C15.6858 15.9448 15.9265 15.7598 16.1503 15.5747C16.3754 15.3909 16.5029 15.2848 16.5329 15.2563C16.5615 15.2266 16.7306 15.0583 17.0403 14.7516C17.3487 14.4436 17.6037 14.1666 17.8054 13.9207C18.0071 13.6748 18.2055 13.4127 18.4007 13.1345C18.5959 12.8562 18.8105 12.5165 19.0448 12.1153C19.279 11.7141 19.5034 11.2611 19.7181 10.7564C19.9328 10.2516 20.115 9.73394 20.2646 9.20333C20.4142 8.67271 20.5249 8.19709 20.5964 7.77647C20.668 7.35584 20.7168 6.96436 20.7428 6.60198C20.7688 6.23961 20.7838 5.91476 20.7877 5.62744C20.7903 5.33883 20.9139 5.09552 21.1585 4.89751C21.4019 4.70078 21.6504 4.47625 21.9041 4.22388C22.1578 3.97151 22.2957 3.82719 22.3179 3.79097C22.3413 3.75602 22.3595 3.73661 22.3725 3.73273C22.3855 3.73013 22.4734 3.62013 22.636 3.40271C22.7987 3.18656 22.8813 3.07657 22.8839 3.07268L22.8897 3.0688L22.8995 3.04939L22.9092 3.02997L22.9151 3.02609L22.919 3.02027L22.9229 3.01444L22.9288 3.01056L22.9346 3.00668L22.9385 3.00086L22.9424 2.99503L22.9483 2.99115L22.9542 2.98727L22.958 2.98144L22.9678 2.97562L22.9776 2.97174V2.93291L22.9385 2.93679L22.8995 2.94262L22.88 2.95232L22.8604 2.96203L22.8409 2.97174L22.8214 2.98144L22.7921 2.99115L22.7336 3.01056L22.2066 3.18528C21.8748 3.29529 21.5268 3.38912 21.1624 3.46677L20.6159 3.58325H20.5183L20.5222 3.57742L20.5281 3.57354L20.534 3.56966L20.5379 3.56383L20.5418 3.55801L20.5476 3.55413L20.5535 3.55025L20.5574 3.54442L20.5769 3.53471L20.5964 3.52501L20.6003 3.51918L20.6062 3.5153L20.612 3.51142L20.6159 3.50559L20.6354 3.49589L20.655 3.48618L20.7525 3.42212C20.8176 3.38069 20.8729 3.3354 20.9184 3.28623C20.964 3.23834 21.057 3.15422 21.1976 3.03386C21.3368 2.91478 21.4942 2.73878 21.6699 2.50582C21.8455 2.27287 21.9919 2.04315 22.109 1.81666C22.2261 1.59017 22.2879 1.46076 22.2944 1.4284C22.301 1.39604 22.3075 1.37016 22.314 1.35075L22.3237 1.32163L22.3335 1.30221L22.3432 1.2828L22.353 1.25368L22.3627 1.22456L22.3686 1.19544L22.3725 1.16632L22.353 1.1702L22.3335 1.17603L22.3296 1.18185L22.3237 1.18573L22.3179 1.18962L22.314 1.19544L22.2944 1.20515L22.2749 1.21485L22.2554 1.22456L22.2359 1.23427L22.232 1.24009C22.2281 1.24269 22.1956 1.26211 22.1344 1.29833C22.072 1.33327 21.8976 1.41545 21.6113 1.54488C21.3251 1.6743 21.0356 1.79078 20.7428 1.89431C20.45 1.99784 20.1768 2.07874 19.923 2.13697C19.6693 2.19521 19.4826 2.16415 19.3629 2.04379C19.2419 1.92473 19.1053 1.81214 18.953 1.706C18.7995 1.59859 18.6284 1.4931 18.4397 1.38957C18.2511 1.28604 18.0559 1.19544 17.8542 1.11779C17.6525 1.04014 17.4281 0.977375 17.1808 0.929482L16.81 0.855713H15.7951V0.859596C15.7951 0.863478 15.7105 0.878368 15.5413 0.904246C15.3722 0.930123 15.164 0.98514 14.9168 1.06926C14.6696 1.15337 14.3996 1.27634 14.1068 1.4381C13.814 1.59987 13.5538 1.7843 13.3261 1.99138C13.0984 2.19846 12.913 2.39905 12.7698 2.59318C12.6267 2.78731 12.5109 2.96009 12.4224 3.11151C12.3353 3.26421 12.2461 3.46677 12.155 3.71914C12.064 3.97151 11.9957 4.22064 11.9501 4.46654C11.9046 4.71245 11.8818 4.98099 11.8818 5.27218C11.8818 5.56338 11.8948 5.78987 11.9208 5.95164L11.9599 6.1943L11.9657 6.22342L11.9696 6.25254L11.833 6.24866C11.7419 6.24478 11.5728 6.22989 11.3255 6.20401C11.0783 6.17813 10.7107 6.11989 10.2228 6.02929C9.73485 5.93869 9.39005 5.86428 9.18836 5.80604C8.98668 5.7478 8.63537 5.62486 8.13441 5.43719C7.63347 5.24953 7.16505 5.03923 6.72914 4.80627C6.29325 4.57331 5.8964 4.33711 5.53857 4.09769C5.18075 3.85827 4.89124 3.64795 4.67003 3.46677C4.44884 3.28559 4.31871 3.17105 4.27968 3.12316C4.24064 3.07397 4.20813 3.0442 4.18209 3.03386C4.15607 3.02479 4.02271 2.90055 3.78198 2.66113C3.54127 2.42171 3.33308 2.20492 3.15742 2.01079L2.89393 1.71959L2.89004 1.71377L2.88417 1.70989L2.87441 1.69047L2.86465 1.67106L2.8588 1.66718L2.85489 1.66135L2.85101 1.65553L2.84513 1.65165L2.83928 1.64777L2.83538 1.64194L2.83149 1.63612L2.82562 1.63224L2.81976 1.63612L2.81586 1.64194L2.81197 1.64777L2.8061 1.65165L2.79634 1.68077L2.78658 1.70989L2.62068 2.07874C2.5101 2.32464 2.42551 2.5576 2.36695 2.77761C2.3084 2.99761 2.26937 3.19499 2.24985 3.3697C2.23033 3.54442 2.22383 3.75472 2.23033 4.00063C2.23685 4.24653 2.26613 4.49566 2.31816 4.74803C2.37021 5.0004 2.44633 5.25083 2.54652 5.49932C2.64801 5.74908 2.74431 5.95488 2.83538 6.11665C2.92584 6.27752 3.03034 6.43018 3.14766 6.57286C3.26476 6.71521 3.38187 6.8511 3.49897 6.98053C3.61608 7.10996 3.72797 7.21543 3.83468 7.29696C3.94269 7.3772 3.99865 7.41861 4.00255 7.42121L4.00643 7.42703L4.02595 7.43674L4.04547 7.44644L4.04937 7.45227L4.05523 7.45615L4.0611 7.46003L4.06499 7.46586L4.0845 7.47556L4.10402 7.48527L4.10792 7.49109L4.11378 7.49498L4.11965 7.49886L4.12354 7.50468L4.12744 7.51051L4.1333 7.51439L4.13917 7.51827L4.14306 7.5241H3.9674L3.87957 7.51439C3.82102 7.50793 3.64212 7.47232 3.34283 7.40762C3.04357 7.34291 2.7931 7.26526 2.59141 7.17466L2.28888 7.03877L2.26937 7.02906L2.24985 7.01936L2.23033 7.00965L2.21081 6.99994L2.19129 6.99412L2.17178 6.99024L2.20693 7.39791C2.22912 7.67014 2.27615 7.9398 2.34744 8.20355C2.41901 8.46887 2.52635 8.74712 2.66948 9.03832C2.81262 9.32951 2.97526 9.58512 3.15742 9.80513C3.33959 10.0251 3.50678 10.205 3.65902 10.3448C3.81178 10.4827 3.97348 10.6104 4.14306 10.7273C4.31222 10.8437 4.53993 10.9634 4.82617 11.0864C5.11244 11.2093 5.2881 11.2805 5.35315 11.2999C5.41822 11.3193 5.46375 11.3323 5.48977 11.3388L5.52881 11.3485L5.56784 11.3582L5.60688 11.3679L5.64591 11.3776L5.68495 11.3873L5.68106 11.3931L5.67519 11.397L5.66933 11.4009L5.66543 11.4067L5.61664 11.4164L5.56784 11.4261L5.52881 11.4358C5.50279 11.4423 5.43122 11.4552 5.31411 11.4747C5.19701 11.4941 4.98557 11.507 4.67979 11.5135C4.37403 11.5199 4.14957 11.5135 4.00643 11.4941L3.79174 11.4649L3.76246 11.4591L3.73319 11.4552L3.73709 11.4747L3.74294 11.4941L3.7527 11.5232L3.76246 11.5523L3.92448 11.9056C4.03116 12.1424 4.14306 12.3515 4.26016 12.5327C4.37727 12.7138 4.5152 12.8905 4.67394 13.0626C4.83398 13.2335 4.9641 13.3655 5.06429 13.4587C5.16578 13.5531 5.33039 13.6716 5.55808 13.8139C5.7858 13.9563 6.02001 14.0792 6.26072 14.1828C6.50145 14.2863 6.7259 14.364 6.93407 14.4157C7.14227 14.4675 7.29515 14.4966 7.39274 14.5031C7.49033 14.5096 7.59117 14.516 7.69526 14.5225L7.8514 14.5322L7.84752 14.538L7.84164 14.5419L7.83579 14.5613L7.83189 14.5807L7.81237 14.5846L7.79285 14.5904L7.78897 14.5963L7.78309 14.6002L7.77724 14.604L7.77333 14.6099L7.76945 14.6157L7.76357 14.6196L7.75772 14.6235L7.75381 14.6293L7.30491 14.9302C7.00565 15.1308 6.78315 15.268 6.63743 15.3417C6.49038 15.4168 6.24317 15.5307 5.89576 15.6834C5.54704 15.8348 5.16449 15.9655 4.7481 16.0755C4.33173 16.1856 3.97066 16.2632 3.66487 16.3085C3.35911 16.3538 3.05983 16.3829 2.76706 16.3959C2.4743 16.4088 2.19781 16.4088 1.93757 16.3959C1.67734 16.3829 1.51794 16.3732 1.45938 16.3667L1.37155 16.357L1.35204 16.3512L1.33252 16.3473V16.3862H1.34228L1.34815 16.39L1.35204 16.3959L1.35594 16.4017L1.3618 16.4056L1.36767 16.4095L1.37155 16.4153L1.39107 16.425L1.41059 16.4347L1.41449 16.4405L1.42035 16.4444L1.42622 16.4483L1.43011 16.4541L1.60577 16.5609C1.72287 16.6321 1.82827 16.6916 1.92195 16.7395C2.01694 16.7886 2.25116 16.9051 2.62459 17.0889C2.99932 17.274 3.45018 17.4571 3.97716 17.6383C4.50413 17.8195 4.901 17.9424 5.16773 18.0071C5.43448 18.0719 5.80205 18.1366 6.27048 18.2013C6.7389 18.266 7.00891 18.3016 7.08046 18.308C7.15203 18.3145 7.24312 18.321 7.3537 18.3275M8.78825 18.3469H7.5196V18.3372L7.3537 18.3275M8.78825 18.3469L7.3537 18.3275" stroke="#808080" stroke-width="0.9"/>
</svg>
