<?xml version="1.0" encoding="utf-8"?>
<!-- Generator: Adobe Illustrator 24.1.0, SVG Export Plug-In . SVG Version: 6.00 Build 0)  -->
<svg version="1.1" id="Layer_1" xmlns="http://www.w3.org/2000/svg" xmlns:xlink="http://www.w3.org/1999/xlink" x="0px" y="0px"
	 viewBox="0 0 27 27" style="enable-background:new 0 0 27 27;" xml:space="preserve">
<style type="text/css">
	.st0{fill:#8B8988;}
</style>
<path class="st0" d="M25.9,7.6c-0.3-1.1-1.2-2-2.3-2.3c-2-0.6-10.2-0.6-10.2-0.6s-8.2,0-10.2,0.5C2,5.6,1.1,6.5,0.8,7.6
	c-0.5,2-0.5,6.3-0.5,6.3s0,4.3,0.5,6.3c0.3,1.1,1.2,2,2.3,2.3C5.2,23,13.3,23,13.3,23s8.2,0,10.2-0.5c1.1-0.3,2-1.2,2.3-2.3
	c0.5-2,0.5-6.3,0.5-6.3S26.4,9.6,25.9,7.6z M10.7,17.8V10l6.8,3.9L10.7,17.8z"/>
</svg>
